<ttFont>
<head>
    <!-- Most of this table will be recalculated by the compiler -->
    <tableVersion value="1.0"/>
    <fontRevision value="1.0"/>
    <checkSumAdjustment value="0x499c1937"/>
    <magicNumber value="0x5f0f3cf5"/>
    <flags value="00000000 00001011"/>
    <unitsPerEm value="2048"/>
    <created value="Sun Oct  9 20:23:58 2011"/>
    <modified value="Sun Oct  9 20:23:58 2011"/>
    <xMin value="-103"/>
    <yMin value="-500"/>
    <xMax value="1694"/>
    <yMax value="2081"/>
    <macStyle value="00000000 00000000"/>
    <lowestRecPPEM value="8"/>
    <fontDirectionHint value="2"/>
    <indexToLocFormat value="0"/>
    <glyphDataFormat value="0"/>
  </head>
    <TTGlyph name=".notdef" xMin="68" yMin="0" xMax="612" yMax="1365">
      <contour>
        <pt x="68" y="0" on="1"/>
        <pt x="68" y="1365" on="1"/>
        <pt x="612" y="1365" on="1"/>
        <pt x="612" y="0" on="1"/>
      </contour>
      <contour>
        <pt x="136" y="68" on="1"/>
        <pt x="544" y="68" on="1"/>
        <pt x="544" y="1297" on="1"/>
        <pt x="136" y="1297" on="1"/>
      </contour>
    </TTGlyph>
    <TTGlyph name="A" xMin="78" yMin="-1" xMax="590" yMax="1536">
      <contour>
        <pt x="567" y="600" on="1"/>
        <pt x="590" y="66" on="1"/>
        <pt x="590" y="44" on="1"/>
        <pt x="590" y="20" on="0"/>
        <pt x="584" y="14" on="1"/>
        <pt x="568" y="0" on="0"/>
        <pt x="530" y="0" on="0"/>
        <pt x="506" y="20" on="0"/>
        <pt x="506" y="35" on="1"/>
        <pt x="512" y="47" on="0"/>
        <pt x="512" y="59" on="1"/>
        <pt x="506" y="100" on="1"/>
        <pt x="506" y="303" on="1"/>
        <pt x="506" y="330" on="0"/>
        <pt x="290" y="369" on="0"/>
        <pt x="238" y="369" on="1"/>
        <pt x="218" y="369" on="0"/>
        <pt x="186" y="220" on="0"/>
        <pt x="156" y="42" on="0"/>
        <pt x="141" y="20" on="1"/>
        <pt x="93" y="20" on="0"/>
        <pt x="78" y="45" on="1"/>
        <pt x="110" y="91" on="0"/>
        <pt x="169" y="447" on="0"/>
        <pt x="205" y="608" on="0"/>
        <pt x="298" y="1146" on="0"/>
        <pt x="331" y="1297" on="0"/>
        <pt x="349" y="1369" on="0"/>
        <pt x="363" y="1418" on="1"/>
        <pt x="396" y="1536" on="0"/>
        <pt x="422" y="1536" on="1"/>
        <pt x="454" y="1536" on="0"/>
        <pt x="475" y="1507" on="0"/>
        <pt x="490" y="1400" on="0"/>
        <pt x="505" y="1235" on="0"/>
        <pt x="511" y="1166" on="1"/>
        <pt x="530" y="950" on="0"/>
        <pt x="539" y="814" on="0"/>
        <pt x="553" y="784" on="1"/>
        <pt x="549" y="722" on="0"/>
        <pt x="549" y="633" on="0"/>
      </contour>
      <contour>
        <pt x="231" y="426" on="1"/>
        <pt x="317" y="397" on="0"/>
        <pt x="438" y="397" on="1"/>
        <pt x="463" y="397" on="0"/>
        <pt x="475" y="401" on="1"/>
        <pt x="485" y="397" on="1"/>
        <pt x="504" y="397" on="0"/>
        <pt x="504" y="416" on="1"/>
        <pt x="504" y="844" on="0"/>
        <pt x="424" y="1339" on="1"/>
        <pt x="423" y="1345" on="0"/>
        <pt x="416" y="1377" on="0"/>
        <pt x="416" y="1386" on="1"/>
        <pt x="391" y="1315" on="0"/>
        <pt x="389" y="1296" on="1"/>
        <pt x="395" y="1284" on="1"/>
        <pt x="388" y="1277" on="0"/>
        <pt x="356" y="1150" on="0"/>
        <pt x="299" y="753" on="0"/>
        <pt x="274" y="640" on="0"/>
        <pt x="260" y="594" on="1"/>
        <pt x="231" y="492" on="0"/>
        <pt x="231" y="438" on="1"/>
      </contour>
    </TTGlyph>
    <TTGlyph name="AE" xMin="84" yMin="-41" xMax="844" yMax="1554">
      <contour>
        <pt x="799" y="57" on="1"/>
        <pt x="844" y="57" on="0"/>
        <pt x="844" y="31" on="1"/>
        <pt x="844" y="-4" on="0"/>
        <pt x="650" y="-7" on="1"/>
        <pt x="577" y="-8" on="0"/>
        <pt x="562" y="-16" on="0"/>
        <pt x="530" y="-40" on="0"/>
        <pt x="518" y="-41" on="1"/>
        <pt x="489" y="-12" on="1"/>
        <pt x="506" y="101" on="0"/>
        <pt x="506" y="229" on="1"/>
        <pt x="496" y="621" on="1"/>
        <pt x="485" y="635" on="1"/>
        <pt x="477" y="633" on="0"/>
        <pt x="421" y="629" on="1"/>
        <pt x="279" y="619" on="0"/>
        <pt x="274" y="600" on="1"/>
        <pt x="172" y="209" on="1"/>
        <pt x="172" y="208" on="0"/>
        <pt x="159" y="146" on="1"/>
        <pt x="129" y="2" on="0"/>
        <pt x="100" y="2" on="1"/>
        <pt x="93" y="2" on="0"/>
        <pt x="84" y="20" on="0"/>
        <pt x="84" y="27" on="1"/>
        <pt x="86" y="125" on="0"/>
        <pt x="297" y="951" on="0"/>
        <pt x="434" y="1393" on="1"/>
        <pt x="461" y="1485" on="0"/>
        <pt x="504" y="1544" on="0"/>
        <pt x="528" y="1544" on="1"/>
        <pt x="686" y="1554" on="1"/>
        <pt x="750" y="1554" on="0"/>
        <pt x="750" y="1522" on="1"/>
        <pt x="737" y="1497" on="1"/>
        <pt x="637" y="1497" on="0"/>
        <pt x="535" y="1485" on="1"/>
        <pt x="549" y="1180" on="1"/>
        <pt x="543" y="702" on="1"/>
        <pt x="553" y="690" on="1"/>
        <pt x="715" y="711" on="1"/>
        <pt x="743" y="676" on="1"/>
        <pt x="743" y="641" on="0"/>
        <pt x="625" y="641" on="1"/>
        <pt x="584" y="641" on="0"/>
        <pt x="543" y="641" on="1"/>
        <pt x="551" y="154" on="1"/>
        <pt x="549" y="70" on="1"/>
        <pt x="549" y="35" on="0"/>
        <pt x="567" y="35" on="1"/>
      </contour>
      <contour>
        <pt x="489" y="1393" on="1"/>
        <pt x="471" y="1371" on="0"/>
        <pt x="294" y="715" on="0"/>
        <pt x="289" y="664" on="1"/>
        <pt x="417" y="668" on="0"/>
        <pt x="494" y="688" on="1"/>
        <pt x="495" y="741" on="0"/>
        <pt x="502" y="1064" on="0"/>
        <pt x="502" y="1292" on="0"/>
      </contour>
    </TTGlyph>
    <TTGlyph name="Aacute" xMin="78" yMin="0" xMax="590" yMax="1913">
      <component glyphName="acute" x="139" y="365" flags="0x1004"/>
      <component glyphName="A" x="0" y="0" flags="0x1204"/>
    </TTGlyph>
    <TTGlyph name="Abreve" xMin="78" yMin="0" xMax="590" yMax="1900">
      <component glyphName="breve" x="149" y="782" flags="0x1004"/>
      <component glyphName="A" x="0" y="0" flags="0x1204"/>
    </TTGlyph>
    <TTGlyph name="Acircumflex" xMin="78" yMin="0" xMax="590" yMax="2056">
      <component glyphName="circumflex" x="177" y="723" flags="0x1004"/>
      <component glyphName="A" x="0" y="0" flags="0x1204"/>
    </TTGlyph>
    <TTGlyph name="Adieresis" xMin="78" yMin="0" xMax="693" yMax="1777">
      <component glyphName="dieresis" x="27" y="702" flags="0x1004"/>
      <component glyphName="A" x="0" y="0" flags="0x1204"/>
    </TTGlyph>
    <TTGlyph name="Agrave" xMin="78" yMin="0" xMax="590" yMax="1829">
      <component glyphName="grave" x="3" y="125" flags="0x1004"/>
      <component glyphName="A" x="0" y="0" flags="0x1204"/>
    </TTGlyph>
    <TTGlyph name="Amacron" xMin="78" yMin="0" xMax="613" yMax="1723">
      <component glyphName="macron" x="106" y="971" flags="0x1004"/>
      <component glyphName="A" x="0" y="0" flags="0x1204"/>
    </TTGlyph>
    <TTGlyph name="Aogonek" xMin="78" yMin="-455" xMax="663" yMax="1536">
      <component glyphName="ogonek" x="307" y="24" flags="0x1004"/>
      <component glyphName="A" x="0" y="0" flags="0x1004"/>
    </TTGlyph>
    <TTGlyph name="Aring" xMin="78" yMin="0" xMax="590" yMax="1798">
      <component glyphName="ring" x="221" y="506" flags="0x1004"/>
      <component glyphName="A" x="0" y="0" flags="0x1204"/>
    </TTGlyph>
    <TTGlyph name="Atilde" xMin="78" yMin="0" xMax="630" yMax="1853">
      <component glyphName="tilde" x="87" y="653" flags="0x1004"/>
      <component glyphName="A" x="0" y="0" flags="0x1204"/>
    </TTGlyph>
    <TTGlyph name="B" xMin="109" yMin="-12" xMax="514" yMax="1536">
      <contour>
        <pt x="514" y="473" on="1"/>
        <pt x="508" y="385" on="1"/>
        <pt x="508" y="380" on="0"/>
        <pt x="514" y="362" on="1"/>
        <pt x="495" y="218" on="0"/>
        <pt x="427" y="101" on="0"/>
        <pt x="342" y="38" on="0"/>
        <pt x="274" y="8" on="1"/>
        <pt x="260" y="7" on="0"/>
        <pt x="208" y="-12" on="0"/>
        <pt x="193" y="-12" on="1"/>
        <pt x="113" y="-12" on="0"/>
        <pt x="113" y="16" on="1"/>
        <pt x="123" y="535" on="1"/>
        <pt x="109" y="1389" on="1"/>
        <pt x="109" y="1536" on="0"/>
        <pt x="162" y="1536" on="1"/>
        <pt x="302" y="1536" on="0"/>
        <pt x="449" y="1356" on="0"/>
        <pt x="449" y="1052" on="0"/>
        <pt x="317" y="874" on="1"/>
        <pt x="346" y="831" on="0"/>
        <pt x="384" y="781" on="1"/>
        <pt x="440" y="705" on="1"/>
        <pt x="494" y="634" on="0"/>
        <pt x="514" y="527" on="0"/>
      </contour>
      <contour>
        <pt x="190" y="70" on="1"/>
        <pt x="203" y="68" on="1"/>
        <pt x="266" y="68" on="0"/>
        <pt x="434" y="197" on="0"/>
        <pt x="457" y="295" on="0"/>
        <pt x="457" y="371" on="1"/>
        <pt x="457" y="738" on="0"/>
        <pt x="281" y="811" on="1"/>
        <pt x="261" y="810" on="0"/>
        <pt x="193" y="790" on="0"/>
        <pt x="180" y="788" on="1"/>
        <pt x="190" y="488" on="0"/>
      </contour>
      <contour>
        <pt x="172" y="1378" on="1"/>
        <pt x="180" y="887" on="1"/>
        <pt x="186" y="885" on="1"/>
        <pt x="258" y="885" on="0"/>
        <pt x="304" y="968" on="1"/>
        <pt x="341" y="1034" on="0"/>
        <pt x="387" y="1172" on="0"/>
        <pt x="395" y="1190" on="1"/>
        <pt x="395" y="1268" on="1"/>
        <pt x="395" y="1338" on="0"/>
        <pt x="293" y="1466" on="0"/>
        <pt x="225" y="1466" on="1"/>
        <pt x="172" y="1466" on="0"/>
      </contour>
    </TTGlyph>
    <TTGlyph name="C" xMin="96" yMin="-33" xMax="610" yMax="1565">
      <contour>
        <pt x="170" y="1008" on="1"/>
        <pt x="152" y="860" on="1"/>
        <pt x="152" y="739" on="0"/>
        <pt x="206" y="173" on="0"/>
        <pt x="234" y="130" on="1"/>
        <pt x="288" y="47" on="0"/>
        <pt x="503" y="47" on="0"/>
        <pt x="553" y="106" on="1"/>
        <pt x="572" y="106" on="0"/>
        <pt x="600" y="113" on="1"/>
        <pt x="610" y="102" on="1"/>
        <pt x="610" y="4" on="0"/>
        <pt x="454" y="-26" on="1"/>
        <pt x="417" y="-33" on="0"/>
        <pt x="324" y="-33" on="0"/>
        <pt x="198" y="59" on="0"/>
        <pt x="146" y="171" on="0"/>
        <pt x="96" y="755" on="0"/>
        <pt x="96" y="1199" on="0"/>
        <pt x="109" y="1239" on="1"/>
        <pt x="102" y="1274" on="0"/>
        <pt x="102" y="1305" on="1"/>
        <pt x="102" y="1428" on="0"/>
        <pt x="278" y="1565" on="0"/>
        <pt x="406" y="1565" on="1"/>
        <pt x="441" y="1565" on="0"/>
        <pt x="524" y="1521" on="0"/>
        <pt x="524" y="1489" on="1"/>
        <pt x="524" y="1466" on="0"/>
        <pt x="492" y="1466" on="1"/>
        <pt x="483" y="1466" on="0"/>
        <pt x="451" y="1491" on="0"/>
        <pt x="430" y="1491" on="0"/>
        <pt x="418" y="1487" on="1"/>
        <pt x="394" y="1495" on="0"/>
        <pt x="344" y="1495" on="0"/>
        <pt x="273" y="1474" on="0"/>
        <pt x="226" y="1441" on="0"/>
        <pt x="193" y="1385" on="0"/>
        <pt x="175" y="1334" on="0"/>
        <pt x="170" y="1294" on="1"/>
        <pt x="164" y="1237" on="0"/>
        <pt x="164" y="1153" on="1"/>
      </contour>
      <contour>
        <pt x="403" y="1475" on="1"/>
        <pt x="399" y="1475" on="1"/>
      </contour>
    </TTGlyph>
    <TTGlyph name="Cacute" xMin="96" yMin="-33" xMax="610" yMax="1913">
      <component glyphName="acute" x="174" y="365" flags="0x1004"/>
      <component glyphName="C" x="0" y="0" flags="0x1204"/>
    </TTGlyph>
    <TTGlyph name="Ccaron" xMin="96" yMin="-33" xMax="610" yMax="2056">
      <component glyphName="caron" x="64" y="723" flags="0x1004"/>
      <component glyphName="C" x="0" y="0" flags="0x1204"/>
    </TTGlyph>
    <TTGlyph name="Ccedilla" xMin="96" yMin="-488" xMax="610" yMax="1565">
      <component glyphName="cedilla" x="204" y="-9" flags="0x1004"/>
      <component glyphName="C" x="0" y="0" flags="0x1204"/>
    </TTGlyph>
    <TTGlyph name="Ccircumflex" xMin="96" yMin="-33" xMax="610" yMax="2056">
      <component glyphName="circumflex" x="69" y="723" flags="0x1004"/>
      <component glyphName="C" x="0" y="0" flags="0x1204"/>
    </TTGlyph>
    <TTGlyph name="Cdotaccent" xMin="96" yMin="-33" xMax="610" yMax="1777">
      <component glyphName="uni0307" x="143" y="520" flags="0x1004"/>
      <component glyphName="C" x="0" y="0" flags="0x1204"/>
    </TTGlyph>
    <TTGlyph name="D" xMin="82" yMin="-4" xMax="596" yMax="1546">
      <contour>
        <pt x="156" y="299" on="1"/>
        <pt x="158" y="381" on="1"/>
        <pt x="158" y="501" on="0"/>
        <pt x="130" y="819" on="0"/>
        <pt x="127" y="858" on="1"/>
        <pt x="118" y="877" on="0"/>
        <pt x="116" y="1352" on="0"/>
        <pt x="109" y="1404" on="0"/>
        <pt x="82" y="1476" on="0"/>
        <pt x="82" y="1497" on="1"/>
        <pt x="82" y="1546" on="0"/>
        <pt x="236" y="1546" on="1"/>
        <pt x="246" y="1546" on="1"/>
        <pt x="324" y="1546" on="0"/>
        <pt x="504" y="1374" on="0"/>
        <pt x="559" y="1236" on="0"/>
        <pt x="577" y="1043" on="0"/>
        <pt x="584" y="883" on="0"/>
        <pt x="594" y="862" on="1"/>
        <pt x="590" y="807" on="1"/>
        <pt x="596" y="797" on="1"/>
        <pt x="590" y="780" on="1"/>
        <pt x="596" y="770" on="1"/>
        <pt x="584" y="751" on="0"/>
        <pt x="584" y="675" on="0"/>
        <pt x="576" y="611" on="0"/>
        <pt x="568" y="575" on="0"/>
        <pt x="549" y="504" on="0"/>
        <pt x="530" y="426" on="1"/>
        <pt x="474" y="206" on="0"/>
        <pt x="214" y="-4" on="0"/>
        <pt x="167" y="-4" on="0"/>
        <pt x="118" y="17" on="0"/>
        <pt x="115" y="37" on="1"/>
        <pt x="144" y="74" on="0"/>
        <pt x="147" y="119" on="1"/>
      </contour>
      <contour>
        <pt x="162" y="1450" on="1"/>
        <pt x="180" y="1110" on="1"/>
        <pt x="180" y="978" on="0"/>
        <pt x="211" y="459" on="0"/>
        <pt x="211" y="276" on="0"/>
        <pt x="207" y="166" on="1"/>
        <pt x="211" y="158" on="1"/>
        <pt x="211" y="100" on="1"/>
        <pt x="221" y="100" on="1"/>
        <pt x="298" y="141" on="0"/>
        <pt x="416" y="294" on="0"/>
        <pt x="481" y="461" on="0"/>
        <pt x="502" y="560" on="1"/>
        <pt x="535" y="722" on="0"/>
        <pt x="535" y="874" on="1"/>
        <pt x="535" y="1473" on="0"/>
        <pt x="205" y="1473" on="1"/>
        <pt x="164" y="1473" on="0"/>
      </contour>
    </TTGlyph>
    <TTGlyph name="Dcaron" xMin="82" yMin="-4" xMax="596" yMax="2056">
      <component glyphName="caron" x="63" y="723" flags="0x1004"/>
      <component glyphName="D" x="0" y="0" flags="0x1204"/>
    </TTGlyph>
    <TTGlyph name="Dcroat" xMin="72" yMin="-88" xMax="733" yMax="1606">
      <component glyphName="Eth" x="0" y="0" flags="0x1204"/>
    </TTGlyph>
    <TTGlyph name="E" xMin="96" yMin="-12" xMax="418" yMax="1548">
      <contour>
        <pt x="199" y="61" on="1"/>
        <pt x="322" y="68" on="1"/>
        <pt x="418" y="68" on="0"/>
        <pt x="418" y="35" on="1"/>
        <pt x="401" y="5" on="0"/>
        <pt x="313" y="-12" on="0"/>
        <pt x="272" y="-12" on="1"/>
        <pt x="224" y="-12" on="1"/>
        <pt x="132" y="-12" on="0"/>
        <pt x="104" y="17" on="0"/>
        <pt x="104" y="33" on="1"/>
        <pt x="123" y="109" on="1"/>
        <pt x="123" y="113" on="1"/>
        <pt x="115" y="154" on="0"/>
        <pt x="115" y="203" on="1"/>
        <pt x="125" y="412" on="1"/>
        <pt x="113" y="850" on="1"/>
        <pt x="123" y="1257" on="1"/>
        <pt x="123" y="1294" on="0"/>
        <pt x="97" y="1439" on="0"/>
        <pt x="96" y="1473" on="1"/>
        <pt x="133" y="1530" on="1"/>
        <pt x="276" y="1548" on="1"/>
        <pt x="283" y="1542" on="1"/>
        <pt x="331" y="1542" on="0"/>
        <pt x="346" y="1517" on="0"/>
        <pt x="346" y="1503" on="1"/>
        <pt x="346" y="1464" on="0"/>
        <pt x="272" y="1464" on="1"/>
        <pt x="217" y="1468" on="1"/>
        <pt x="172" y="1468" on="0"/>
        <pt x="172" y="1444" on="1"/>
        <pt x="188" y="1096" on="1"/>
        <pt x="178" y="840" on="1"/>
        <pt x="174" y="836" on="1"/>
        <pt x="186" y="829" on="1"/>
        <pt x="299" y="850" on="1"/>
        <pt x="310" y="850" on="0"/>
        <pt x="336" y="827" on="0"/>
        <pt x="336" y="815" on="1"/>
        <pt x="336" y="774" on="0"/>
        <pt x="305" y="774" on="1"/>
        <pt x="258" y="776" on="1"/>
        <pt x="180" y="776" on="0"/>
        <pt x="180" y="737" on="1"/>
        <pt x="195" y="565" on="1"/>
        <pt x="188" y="553" on="1"/>
        <pt x="188" y="137" on="1"/>
        <pt x="199" y="124" on="0"/>
        <pt x="199" y="80" on="1"/>
      </contour>
    </TTGlyph>
    <TTGlyph name="Eacute" xMin="96" yMin="-12" xMax="462" yMax="1913">
      <component glyphName="acute" x="65" y="365" flags="0x1004"/>
      <component glyphName="E" x="0" y="0" flags="0x1204"/>
    </TTGlyph>
    <TTGlyph name="Ebreve" xMin="42" yMin="-12" xMax="418" yMax="1900">
      <component glyphName="breve" x="-67" y="782" flags="0x1004"/>
      <component glyphName="E" x="0" y="0" flags="0x1204"/>
    </TTGlyph>
    <TTGlyph name="Ecaron" xMin="47" yMin="-12" xMax="418" yMax="2056">
      <component glyphName="caron" x="-45" y="723" flags="0x1004"/>
      <component glyphName="E" x="0" y="0" flags="0x1204"/>
    </TTGlyph>
    <TTGlyph name="Ecircumflex" xMin="59" yMin="-12" xMax="418" yMax="2056">
      <component glyphName="circumflex" x="-39" y="723" flags="0x1004"/>
      <component glyphName="E" x="0" y="0" flags="0x1204"/>
    </TTGlyph>
    <TTGlyph name="Edieresis" xMin="-79" yMin="-12" xMax="476" yMax="1777">
      <component glyphName="dieresis" x="-190" y="702" flags="0x1004"/>
      <component glyphName="E" x="0" y="0" flags="0x1204"/>
    </TTGlyph>
    <TTGlyph name="Edotaccent" xMin="96" yMin="-12" xMax="418" yMax="1777">
      <component glyphName="uni0307" x="35" y="520" flags="0x1004"/>
      <component glyphName="E" x="0" y="0" flags="0x1204"/>
    </TTGlyph>
    <TTGlyph name="Egrave" xMin="-38" yMin="-12" xMax="418" yMax="1829">
      <component glyphName="grave" x="-142" y="125" flags="0x1004"/>
      <component glyphName="E" x="0" y="0" flags="0x1204"/>
    </TTGlyph>
    <TTGlyph name="Emacron" xMin="2" yMin="-12" xMax="418" yMax="1723">
      <component glyphName="macron" x="-111" y="971" flags="0x1004"/>
      <component glyphName="E" x="0" y="0" flags="0x1204"/>
    </TTGlyph>
    <TTGlyph name="Eng" xMin="104" yMin="-467" xMax="662" yMax="1595">
      <contour>
        <pt x="627" y="37" on="1"/>
        <pt x="616" y="-131" on="1"/>
        <pt x="616" y="-151" on="0"/>
        <pt x="595" y="-292" on="0"/>
        <pt x="501" y="-424" on="0"/>
        <pt x="442" y="-467" on="1"/>
        <pt x="399" y="-467" on="0"/>
        <pt x="399" y="-428" on="1"/>
        <pt x="401" y="-409" on="0"/>
        <pt x="467" y="-366" on="0"/>
        <pt x="473" y="-360" on="1"/>
        <pt x="563" y="-270" on="0"/>
        <pt x="563" y="-47" on="1"/>
        <pt x="563" y="-29" on="1"/>
        <pt x="551" y="-12" on="0"/>
        <pt x="466" y="260" on="0"/>
        <pt x="434" y="363" on="1"/>
        <pt x="314" y="748" on="0"/>
        <pt x="266" y="1016" on="1"/>
        <pt x="264" y="1025" on="0"/>
        <pt x="263" y="1044" on="1"/>
        <pt x="261" y="1085" on="0"/>
        <pt x="244" y="1102" on="1"/>
        <pt x="248" y="1112" on="1"/>
        <pt x="235" y="1188" on="0"/>
        <pt x="222" y="1247" on="0"/>
        <pt x="214" y="1284" on="1"/>
        <pt x="200" y="1349" on="0"/>
        <pt x="178" y="1401" on="1"/>
        <pt x="172" y="1359" on="0"/>
        <pt x="172" y="1315" on="0"/>
        <pt x="176" y="1303" on="1"/>
        <pt x="162" y="1255" on="0"/>
        <pt x="162" y="1161" on="1"/>
        <pt x="162" y="600" on="1"/>
        <pt x="162" y="502" on="0"/>
        <pt x="190" y="114" on="0"/>
        <pt x="190" y="16" on="1"/>
        <pt x="176" y="0" on="1"/>
        <pt x="129" y="0" on="1"/>
        <pt x="123" y="16" on="1"/>
        <pt x="127" y="32" on="0"/>
        <pt x="127" y="98" on="1"/>
        <pt x="104" y="811" on="1"/>
        <pt x="104" y="1079" on="1"/>
        <pt x="119" y="1466" on="1"/>
        <pt x="117" y="1509" on="1"/>
        <pt x="117" y="1535" on="0"/>
        <pt x="144" y="1552" on="0"/>
        <pt x="187" y="1552" on="0"/>
        <pt x="219" y="1527" on="0"/>
        <pt x="219" y="1473" on="0"/>
        <pt x="237" y="1409" on="0"/>
        <pt x="271" y="1330" on="0"/>
        <pt x="290" y="1265" on="0"/>
        <pt x="306" y="1122" on="0"/>
        <pt x="328" y="1012" on="0"/>
        <pt x="378" y="826" on="0"/>
        <pt x="443" y="600" on="0"/>
        <pt x="463" y="524" on="0"/>
        <pt x="500" y="345" on="0"/>
        <pt x="510" y="313" on="1"/>
        <pt x="569" y="115" on="1"/>
        <pt x="578" y="219" on="0"/>
        <pt x="578" y="248" on="1"/>
        <pt x="586" y="961" on="1"/>
        <pt x="580" y="1278" on="1"/>
        <pt x="586" y="1356" on="1"/>
        <pt x="586" y="1378" on="0"/>
        <pt x="580" y="1382" on="1"/>
        <pt x="586" y="1399" on="1"/>
        <pt x="586" y="1446" on="1"/>
        <pt x="586" y="1528" on="0"/>
        <pt x="578" y="1567" on="1"/>
        <pt x="586" y="1595" on="0"/>
        <pt x="629" y="1595" on="1"/>
        <pt x="662" y="1595" on="0"/>
        <pt x="662" y="1528" on="1"/>
        <pt x="649" y="1502" on="0"/>
        <pt x="649" y="1460" on="1"/>
        <pt x="651" y="1391" on="1"/>
        <pt x="651" y="1347" on="0"/>
        <pt x="643" y="1329" on="1"/>
        <pt x="637" y="682" on="1"/>
        <pt x="637" y="663" on="0"/>
        <pt x="641" y="627" on="1"/>
        <pt x="637" y="618" on="1"/>
        <pt x="637" y="360" on="1"/>
      </contour>
    </TTGlyph>
    <TTGlyph name="Eogonek" xMin="96" yMin="-467" xMax="418" yMax="1548">
      <component glyphName="ogonek" x="-2" y="12" flags="0x1004"/>
      <component glyphName="E" x="0" y="0" flags="0x1004"/>
    </TTGlyph>
    <TTGlyph name="Eth" xMin="72" yMin="-88" xMax="733" yMax="1606">
      <contour>
        <pt x="199" y="1196" on="1"/>
        <pt x="182" y="1563" on="1"/>
        <pt x="182" y="1571" on="0"/>
        <pt x="207" y="1606" on="0"/>
        <pt x="215" y="1606" on="1"/>
        <pt x="386" y="1606" on="0"/>
        <pt x="563" y="1360" on="1"/>
        <pt x="605" y="1301" on="0"/>
        <pt x="637" y="1241" on="1"/>
        <pt x="637" y="1237" on="1"/>
        <pt x="733" y="966" on="0"/>
        <pt x="733" y="649" on="1"/>
        <pt x="733" y="515" on="0"/>
        <pt x="634" y="220" on="0"/>
        <pt x="441" y="-35" on="0"/>
        <pt x="322" y="-88" on="1"/>
        <pt x="313" y="-84" on="0"/>
        <pt x="298" y="-80" on="1"/>
        <pt x="273" y="-73" on="0"/>
        <pt x="262" y="-49" on="1"/>
        <pt x="260" y="-49" on="1"/>
        <pt x="260" y="222" on="0"/>
        <pt x="242" y="602" on="1"/>
        <pt x="232" y="728" on="0"/>
        <pt x="225" y="754" on="1"/>
        <pt x="100" y="741" on="1"/>
        <pt x="83" y="741" on="0"/>
        <pt x="72" y="758" on="0"/>
        <pt x="72" y="795" on="0"/>
        <pt x="144" y="814" on="0"/>
        <pt x="180" y="814" on="1"/>
        <pt x="217" y="813" on="1"/>
        <pt x="225" y="817" on="1"/>
        <pt x="227" y="827" on="1"/>
        <pt x="227" y="888" on="0"/>
        <pt x="199" y="1134" on="0"/>
      </contour>
      <contour>
        <pt x="301" y="821" on="1"/>
        <pt x="442" y="844" on="1"/>
        <pt x="459" y="844" on="0"/>
        <pt x="483" y="812" on="0"/>
        <pt x="485" y="795" on="1"/>
        <pt x="465" y="770" on="1"/>
        <pt x="361" y="770" on="0"/>
        <pt x="297" y="756" on="1"/>
        <pt x="297" y="724" on="0"/>
        <pt x="308" y="463" on="0"/>
        <pt x="311" y="451" on="1"/>
        <pt x="309" y="449" on="1"/>
        <pt x="309" y="376" on="0"/>
        <pt x="330" y="79" on="0"/>
        <pt x="330" y="6" on="1"/>
        <pt x="357" y="12" on="0"/>
        <pt x="381" y="36" on="0"/>
        <pt x="399" y="55" on="0"/>
        <pt x="403" y="59" on="1"/>
        <pt x="506" y="160" on="0"/>
        <pt x="659" y="482" on="0"/>
        <pt x="659" y="723" on="0"/>
        <pt x="658" y="780" on="1"/>
        <pt x="653" y="948" on="0"/>
        <pt x="616" y="1087" on="1"/>
        <pt x="583" y="1248" on="0"/>
        <pt x="400" y="1495" on="0"/>
        <pt x="256" y="1538" on="1"/>
        <pt x="252" y="1534" on="1"/>
        <pt x="252" y="1405" on="0"/>
        <pt x="281" y="849" on="0"/>
      </contour>
    </TTGlyph>
    <TTGlyph name="Euro" xMin="100" yMin="-14" xMax="518" yMax="1542">
      <contour>
        <pt x="100" y="1036" on="1"/>
        <pt x="102" y="1364" on="1"/>
        <pt x="114" y="1384" on="0"/>
        <pt x="135" y="1481" on="0"/>
        <pt x="146" y="1501" on="1"/>
        <pt x="169" y="1542" on="0"/>
        <pt x="248" y="1542" on="1"/>
        <pt x="268" y="1542" on="0"/>
        <pt x="340" y="1501" on="0"/>
        <pt x="379" y="1464" on="0"/>
        <pt x="406" y="1413" on="0"/>
        <pt x="424" y="1377" on="0"/>
        <pt x="437" y="1308" on="0"/>
        <pt x="440" y="1293" on="1"/>
        <pt x="447" y="1246" on="0"/>
        <pt x="454" y="1177" on="0"/>
        <pt x="470" y="1057" on="0"/>
        <pt x="473" y="1033" on="0"/>
        <pt x="488" y="924" on="0"/>
        <pt x="491" y="889" on="0"/>
        <pt x="502" y="792" on="0"/>
        <pt x="506" y="744" on="0"/>
        <pt x="513" y="659" on="0"/>
        <pt x="514" y="630" on="1"/>
        <pt x="518" y="561" on="0"/>
        <pt x="518" y="449" on="0"/>
        <pt x="514" y="368" on="0"/>
        <pt x="503" y="241" on="0"/>
        <pt x="476" y="138" on="0"/>
        <pt x="456" y="90" on="1"/>
        <pt x="412" y="-14" on="0"/>
        <pt x="322" y="-14" on="1"/>
        <pt x="303" y="-14" on="0"/>
        <pt x="256" y="12" on="1"/>
        <pt x="159" y="72" on="0"/>
        <pt x="106" y="774" on="1"/>
        <pt x="115" y="782" on="1"/>
        <pt x="113" y="928" on="1"/>
        <pt x="100" y="945" on="0"/>
      </contour>
      <contour>
        <pt x="156" y="946" on="1"/>
        <pt x="176" y="766" on="1"/>
        <pt x="176" y="33" on="0"/>
        <pt x="340" y="33" on="1"/>
        <pt x="398" y="33" on="0"/>
        <pt x="428" y="142" on="1"/>
        <pt x="456" y="248" on="0"/>
        <pt x="461" y="334" on="1"/>
        <pt x="469" y="472" on="0"/>
        <pt x="469" y="654" on="0"/>
        <pt x="437" y="993" on="0"/>
        <pt x="406" y="1071" on="1"/>
        <pt x="406" y="1159" on="1"/>
        <pt x="384" y="1215" on="0"/>
        <pt x="380" y="1335" on="0"/>
        <pt x="365" y="1404" on="0"/>
        <pt x="351" y="1429" on="1"/>
        <pt x="320" y="1485" on="0"/>
        <pt x="217" y="1497" on="1"/>
        <pt x="169" y="1458" on="0"/>
        <pt x="147" y="1398" on="0"/>
        <pt x="147" y="1329" on="1"/>
      </contour>
    </TTGlyph>
    <TTGlyph name="F" xMin="82" yMin="-4" xMax="356" yMax="1548">
      <contour>
        <pt x="281" y="1481" on="1"/>
        <pt x="231" y="1483" on="1"/>
        <pt x="156" y="1483" on="0"/>
        <pt x="156" y="1436" on="1"/>
        <pt x="156" y="1336" on="0"/>
        <pt x="186" y="944" on="0"/>
        <pt x="186" y="844" on="1"/>
        <pt x="210" y="844" on="0"/>
        <pt x="300" y="868" on="0"/>
        <pt x="337" y="868" on="0"/>
        <pt x="356" y="840" on="0"/>
        <pt x="356" y="827" on="1"/>
        <pt x="356" y="802" on="0"/>
        <pt x="271" y="790" on="0"/>
        <pt x="186" y="782" on="0"/>
        <pt x="186" y="762" on="1"/>
        <pt x="186" y="646" on="0"/>
        <pt x="225" y="187" on="0"/>
        <pt x="225" y="72" on="1"/>
        <pt x="219" y="61" on="1"/>
        <pt x="225" y="46" on="0"/>
        <pt x="225" y="31" on="1"/>
        <pt x="225" y="-4" on="0"/>
        <pt x="180" y="-4" on="1"/>
        <pt x="145" y="-4" on="0"/>
        <pt x="145" y="135" on="1"/>
        <pt x="147" y="201" on="1"/>
        <pt x="147" y="305" on="0"/>
        <pt x="121" y="716" on="0"/>
        <pt x="121" y="819" on="1"/>
        <pt x="121" y="1413" on="0"/>
        <pt x="82" y="1462" on="1"/>
        <pt x="82" y="1475" on="1"/>
        <pt x="82" y="1548" on="0"/>
        <pt x="285" y="1548" on="1"/>
        <pt x="319" y="1548" on="0"/>
        <pt x="319" y="1501" on="1"/>
        <pt x="319" y="1481" on="0"/>
      </contour>
    </TTGlyph>
    <TTGlyph name="G" xMin="94" yMin="-41" xMax="676" yMax="1571">
      <contour>
        <pt x="571" y="463" on="1"/>
        <pt x="635" y="463" on="0"/>
        <pt x="635" y="377" on="1"/>
        <pt x="635" y="316" on="0"/>
        <pt x="676" y="73" on="0"/>
        <pt x="676" y="12" on="1"/>
        <pt x="676" y="-20" on="0"/>
        <pt x="649" y="-20" on="1"/>
        <pt x="600" y="-20" on="0"/>
        <pt x="600" y="25" on="1"/>
        <pt x="600" y="26" on="0"/>
        <pt x="602" y="34" on="0"/>
        <pt x="602" y="35" on="1"/>
        <pt x="582" y="29" on="0"/>
        <pt x="518" y="-17" on="0"/>
        <pt x="486" y="-27" on="0"/>
        <pt x="421" y="-31" on="0"/>
        <pt x="406" y="-41" on="1"/>
        <pt x="410" y="-41" on="1"/>
        <pt x="275" y="-11" on="0"/>
        <pt x="208" y="53" on="1"/>
        <pt x="154" y="104" on="0"/>
        <pt x="132" y="226" on="1"/>
        <pt x="94" y="429" on="0"/>
        <pt x="94" y="877" on="1"/>
        <pt x="94" y="1053" on="0"/>
        <pt x="114" y="1201" on="0"/>
        <pt x="137" y="1314" on="0"/>
        <pt x="170" y="1397" on="0"/>
        <pt x="220" y="1483" on="0"/>
        <pt x="251" y="1510" on="1"/>
        <pt x="321" y="1571" on="0"/>
        <pt x="420" y="1571" on="1"/>
        <pt x="481" y="1571" on="0"/>
        <pt x="481" y="1536" on="1"/>
        <pt x="481" y="1511" on="0"/>
        <pt x="451" y="1511" on="1"/>
        <pt x="393" y="1522" on="1"/>
        <pt x="236" y="1522" on="0"/>
        <pt x="190" y="1235" on="1"/>
        <pt x="164" y="1079" on="0"/>
        <pt x="164" y="827" on="1"/>
        <pt x="158" y="665" on="0"/>
        <pt x="158" y="540" on="0"/>
        <pt x="160" y="471" on="0"/>
        <pt x="167" y="367" on="0"/>
        <pt x="184" y="284" on="0"/>
        <pt x="208" y="188" on="0"/>
        <pt x="249" y="117" on="0"/>
        <pt x="276" y="87" on="1"/>
        <pt x="332" y="25" on="0"/>
        <pt x="534" y="25" on="0"/>
        <pt x="600" y="127" on="1"/>
        <pt x="600" y="280" on="0"/>
        <pt x="563" y="391" on="0"/>
        <pt x="547" y="391" on="1"/>
        <pt x="465" y="383" on="1"/>
        <pt x="418" y="383" on="0"/>
        <pt x="418" y="418" on="1"/>
        <pt x="418" y="437" on="0"/>
        <pt x="539" y="463" on="0"/>
      </contour>
    </TTGlyph>
    <TTGlyph name="Gbreve" xMin="94" yMin="-41" xMax="676" yMax="1900">
      <component glyphName="breve" x="72" y="782" flags="0x1004"/>
      <component glyphName="G" x="0" y="0" flags="0x1204"/>
    </TTGlyph>
    <TTGlyph name="Gcircumflex" xMin="94" yMin="-41" xMax="676" yMax="2056">
      <component glyphName="circumflex" x="99" y="723" flags="0x1004"/>
      <component glyphName="G" x="0" y="0" flags="0x1204"/>
    </TTGlyph>
    <TTGlyph name="Gcommaaccent" xMin="94" yMin="-481" xMax="676" yMax="1571">
      <component glyphName="uni0326" x="269" y="-41" flags="0x1004"/>
      <component glyphName="G" x="0" y="0" flags="0x1204"/>
    </TTGlyph>
    <TTGlyph name="Gdotaccent" xMin="94" yMin="-41" xMax="676" yMax="1777">
      <component glyphName="uni0307" x="173" y="520" flags="0x1004"/>
      <component glyphName="G" x="0" y="0" flags="0x1204"/>
    </TTGlyph>
    <TTGlyph name="H" xMin="94" yMin="-33" xMax="492" yMax="1548">
      <contour>
        <pt x="410" y="825" on="1"/>
        <pt x="391" y="1520" on="1"/>
        <pt x="391" y="1528" on="0"/>
        <pt x="395" y="1548" on="1"/>
        <pt x="434" y="1548" on="0"/>
        <pt x="444" y="1494" on="1"/>
        <pt x="453" y="1447" on="0"/>
        <pt x="453" y="1017" on="0"/>
        <pt x="483" y="122" on="0"/>
        <pt x="483" y="49" on="1"/>
        <pt x="492" y="31" on="0"/>
        <pt x="492" y="6" on="0"/>
        <pt x="469" y="-33" on="0"/>
        <pt x="455" y="-33" on="1"/>
        <pt x="426" y="-33" on="0"/>
        <pt x="426" y="12" on="1"/>
        <pt x="428" y="59" on="1"/>
        <pt x="428" y="374" on="0"/>
        <pt x="408" y="762" on="1"/>
        <pt x="395" y="760" on="1"/>
        <pt x="317" y="770" on="1"/>
        <pt x="215" y="770" on="0"/>
        <pt x="172" y="745" on="1"/>
        <pt x="172" y="626" on="0"/>
        <pt x="207" y="156" on="0"/>
        <pt x="207" y="37" on="1"/>
        <pt x="207" y="6" on="0"/>
        <pt x="186" y="6" on="1"/>
        <pt x="160" y="6" on="0"/>
        <pt x="145" y="53" on="0"/>
        <pt x="137" y="288" on="0"/>
        <pt x="134" y="560" on="0"/>
        <pt x="131" y="598" on="1"/>
        <pt x="94" y="1098" on="0"/>
        <pt x="94" y="1532" on="1"/>
        <pt x="127" y="1548" on="1"/>
        <pt x="154" y="1526" on="1"/>
        <pt x="145" y="1450" on="0"/>
        <pt x="145" y="1374" on="1"/>
        <pt x="162" y="958" on="1"/>
        <pt x="160" y="877" on="1"/>
        <pt x="160" y="836" on="0"/>
        <pt x="168" y="805" on="1"/>
        <pt x="408" y="821" on="1"/>
      </contour>
    </TTGlyph>
    <TTGlyph name="Hbar" xMin="53" yMin="-33" xMax="492" yMax="1548">
      <contour>
        <pt x="53" y="1241" on="1"/>
        <pt x="53" y="1251" on="0"/>
        <pt x="451" y="1251" on="1"/>
        <pt x="462" y="1251" on="0"/>
        <pt x="481" y="1228" on="0"/>
        <pt x="481" y="1212" on="1"/>
        <pt x="492" y="1214" on="0"/>
        <pt x="166" y="1207" on="1"/>
        <pt x="123" y="1207" on="1"/>
        <pt x="122" y="1206" on="1"/>
        <pt x="96" y="1206" on="1"/>
        <pt x="81" y="1206" on="0"/>
        <pt x="53" y="1225" on="0"/>
      </contour>
      <contour>
        <pt x="410" y="825" on="1"/>
        <pt x="391" y="1520" on="1"/>
        <pt x="391" y="1528" on="0"/>
        <pt x="395" y="1548" on="1"/>
        <pt x="434" y="1548" on="0"/>
        <pt x="444" y="1494" on="1"/>
        <pt x="453" y="1447" on="0"/>
        <pt x="453" y="1017" on="0"/>
        <pt x="483" y="122" on="0"/>
        <pt x="483" y="49" on="1"/>
        <pt x="492" y="31" on="0"/>
        <pt x="492" y="6" on="0"/>
        <pt x="469" y="-33" on="0"/>
        <pt x="455" y="-33" on="1"/>
        <pt x="426" y="-33" on="0"/>
        <pt x="426" y="12" on="1"/>
        <pt x="428" y="59" on="1"/>
        <pt x="428" y="374" on="0"/>
        <pt x="408" y="762" on="1"/>
        <pt x="395" y="760" on="1"/>
        <pt x="317" y="770" on="1"/>
        <pt x="215" y="770" on="0"/>
        <pt x="172" y="745" on="1"/>
        <pt x="172" y="626" on="0"/>
        <pt x="207" y="156" on="0"/>
        <pt x="207" y="37" on="1"/>
        <pt x="207" y="6" on="0"/>
        <pt x="186" y="6" on="1"/>
        <pt x="160" y="6" on="0"/>
        <pt x="145" y="53" on="0"/>
        <pt x="137" y="288" on="0"/>
        <pt x="134" y="560" on="0"/>
        <pt x="131" y="598" on="1"/>
        <pt x="94" y="1098" on="0"/>
        <pt x="94" y="1532" on="1"/>
        <pt x="127" y="1548" on="1"/>
        <pt x="154" y="1526" on="1"/>
        <pt x="145" y="1450" on="0"/>
        <pt x="145" y="1374" on="1"/>
        <pt x="162" y="958" on="1"/>
        <pt x="160" y="877" on="1"/>
        <pt x="160" y="836" on="0"/>
        <pt x="168" y="805" on="1"/>
        <pt x="408" y="821" on="1"/>
      </contour>
    </TTGlyph>
    <TTGlyph name="Hcircumflex" xMin="94" yMin="-33" xMax="492" yMax="2056">
      <component glyphName="circumflex" x="26" y="723" flags="0x1004"/>
      <component glyphName="H" x="0" y="0" flags="0x1204"/>
    </TTGlyph>
    <TTGlyph name="I" xMin="76" yMin="-6" xMax="395" yMax="1552">
      <contour>
        <pt x="360" y="8" on="1"/>
        <pt x="295" y="18" on="1"/>
        <pt x="272" y="18" on="0"/>
        <pt x="248" y="-6" on="1"/>
        <pt x="202" y="-6" on="0"/>
        <pt x="190" y="10" on="1"/>
        <pt x="185" y="10" on="1"/>
        <pt x="91" y="10" on="0"/>
        <pt x="76" y="45" on="1"/>
        <pt x="76" y="68" on="0"/>
        <pt x="123" y="68" on="1"/>
        <pt x="168" y="66" on="1"/>
        <pt x="209" y="66" on="0"/>
        <pt x="211" y="184" on="0"/>
        <pt x="198" y="354" on="0"/>
        <pt x="195" y="522" on="0"/>
        <pt x="175" y="1008" on="0"/>
        <pt x="172" y="1114" on="1"/>
        <pt x="174" y="1354" on="1"/>
        <pt x="174" y="1453" on="0"/>
        <pt x="168" y="1473" on="1"/>
        <pt x="98" y="1458" on="1"/>
        <pt x="76" y="1458" on="0"/>
        <pt x="76" y="1515" on="0"/>
        <pt x="256" y="1552" on="0"/>
        <pt x="288" y="1552" on="1"/>
        <pt x="342" y="1552" on="0"/>
        <pt x="342" y="1485" on="0"/>
        <pt x="317" y="1485" on="1"/>
        <pt x="268" y="1487" on="1"/>
        <pt x="233" y="1487" on="0"/>
        <pt x="226" y="1454" on="1"/>
        <pt x="219" y="1427" on="0"/>
        <pt x="219" y="1163" on="0"/>
        <pt x="270" y="381" on="0"/>
        <pt x="270" y="184" on="1"/>
        <pt x="268" y="78" on="1"/>
        <pt x="342" y="84" on="1"/>
        <pt x="395" y="84" on="0"/>
        <pt x="395" y="33" on="1"/>
      </contour>
    </TTGlyph>
    <TTGlyph name="IJ" xMin="76" yMin="-199" xMax="864" yMax="1552">
      <component glyphName="J" x="477" y="0" flags="0x1004"/>
      <component glyphName="I" x="0" y="0" flags="0x1004"/>
    </TTGlyph>
    <TTGlyph name="Iacute" xMin="76" yMin="-6" xMax="438" yMax="1913">
      <component glyphName="acute" x="41" y="365" flags="0x1004"/>
      <component glyphName="I" x="0" y="0" flags="0x1204"/>
    </TTGlyph>
    <TTGlyph name="Ibreve" xMin="17" yMin="-6" xMax="395" yMax="1900">
      <component glyphName="breve" x="-92" y="782" flags="0x1004"/>
      <component glyphName="I" x="0" y="0" flags="0x1204"/>
    </TTGlyph>
    <TTGlyph name="Icircumflex" xMin="34" yMin="-6" xMax="395" yMax="2056">
      <component glyphName="circumflex" x="-64" y="723" flags="0x1004"/>
      <component glyphName="I" x="0" y="0" flags="0x1204"/>
    </TTGlyph>
    <TTGlyph name="Idieresis" xMin="-103" yMin="-6" xMax="452" yMax="1777">
      <component glyphName="dieresis" x="-214" y="702" flags="0x1004"/>
      <component glyphName="I" x="0" y="0" flags="0x1204"/>
    </TTGlyph>
    <TTGlyph name="Idotaccent" xMin="76" yMin="-6" xMax="395" yMax="1777">
      <component glyphName="uni0307" x="10" y="520" flags="0x1004"/>
      <component glyphName="I" x="0" y="0" flags="0x1204"/>
    </TTGlyph>
    <TTGlyph name="Igrave" xMin="-9" yMin="-6" xMax="395" yMax="1829">
      <component glyphName="grave" x="-113" y="125" flags="0x1004"/>
      <component glyphName="I" x="0" y="0" flags="0x1204"/>
    </TTGlyph>
    <TTGlyph name="Imacron" xMin="-22" yMin="-6" xMax="395" yMax="1723">
      <component glyphName="macron" x="-135" y="971" flags="0x1004"/>
      <component glyphName="I" x="0" y="0" flags="0x1204"/>
    </TTGlyph>
    <TTGlyph name="Iogonek" xMin="76" yMin="-461" xMax="395" yMax="1552">
      <component glyphName="ogonek" x="-29" y="18" flags="0x1004"/>
      <component glyphName="I" x="0" y="0" flags="0x1204"/>
    </TTGlyph>
    <TTGlyph name="Itilde" xMin="-42" yMin="-6" xMax="395" yMax="1853">
      <component glyphName="tilde" x="-153" y="653" flags="0x1004"/>
      <component glyphName="I" x="0" y="0" flags="0x1204"/>
    </TTGlyph>
    <TTGlyph name="J" xMin="72" yMin="-199" xMax="387" yMax="1552">
      <contour>
        <pt x="330" y="305" on="1"/>
        <pt x="319" y="137" on="1"/>
        <pt x="319" y="114" on="0"/>
        <pt x="326" y="100" on="1"/>
        <pt x="311" y="68" on="1"/>
        <pt x="307" y="-5" on="0"/>
        <pt x="205" y="-155" on="0"/>
        <pt x="145" y="-199" on="1"/>
        <pt x="102" y="-199" on="0"/>
        <pt x="102" y="-160" on="1"/>
        <pt x="104" y="-141" on="0"/>
        <pt x="170" y="-98" on="0"/>
        <pt x="176" y="-92" on="1"/>
        <pt x="266" y="-2" on="0"/>
        <pt x="266" y="221" on="1"/>
        <pt x="266" y="327" on="0"/>
        <pt x="246" y="721" on="0"/>
        <pt x="242" y="871" on="1"/>
        <pt x="231" y="1369" on="0"/>
        <pt x="209" y="1489" on="1"/>
        <pt x="100" y="1470" on="1"/>
        <pt x="88" y="1470" on="0"/>
        <pt x="72" y="1489" on="0"/>
        <pt x="72" y="1501" on="1"/>
        <pt x="72" y="1552" on="0"/>
        <pt x="354" y="1552" on="1"/>
        <pt x="368" y="1552" on="0"/>
        <pt x="387" y="1533" on="0"/>
        <pt x="387" y="1520" on="1"/>
        <pt x="387" y="1489" on="0"/>
        <pt x="292" y="1489" on="1"/>
        <pt x="270" y="1489" on="1"/>
        <pt x="268" y="1450" on="1"/>
        <pt x="268" y="1396" on="0"/>
        <pt x="293" y="1180" on="0"/>
        <pt x="293" y="987" on="0"/>
        <pt x="330" y="443" on="0"/>
      </contour>
      <contour>
        <pt x="209" y="-25" on="1"/>
        <pt x="211" y="-25" on="0"/>
        <pt x="211" y="-27" on="1"/>
      </contour>
    </TTGlyph>
    <TTGlyph name="Jcircumflex" xMin="66" yMin="-199" xMax="387" yMax="2056">
      <component glyphName="circumflex" x="-32" y="723" flags="0x1004"/>
      <component glyphName="J" x="0" y="0" flags="0x1204"/>
    </TTGlyph>
    <TTGlyph name="K" xMin="102" yMin="-47" xMax="606" yMax="1597">
      <contour>
        <pt x="565" y="-47" on="1"/>
        <pt x="537" y="-39" on="1"/>
        <pt x="497" y="198" on="0"/>
        <pt x="333" y="781" on="0"/>
        <pt x="266" y="909" on="1"/>
        <pt x="260" y="905" on="1"/>
        <pt x="254" y="881" on="0"/>
        <pt x="180" y="755" on="0"/>
        <pt x="172" y="682" on="0"/>
        <pt x="172" y="575" on="1"/>
        <pt x="182" y="123" on="1"/>
        <pt x="182" y="-6" on="0"/>
        <pt x="139" y="-6" on="1"/>
        <pt x="102" y="-6" on="0"/>
        <pt x="102" y="183" on="0"/>
        <pt x="129" y="562" on="0"/>
        <pt x="129" y="657" on="1"/>
        <pt x="129" y="657" on="0"/>
        <pt x="121" y="1393" on="1"/>
        <pt x="117" y="1401" on="1"/>
        <pt x="102" y="1497" on="1"/>
        <pt x="102" y="1540" on="0"/>
        <pt x="137" y="1540" on="1"/>
        <pt x="155" y="1540" on="0"/>
        <pt x="170" y="1532" on="0"/>
        <pt x="176" y="1508" on="1"/>
        <pt x="186" y="1472" on="0"/>
        <pt x="186" y="1303" on="1"/>
        <pt x="178" y="864" on="1"/>
        <pt x="180" y="864" on="1"/>
        <pt x="221" y="951" on="0"/>
        <pt x="358" y="1292" on="0"/>
        <pt x="367" y="1313" on="1"/>
        <pt x="478" y="1597" on="0"/>
        <pt x="512" y="1597" on="1"/>
        <pt x="547" y="1597" on="0"/>
        <pt x="547" y="1567" on="1"/>
        <pt x="542" y="1530" on="0"/>
        <pt x="500" y="1462" on="0"/>
        <pt x="490" y="1440" on="0"/>
        <pt x="432" y="1317" on="0"/>
        <pt x="390" y="1226" on="0"/>
        <pt x="364" y="1165" on="1"/>
        <pt x="307" y="1034" on="0"/>
        <pt x="303" y="993" on="1"/>
        <pt x="313" y="975" on="1"/>
        <pt x="305" y="969" on="1"/>
        <pt x="375" y="793" on="0"/>
        <pt x="558" y="129" on="0"/>
        <pt x="606" y="-8" on="1"/>
        <pt x="603" y="-47" on="0"/>
      </contour>
    </TTGlyph>
    <TTGlyph name="Kcommaaccent" xMin="102" yMin="-487" xMax="606" yMax="1597">
      <component glyphName="uni0326" x="223" y="-47" flags="0x1004"/>
      <component glyphName="K" x="0" y="0" flags="0x1204"/>
    </TTGlyph>
    <TTGlyph name="L" xMin="98" yMin="-23" xMax="393" yMax="1571">
      <contour>
        <pt x="293" y="0" on="1"/>
        <pt x="229" y="2" on="1"/>
        <pt x="218" y="2" on="0"/>
        <pt x="184" y="-23" on="0"/>
        <pt x="156" y="-23" on="0"/>
        <pt x="127" y="3" on="0"/>
        <pt x="127" y="20" on="1"/>
        <pt x="139" y="113" on="1"/>
        <pt x="119" y="694" on="1"/>
        <pt x="98" y="1550" on="1"/>
        <pt x="98" y="1571" on="0"/>
        <pt x="125" y="1571" on="1"/>
        <pt x="164" y="1571" on="0"/>
        <pt x="164" y="1534" on="1"/>
        <pt x="164" y="1061" on="0"/>
        <pt x="184" y="808" on="0"/>
        <pt x="184" y="748" on="0"/>
        <pt x="180" y="698" on="1"/>
        <pt x="186" y="690" on="1"/>
        <pt x="182" y="636" on="0"/>
        <pt x="182" y="525" on="0"/>
        <pt x="203" y="211" on="0"/>
        <pt x="205" y="145" on="1"/>
        <pt x="197" y="133" on="0"/>
        <pt x="197" y="75" on="0"/>
        <pt x="216" y="55" on="0"/>
        <pt x="278" y="55" on="0"/>
        <pt x="289" y="68" on="1"/>
        <pt x="365" y="68" on="1"/>
        <pt x="393" y="54" on="0"/>
        <pt x="393" y="36" on="1"/>
        <pt x="393" y="-4" on="0"/>
        <pt x="365" y="-4" on="1"/>
        <pt x="358" y="-4" on="0"/>
        <pt x="334" y="4" on="1"/>
        <pt x="324" y="0" on="0"/>
      </contour>
    </TTGlyph>
    <TTGlyph name="Lacute" xMin="98" yMin="-23" xMax="460" yMax="1913">
      <component glyphName="acute" x="63" y="365" flags="0x1004"/>
      <component glyphName="L" x="0" y="0" flags="0x1204"/>
    </TTGlyph>
    <TTGlyph name="Lcaron" xMin="98" yMin="-23" xMax="698" yMax="1571">
      <component glyphName="comma" x="401" y="1411" flags="0x1004"/>
      <component glyphName="L" x="0" y="0" flags="0x1004"/>
    </TTGlyph>
    <TTGlyph name="Lcommaaccent" xMin="98" yMin="-463" xMax="393" yMax="1571">
      <component glyphName="uni0326" x="127" y="-23" flags="0x1004"/>
      <component glyphName="L" x="0" y="0" flags="0x1204"/>
    </TTGlyph>
    <TTGlyph name="Ldot" xMin="98" yMin="-23" xMax="393" yMax="1571">
      <component glyphName="periodcentered" x="68" y="26" flags="0x1004"/>
      <component glyphName="L" x="0" y="0" flags="0x1204"/>
    </TTGlyph>
    <TTGlyph name="Lslash" xMin="41" yMin="-23" xMax="436" yMax="1571">
      <contour>
        <pt x="293" y="0" on="1"/>
        <pt x="229" y="2" on="1"/>
        <pt x="218" y="2" on="0"/>
        <pt x="184" y="-23" on="0"/>
        <pt x="156" y="-23" on="0"/>
        <pt x="127" y="3" on="0"/>
        <pt x="127" y="20" on="1"/>
        <pt x="139" y="113" on="1"/>
        <pt x="119" y="694" on="1"/>
        <pt x="98" y="1550" on="1"/>
        <pt x="98" y="1571" on="0"/>
        <pt x="125" y="1571" on="1"/>
        <pt x="164" y="1571" on="0"/>
        <pt x="164" y="1534" on="1"/>
        <pt x="164" y="1061" on="0"/>
        <pt x="184" y="808" on="0"/>
        <pt x="184" y="748" on="0"/>
        <pt x="180" y="698" on="1"/>
        <pt x="186" y="690" on="1"/>
        <pt x="182" y="636" on="0"/>
        <pt x="182" y="525" on="0"/>
        <pt x="203" y="211" on="0"/>
        <pt x="205" y="145" on="1"/>
        <pt x="197" y="133" on="0"/>
        <pt x="197" y="75" on="0"/>
        <pt x="216" y="55" on="0"/>
        <pt x="278" y="55" on="0"/>
        <pt x="289" y="68" on="1"/>
        <pt x="365" y="68" on="1"/>
        <pt x="393" y="54" on="0"/>
        <pt x="393" y="36" on="1"/>
        <pt x="393" y="-4" on="0"/>
        <pt x="365" y="-4" on="1"/>
        <pt x="358" y="-4" on="0"/>
        <pt x="334" y="4" on="1"/>
        <pt x="324" y="0" on="0"/>
      </contour>
      <contour>
        <pt x="436" y="739" on="1"/>
        <pt x="436" y="718" on="0"/>
        <pt x="169" y="680" on="0"/>
        <pt x="69" y="680" on="0"/>
        <pt x="41" y="699" on="0"/>
        <pt x="41" y="715" on="1"/>
        <pt x="41" y="736" on="0"/>
        <pt x="311" y="774" on="0"/>
        <pt x="358" y="774" on="1"/>
        <pt x="436" y="774" on="0"/>
      </contour>
    </TTGlyph>
    <TTGlyph name="M" xMin="106" yMin="-55" xMax="743" yMax="1587">
      <contour>
        <pt x="633" y="1554" on="1"/>
        <pt x="639" y="1587" on="0"/>
        <pt x="682" y="1587" on="1"/>
        <pt x="689" y="1587" on="0"/>
        <pt x="707" y="1567" on="0"/>
        <pt x="707" y="1559" on="1"/>
        <pt x="700" y="1422" on="0"/>
        <pt x="700" y="1170" on="0"/>
        <pt x="733" y="552" on="0"/>
        <pt x="733" y="340" on="0"/>
        <pt x="729" y="289" on="0"/>
        <pt x="743" y="159" on="0"/>
        <pt x="743" y="-39" on="0"/>
        <pt x="713" y="-53" on="1"/>
        <pt x="713" y="-47" on="1"/>
        <pt x="705" y="-55" on="1"/>
        <pt x="666" y="-39" on="1"/>
        <pt x="666" y="-33" on="1"/>
        <pt x="666" y="-20" on="0"/>
        <pt x="672" y="-8" on="1"/>
        <pt x="664" y="10" on="1"/>
        <pt x="668" y="132" on="0"/>
        <pt x="668" y="197" on="1"/>
        <pt x="653" y="870" on="1"/>
        <pt x="657" y="1100" on="1"/>
        <pt x="657" y="1135" on="0"/>
        <pt x="650" y="1261" on="0"/>
        <pt x="649" y="1282" on="1"/>
        <pt x="645" y="1278" on="0"/>
        <pt x="645" y="1268" on="1"/>
        <pt x="639" y="1135" on="0"/>
        <pt x="587" y="864" on="1"/>
        <pt x="554" y="655" on="0"/>
        <pt x="502" y="483" on="1"/>
        <pt x="499" y="472" on="0"/>
        <pt x="491" y="453" on="1"/>
        <pt x="473" y="410" on="0"/>
        <pt x="473" y="387" on="1"/>
        <pt x="479" y="377" on="1"/>
        <pt x="477" y="370" on="0"/>
        <pt x="470" y="324" on="1"/>
        <pt x="454" y="223" on="0"/>
        <pt x="414" y="223" on="1"/>
        <pt x="369" y="223" on="0"/>
        <pt x="366" y="382" on="1"/>
        <pt x="366" y="408" on="0"/>
        <pt x="355" y="491" on="0"/>
        <pt x="184" y="1300" on="0"/>
        <pt x="172" y="1317" on="1"/>
        <pt x="164" y="1132" on="0"/>
        <pt x="164" y="903" on="1"/>
        <pt x="170" y="252" on="1"/>
        <pt x="180" y="57" on="1"/>
        <pt x="180" y="20" on="0"/>
        <pt x="164" y="4" on="1"/>
        <pt x="106" y="4" on="0"/>
        <pt x="106" y="111" on="1"/>
        <pt x="117" y="453" on="1"/>
        <pt x="109" y="868" on="1"/>
        <pt x="115" y="1354" on="1"/>
        <pt x="115" y="1471" on="0"/>
        <pt x="113" y="1530" on="1"/>
        <pt x="152" y="1552" on="1"/>
        <pt x="200" y="1546" on="0"/>
        <pt x="332" y="897" on="1"/>
        <pt x="359" y="761" on="0"/>
        <pt x="389" y="631" on="0"/>
        <pt x="401" y="576" on="0"/>
        <pt x="408" y="538" on="1"/>
        <pt x="424" y="461" on="0"/>
        <pt x="424" y="426" on="1"/>
        <pt x="436" y="457" on="0"/>
        <pt x="463" y="595" on="1"/>
        <pt x="492" y="739" on="1"/>
        <pt x="504" y="797" on="0"/>
        <pt x="591" y="1270" on="0"/>
        <pt x="605" y="1335" on="1"/>
        <pt x="634" y="1468" on="0"/>
        <pt x="637" y="1544" on="1"/>
      </contour>
      <contour>
        <pt x="250" y="1010" on="1"/>
        <pt x="252" y="1010" on="1"/>
      </contour>
    </TTGlyph>
    <TTGlyph name="N" xMin="104" yMin="-23" xMax="662" yMax="1595">
      <contour>
        <pt x="621" y="111" on="1"/>
        <pt x="627" y="37" on="1"/>
        <pt x="627" y="-23" on="0"/>
        <pt x="575" y="-23" on="1"/>
        <pt x="539" y="-23" on="0"/>
        <pt x="526" y="54" on="1"/>
        <pt x="519" y="90" on="0"/>
        <pt x="518" y="94" on="1"/>
        <pt x="318" y="725" on="0"/>
        <pt x="266" y="1016" on="1"/>
        <pt x="264" y="1025" on="0"/>
        <pt x="263" y="1044" on="1"/>
        <pt x="261" y="1085" on="0"/>
        <pt x="244" y="1102" on="1"/>
        <pt x="248" y="1112" on="1"/>
        <pt x="235" y="1188" on="0"/>
        <pt x="222" y="1247" on="0"/>
        <pt x="214" y="1284" on="1"/>
        <pt x="200" y="1349" on="0"/>
        <pt x="178" y="1401" on="1"/>
        <pt x="172" y="1359" on="0"/>
        <pt x="172" y="1315" on="0"/>
        <pt x="176" y="1303" on="1"/>
        <pt x="162" y="1255" on="0"/>
        <pt x="162" y="1161" on="1"/>
        <pt x="162" y="600" on="1"/>
        <pt x="162" y="502" on="0"/>
        <pt x="190" y="114" on="0"/>
        <pt x="190" y="16" on="1"/>
        <pt x="176" y="0" on="1"/>
        <pt x="129" y="0" on="1"/>
        <pt x="123" y="16" on="1"/>
        <pt x="127" y="32" on="0"/>
        <pt x="127" y="98" on="1"/>
        <pt x="104" y="811" on="1"/>
        <pt x="104" y="1079" on="1"/>
        <pt x="119" y="1466" on="1"/>
        <pt x="117" y="1509" on="1"/>
        <pt x="117" y="1535" on="0"/>
        <pt x="144" y="1552" on="0"/>
        <pt x="187" y="1552" on="0"/>
        <pt x="219" y="1527" on="0"/>
        <pt x="219" y="1473" on="0"/>
        <pt x="237" y="1409" on="0"/>
        <pt x="271" y="1330" on="0"/>
        <pt x="290" y="1265" on="0"/>
        <pt x="306" y="1122" on="0"/>
        <pt x="328" y="1012" on="0"/>
        <pt x="378" y="826" on="0"/>
        <pt x="443" y="600" on="0"/>
        <pt x="461" y="529" on="0"/>
        <pt x="476" y="474" on="1"/>
        <pt x="508" y="360" on="0"/>
        <pt x="510" y="313" on="1"/>
        <pt x="524" y="292" on="0"/>
        <pt x="539" y="172" on="0"/>
        <pt x="565" y="150" on="1"/>
        <pt x="578" y="179" on="0"/>
        <pt x="578" y="248" on="1"/>
        <pt x="586" y="961" on="1"/>
        <pt x="580" y="1278" on="1"/>
        <pt x="586" y="1356" on="1"/>
        <pt x="586" y="1378" on="0"/>
        <pt x="580" y="1382" on="1"/>
        <pt x="586" y="1399" on="1"/>
        <pt x="586" y="1525" on="0"/>
        <pt x="578" y="1567" on="1"/>
        <pt x="586" y="1595" on="0"/>
        <pt x="629" y="1595" on="1"/>
        <pt x="662" y="1595" on="0"/>
        <pt x="662" y="1528" on="1"/>
        <pt x="649" y="1502" on="0"/>
        <pt x="649" y="1460" on="1"/>
        <pt x="651" y="1391" on="1"/>
        <pt x="651" y="1347" on="0"/>
        <pt x="643" y="1329" on="1"/>
        <pt x="637" y="682" on="1"/>
        <pt x="637" y="663" on="0"/>
        <pt x="641" y="627" on="1"/>
        <pt x="637" y="618" on="1"/>
        <pt x="637" y="360" on="1"/>
        <pt x="641" y="283" on="1"/>
        <pt x="641" y="161" on="0"/>
        <pt x="621" y="115" on="1"/>
      </contour>
    </TTGlyph>
    <TTGlyph name="Nacute" xMin="104" yMin="-23" xMax="662" yMax="1937">
      <component glyphName="acute" x="222" y="389" flags="0x1004"/>
      <component glyphName="N" x="0" y="0" flags="0x1204"/>
    </TTGlyph>
    <TTGlyph name="Ncaron" xMin="104" yMin="-23" xMax="662" yMax="2081">
      <component glyphName="caron" x="112" y="748" flags="0x1004"/>
      <component glyphName="N" x="0" y="0" flags="0x1204"/>
    </TTGlyph>
    <TTGlyph name="Ncommaaccent" xMin="104" yMin="-463" xMax="662" yMax="1595">
      <component glyphName="uni0326" x="287" y="-23" flags="0x1004"/>
      <component glyphName="N" x="0" y="0" flags="0x1204"/>
    </TTGlyph>
    <TTGlyph name="Ntilde" xMin="104" yMin="-23" xMax="662" yMax="1878">
      <component glyphName="tilde" x="28" y="678" flags="0x1004"/>
      <component glyphName="N" x="0" y="0" flags="0x1204"/>
    </TTGlyph>
    <TTGlyph name="O" xMin="94" yMin="-43" xMax="586" yMax="1571">
      <contour>
        <pt x="586" y="618" on="1"/>
        <pt x="567" y="354" on="1"/>
        <pt x="571" y="346" on="1"/>
        <pt x="555" y="277" on="0"/>
        <pt x="555" y="167" on="0"/>
        <pt x="511" y="50" on="0"/>
        <pt x="424" y="-43" on="0"/>
        <pt x="324" y="-43" on="0"/>
        <pt x="238" y="33" on="0"/>
        <pt x="181" y="152" on="0"/>
        <pt x="138" y="315" on="0"/>
        <pt x="114" y="472" on="0"/>
        <pt x="106" y="556" on="1"/>
        <pt x="94" y="696" on="0"/>
        <pt x="94" y="901" on="0"/>
        <pt x="112" y="1163" on="0"/>
        <pt x="114" y="1239" on="0"/>
        <pt x="116" y="1297" on="0"/>
        <pt x="124" y="1378" on="0"/>
        <pt x="137" y="1439" on="0"/>
        <pt x="163" y="1503" on="0"/>
        <pt x="182" y="1524" on="1"/>
        <pt x="224" y="1571" on="0"/>
        <pt x="375" y="1571" on="0"/>
        <pt x="424" y="1530" on="1"/>
        <pt x="431" y="1519" on="0"/>
        <pt x="490" y="1443" on="0"/>
        <pt x="519" y="1374" on="0"/>
        <pt x="537" y="1239" on="1"/>
        <pt x="586" y="889" on="0"/>
      </contour>
      <contour>
        <pt x="303" y="1518" on="1"/>
        <pt x="152" y="1518" on="0"/>
        <pt x="152" y="911" on="1"/>
        <pt x="152" y="831" on="1"/>
        <pt x="152" y="689" on="0"/>
        <pt x="195" y="362" on="0"/>
        <pt x="242" y="158" on="0"/>
        <pt x="327" y="14" on="0"/>
        <pt x="379" y="14" on="1"/>
        <pt x="449" y="14" on="0"/>
        <pt x="513" y="299" on="0"/>
        <pt x="519" y="410" on="1"/>
        <pt x="526" y="562" on="0"/>
        <pt x="526" y="608" on="1"/>
        <pt x="526" y="657" on="1"/>
        <pt x="526" y="695" on="0"/>
        <pt x="525" y="748" on="0"/>
        <pt x="523" y="869" on="0"/>
        <pt x="517" y="963" on="0"/>
        <pt x="507" y="1097" on="0"/>
        <pt x="489" y="1202" on="0"/>
        <pt x="466" y="1321" on="0"/>
        <pt x="433" y="1407" on="0"/>
        <pt x="412" y="1444" on="1"/>
        <pt x="369" y="1518" on="0"/>
      </contour>
    </TTGlyph>
    <TTGlyph name="OE" xMin="94" yMin="-20" xMax="1085" yMax="1552">
      <contour>
        <pt x="1073" y="-14" on="1"/>
        <pt x="762" y="-20" on="1"/>
        <pt x="716" y="-20" on="0"/>
        <pt x="713" y="10" on="1"/>
        <pt x="725" y="43" on="1"/>
        <pt x="704" y="40" on="0"/>
        <pt x="607" y="10" on="0"/>
        <pt x="580" y="10" on="1"/>
        <pt x="349" y="10" on="0"/>
        <pt x="224" y="167" on="1"/>
        <pt x="104" y="316" on="0"/>
        <pt x="104" y="545" on="1"/>
        <pt x="94" y="965" on="1"/>
        <pt x="94" y="1259" on="0"/>
        <pt x="204" y="1440" on="1"/>
        <pt x="273" y="1552" on="0"/>
        <pt x="391" y="1552" on="1"/>
        <pt x="614" y="1552" on="0"/>
        <pt x="686" y="1473" on="1"/>
        <pt x="680" y="1495" on="1"/>
        <pt x="711" y="1538" on="1"/>
        <pt x="791" y="1526" on="1"/>
        <pt x="942" y="1526" on="1"/>
        <pt x="987" y="1530" on="1"/>
        <pt x="1018" y="1509" on="0"/>
        <pt x="1018" y="1493" on="1"/>
        <pt x="1018" y="1470" on="0"/>
        <pt x="981" y="1470" on="1"/>
        <pt x="739" y="1479" on="1"/>
        <pt x="739" y="1403" on="0"/>
        <pt x="768" y="1100" on="0"/>
        <pt x="768" y="1024" on="1"/>
        <pt x="764" y="918" on="1"/>
        <pt x="764" y="868" on="0"/>
        <pt x="774" y="834" on="1"/>
        <pt x="854" y="831" on="1"/>
        <pt x="907" y="836" on="1"/>
        <pt x="937" y="836" on="0"/>
        <pt x="956" y="811" on="1"/>
        <pt x="956" y="792" on="0"/>
        <pt x="943" y="778" on="0"/>
        <pt x="924" y="778" on="1"/>
        <pt x="831" y="784" on="1"/>
        <pt x="772" y="784" on="0"/>
        <pt x="772" y="766" on="1"/>
        <pt x="786" y="35" on="1"/>
        <pt x="930" y="43" on="0"/>
        <pt x="944" y="43" on="1"/>
        <pt x="1085" y="43" on="0"/>
        <pt x="1085" y="4" on="1"/>
      </contour>
      <contour>
        <pt x="143" y="967" on="1"/>
        <pt x="145" y="821" on="1"/>
        <pt x="145" y="773" on="0"/>
        <pt x="143" y="748" on="1"/>
        <pt x="147" y="741" on="1"/>
        <pt x="147" y="639" on="0"/>
        <pt x="165" y="492" on="1"/>
        <pt x="200" y="207" on="0"/>
        <pt x="268" y="197" on="1"/>
        <pt x="383" y="72" on="0"/>
        <pt x="530" y="72" on="1"/>
        <pt x="660" y="72" on="0"/>
        <pt x="710" y="110" on="1"/>
        <pt x="733" y="128" on="0"/>
        <pt x="733" y="154" on="1"/>
        <pt x="733" y="321" on="0"/>
        <pt x="705" y="986" on="0"/>
        <pt x="705" y="1153" on="1"/>
        <pt x="692" y="1401" on="1"/>
        <pt x="620" y="1497" on="0"/>
        <pt x="426" y="1497" on="1"/>
        <pt x="303" y="1497" on="0"/>
        <pt x="240" y="1400" on="1"/>
        <pt x="179" y="1305" on="0"/>
        <pt x="164" y="1214" on="1"/>
        <pt x="143" y="1077" on="0"/>
      </contour>
    </TTGlyph>
    <TTGlyph name="Oacute" xMin="94" yMin="-43" xMax="586" yMax="1913">
      <component glyphName="acute" x="169" y="365" flags="0x1004"/>
      <component glyphName="O" x="0" y="0" flags="0x1204"/>
    </TTGlyph>
    <TTGlyph name="Obreve" xMin="94" yMin="-43" xMax="586" yMax="1900">
      <component glyphName="breve" x="36" y="782" flags="0x1004"/>
      <component glyphName="O" x="0" y="0" flags="0x1204"/>
    </TTGlyph>
    <TTGlyph name="Ocircumflex" xMin="94" yMin="-43" xMax="586" yMax="2056">
      <component glyphName="circumflex" x="64" y="723" flags="0x1004"/>
      <component glyphName="O" x="0" y="0" flags="0x1204"/>
    </TTGlyph>
    <TTGlyph name="Odieresis" xMin="25" yMin="-43" xMax="586" yMax="1777">
      <component glyphName="dieresis" x="-86" y="702" flags="0x1004"/>
      <component glyphName="O" x="0" y="0" flags="0x1204"/>
    </TTGlyph>
    <TTGlyph name="Ograve" xMin="-6" yMin="-43" xMax="586" yMax="1829">
      <component glyphName="grave" x="-110" y="125" flags="0x1004"/>
      <component glyphName="O" x="0" y="0" flags="0x1204"/>
    </TTGlyph>
    <TTGlyph name="Ohungarumlaut" xMin="94" yMin="-43" xMax="860" yMax="1966">
      <component glyphName="hungarumlaut" x="1" y="1634" flags="0x1004"/>
      <component glyphName="O" x="0" y="0" flags="0x1204"/>
    </TTGlyph>
    <TTGlyph name="Omacron" xMin="94" yMin="-43" xMax="586" yMax="1723">
      <component glyphName="macron" x="-7" y="971" flags="0x1004"/>
      <component glyphName="O" x="0" y="0" flags="0x1204"/>
    </TTGlyph>
    <TTGlyph name="Oslash" xMin="100" yMin="-264" xMax="492" yMax="1798">
      <contour>
        <pt x="485" y="831" on="1"/>
        <pt x="492" y="444" on="1"/>
        <pt x="492" y="302" on="0"/>
        <pt x="475" y="202" on="0"/>
        <pt x="457" y="118" on="0"/>
        <pt x="426" y="60" on="0"/>
        <pt x="406" y="34" on="1"/>
        <pt x="364" y="-20" on="0"/>
        <pt x="218" y="-20" on="0"/>
        <pt x="188" y="20" on="1"/>
        <pt x="186" y="20" on="1"/>
        <pt x="172" y="-68" on="0"/>
        <pt x="133" y="-264" on="1"/>
        <pt x="102" y="-240" on="1"/>
        <pt x="103" y="-205" on="0"/>
        <pt x="147" y="9" on="0"/>
        <pt x="162" y="111" on="1"/>
        <pt x="162" y="125" on="0"/>
        <pt x="145" y="174" on="0"/>
        <pt x="136" y="227" on="0"/>
        <pt x="125" y="321" on="0"/>
        <pt x="116" y="399" on="0"/>
        <pt x="110" y="508" on="0"/>
        <pt x="105" y="572" on="0"/>
        <pt x="102" y="696" on="0"/>
        <pt x="101" y="746" on="0"/>
        <pt x="100" y="884" on="0"/>
        <pt x="100" y="902" on="1"/>
        <pt x="100" y="1081" on="1"/>
        <pt x="100" y="1569" on="0"/>
        <pt x="250" y="1569" on="1"/>
        <pt x="260" y="1569" on="0"/>
        <pt x="302" y="1546" on="0"/>
        <pt x="309" y="1546" on="1"/>
        <pt x="317" y="1550" on="1"/>
        <pt x="328" y="1540" on="1"/>
        <pt x="341" y="1579" on="0"/>
        <pt x="381" y="1798" on="1"/>
        <pt x="418" y="1798" on="1"/>
        <pt x="416" y="1739" on="1"/>
        <pt x="373" y="1491" on="1"/>
        <pt x="373" y="1466" on="0"/>
        <pt x="403" y="1432" on="1"/>
        <pt x="401" y="1427" on="1"/>
        <pt x="405" y="1409" on="0"/>
        <pt x="417" y="1389" on="1"/>
        <pt x="455" y="1332" on="0"/>
        <pt x="455" y="1229" on="1"/>
        <pt x="451" y="1227" on="1"/>
        <pt x="451" y="1166" on="0"/>
        <pt x="481" y="912" on="0"/>
        <pt x="481" y="850" on="1"/>
        <pt x="481" y="838" on="1"/>
      </contour>
      <contour>
        <pt x="336" y="1214" on="0"/>
        <pt x="269" y="420" on="0"/>
        <pt x="215" y="138" on="0"/>
        <pt x="215" y="103" on="1"/>
        <pt x="215" y="23" on="0"/>
        <pt x="305" y="23" on="1"/>
        <pt x="438" y="23" on="0"/>
        <pt x="438" y="399" on="1"/>
        <pt x="438" y="1244" on="0"/>
        <pt x="365" y="1389" on="1"/>
      </contour>
      <contour>
        <pt x="317" y="1481" on="0"/>
        <pt x="277" y="1513" on="0"/>
        <pt x="243" y="1513" on="0"/>
        <pt x="219" y="1501" on="1"/>
        <pt x="207" y="1505" on="1"/>
        <pt x="143" y="1466" on="0"/>
        <pt x="143" y="852" on="1"/>
        <pt x="143" y="748" on="0"/>
        <pt x="162" y="705" on="1"/>
        <pt x="162" y="634" on="0"/>
        <pt x="186" y="346" on="0"/>
        <pt x="186" y="274" on="1"/>
        <pt x="200" y="293" on="0"/>
        <pt x="244" y="723" on="0"/>
        <pt x="256" y="848" on="1"/>
        <pt x="278" y="1058" on="0"/>
        <pt x="296" y="1252" on="0"/>
        <pt x="302" y="1298" on="1"/>
        <pt x="317" y="1402" on="0"/>
      </contour>
    </TTGlyph>
    <TTGlyph name="Otilde" xMin="86" yMin="-43" xMax="586" yMax="1853">
      <component glyphName="tilde" x="-25" y="653" flags="0x1004"/>
      <component glyphName="O" x="0" y="0" flags="0x1204"/>
    </TTGlyph>
    <TTGlyph name="P" xMin="90" yMin="-12" xMax="440" yMax="1565">
      <contour>
        <pt x="184" y="725" on="1"/>
        <pt x="201" y="51" on="1"/>
        <pt x="201" y="21" on="0"/>
        <pt x="184" y="-12" on="0"/>
        <pt x="131" y="-12" on="0"/>
        <pt x="131" y="59" on="1"/>
        <pt x="139" y="426" on="1"/>
        <pt x="123" y="758" on="1"/>
        <pt x="123" y="986" on="0"/>
        <pt x="112" y="1281" on="0"/>
        <pt x="109" y="1379" on="0"/>
        <pt x="108" y="1404" on="1"/>
        <pt x="103" y="1483" on="0"/>
        <pt x="90" y="1536" on="1"/>
        <pt x="109" y="1565" on="0"/>
        <pt x="143" y="1565" on="1"/>
        <pt x="216" y="1565" on="0"/>
        <pt x="333" y="1497" on="0"/>
        <pt x="368" y="1442" on="1"/>
        <pt x="440" y="1327" on="0"/>
        <pt x="440" y="1087" on="0"/>
        <pt x="397" y="963" on="1"/>
        <pt x="343" y="806" on="0"/>
        <pt x="259" y="771" on="1"/>
        <pt x="232" y="760" on="0"/>
        <pt x="222" y="748" on="1"/>
        <pt x="205" y="730" on="0"/>
      </contour>
      <contour>
        <pt x="156" y="1505" on="1"/>
        <pt x="180" y="805" on="1"/>
        <pt x="184" y="801" on="1"/>
        <pt x="205" y="803" on="0"/>
        <pt x="226" y="822" on="0"/>
        <pt x="246" y="844" on="0"/>
        <pt x="250" y="848" on="1"/>
        <pt x="383" y="981" on="0"/>
        <pt x="383" y="1182" on="1"/>
        <pt x="383" y="1252" on="0"/>
        <pt x="371" y="1336" on="0"/>
        <pt x="314" y="1413" on="0"/>
        <pt x="273" y="1447" on="0"/>
        <pt x="198" y="1502" on="0"/>
        <pt x="193" y="1505" on="1"/>
      </contour>
    </TTGlyph>
    <TTGlyph name="Q" xMin="96" yMin="-283" xMax="645" yMax="1577">
      <contour>
        <pt x="106" y="915" on="1"/>
        <pt x="104" y="1040" on="1"/>
        <pt x="104" y="1577" on="0"/>
        <pt x="307" y="1577" on="1"/>
        <pt x="379" y="1577" on="0"/>
        <pt x="520" y="1461" on="0"/>
        <pt x="532" y="1391" on="1"/>
        <pt x="588" y="1075" on="0"/>
        <pt x="588" y="594" on="1"/>
        <pt x="588" y="317" on="0"/>
        <pt x="549" y="201" on="1"/>
        <pt x="534" y="158" on="0"/>
        <pt x="461" y="53" on="1"/>
        <pt x="462" y="38" on="0"/>
        <pt x="479" y="-8" on="0"/>
        <pt x="485" y="-29" on="0"/>
        <pt x="493" y="-110" on="0"/>
        <pt x="502" y="-168" on="0"/>
        <pt x="540" y="-217" on="0"/>
        <pt x="573" y="-217" on="1"/>
        <pt x="645" y="-217" on="0"/>
        <pt x="645" y="-244" on="1"/>
        <pt x="645" y="-283" on="0"/>
        <pt x="567" y="-283" on="1"/>
        <pt x="559" y="-283" on="0"/>
        <pt x="510" y="-257" on="0"/>
        <pt x="506" y="-256" on="1"/>
        <pt x="467" y="-239" on="0"/>
        <pt x="428" y="-147" on="0"/>
        <pt x="404" y="5" on="0"/>
        <pt x="397" y="27" on="1"/>
        <pt x="303" y="27" on="1"/>
        <pt x="151" y="135" on="0"/>
        <pt x="115" y="328" on="1"/>
        <pt x="96" y="431" on="0"/>
        <pt x="96" y="573" on="1"/>
      </contour>
      <contour>
        <pt x="154" y="676" on="1"/>
        <pt x="154" y="590" on="1"/>
        <pt x="154" y="376" on="0"/>
        <pt x="215" y="220" on="1"/>
        <pt x="238" y="162" on="0"/>
        <pt x="320" y="80" on="0"/>
        <pt x="373" y="80" on="1"/>
        <pt x="387" y="90" on="1"/>
        <pt x="391" y="104" on="0"/>
        <pt x="431" y="106" on="0"/>
        <pt x="438" y="111" on="1"/>
        <pt x="503" y="168" on="0"/>
        <pt x="507" y="302" on="1"/>
        <pt x="508" y="333" on="0"/>
        <pt x="508" y="419" on="0"/>
        <pt x="511" y="457" on="0"/>
        <pt x="524" y="525" on="0"/>
        <pt x="524" y="543" on="1"/>
        <pt x="524" y="821" on="1"/>
        <pt x="516" y="841" on="0"/>
        <pt x="516" y="943" on="0"/>
        <pt x="509" y="1038" on="0"/>
        <pt x="492" y="1182" on="0"/>
        <pt x="487" y="1228" on="0"/>
        <pt x="483" y="1291" on="0"/>
        <pt x="479" y="1326" on="0"/>
        <pt x="471" y="1382" on="0"/>
        <pt x="459" y="1416" on="0"/>
        <pt x="440" y="1459" on="0"/>
        <pt x="413" y="1485" on="0"/>
        <pt x="394" y="1497" on="1"/>
        <pt x="359" y="1520" on="0"/>
        <pt x="293" y="1520" on="1"/>
        <pt x="154" y="1520" on="0"/>
      </contour>
    </TTGlyph>
    <TTGlyph name="R" xMin="106" yMin="-20" xMax="502" yMax="1556">
      <contour>
        <pt x="121" y="1501" on="1"/>
        <pt x="117" y="1538" on="1"/>
        <pt x="117" y="1556" on="0"/>
        <pt x="158" y="1556" on="1"/>
        <pt x="242" y="1556" on="0"/>
        <pt x="331" y="1462" on="0"/>
        <pt x="360" y="1354" on="0"/>
        <pt x="368" y="1326" on="1"/>
        <pt x="385" y="1265" on="0"/>
        <pt x="385" y="1231" on="1"/>
        <pt x="385" y="1128" on="0"/>
        <pt x="328" y="983" on="1"/>
        <pt x="291" y="891" on="0"/>
        <pt x="291" y="881" on="1"/>
        <pt x="291" y="781" on="0"/>
        <pt x="451" y="174" on="0"/>
        <pt x="502" y="47" on="1"/>
        <pt x="502" y="-20" on="0"/>
        <pt x="475" y="-20" on="1"/>
        <pt x="454" y="-20" on="0"/>
        <pt x="427" y="17" on="0"/>
        <pt x="424" y="20" on="1"/>
        <pt x="418" y="100" on="0"/>
        <pt x="325" y="385" on="0"/>
        <pt x="304" y="480" on="0"/>
        <pt x="250" y="772" on="0"/>
        <pt x="229" y="850" on="1"/>
        <pt x="213" y="862" on="1"/>
        <pt x="174" y="846" on="1"/>
        <pt x="174" y="78" on="1"/>
        <pt x="178" y="27" on="1"/>
        <pt x="178" y="-14" on="0"/>
        <pt x="141" y="-14" on="1"/>
        <pt x="126" y="-14" on="0"/>
        <pt x="106" y="5" on="0"/>
        <pt x="106" y="20" on="1"/>
        <pt x="113" y="31" on="1"/>
        <pt x="121" y="1274" on="1"/>
      </contour>
      <contour>
        <pt x="178" y="1491" on="1"/>
        <pt x="168" y="1044" on="1"/>
        <pt x="168" y="956" on="0"/>
        <pt x="174" y="913" on="1"/>
        <pt x="178" y="913" on="1"/>
        <pt x="193" y="913" on="0"/>
        <pt x="270" y="997" on="0"/>
        <pt x="299" y="1047" on="0"/>
        <pt x="317" y="1163" on="0"/>
        <pt x="317" y="1240" on="0"/>
        <pt x="306" y="1324" on="0"/>
        <pt x="282" y="1422" on="0"/>
        <pt x="230" y="1487" on="0"/>
        <pt x="195" y="1487" on="1"/>
        <pt x="195" y="1493" on="1"/>
      </contour>
    </TTGlyph>
    <TTGlyph name="Racute" xMin="106" yMin="-20" xMax="505" yMax="1913">
      <component glyphName="acute" x="108" y="365" flags="0x1004"/>
      <component glyphName="R" x="0" y="0" flags="0x1204"/>
    </TTGlyph>
    <TTGlyph name="Rcaron" xMin="90" yMin="-20" xMax="502" yMax="2056">
      <component glyphName="caron" x="-2" y="723" flags="0x1004"/>
      <component glyphName="R" x="0" y="0" flags="0x1204"/>
    </TTGlyph>
    <TTGlyph name="Rcommaaccent" xMin="106" yMin="-460" xMax="502" yMax="1556">
      <component glyphName="uni0326" x="172" y="-20" flags="0x1004"/>
      <component glyphName="R" x="0" y="0" flags="0x1204"/>
    </TTGlyph>
    <TTGlyph name="S" xMin="80" yMin="-45" xMax="471" yMax="1573">
      <contour>
        <pt x="395" y="692" on="1"/>
        <pt x="393" y="684" on="1"/>
        <pt x="393" y="683" on="0"/>
        <pt x="440" y="526" on="1"/>
        <pt x="471" y="404" on="0"/>
        <pt x="471" y="272" on="0"/>
        <pt x="440" y="146" on="0"/>
        <pt x="381" y="30" on="0"/>
        <pt x="278" y="-45" on="0"/>
        <pt x="183" y="-45" on="0"/>
        <pt x="163" y="-43" on="1"/>
        <pt x="104" y="-37" on="0"/>
        <pt x="80" y="6" on="1"/>
        <pt x="80" y="31" on="0"/>
        <pt x="123" y="31" on="0"/>
        <pt x="196" y="0" on="0"/>
        <pt x="262" y="0" on="0"/>
        <pt x="337" y="76" on="0"/>
        <pt x="357" y="132" on="1"/>
        <pt x="397" y="246" on="0"/>
        <pt x="397" y="445" on="0"/>
        <pt x="337" y="651" on="0"/>
        <pt x="250" y="821" on="0"/>
        <pt x="207" y="906" on="1"/>
        <pt x="104" y="1108" on="0"/>
        <pt x="104" y="1288" on="1"/>
        <pt x="104" y="1437" on="0"/>
        <pt x="194" y="1526" on="1"/>
        <pt x="243" y="1573" on="0"/>
        <pt x="309" y="1573" on="1"/>
        <pt x="330" y="1573" on="0"/>
        <pt x="396" y="1540" on="0"/>
        <pt x="403" y="1522" on="1"/>
        <pt x="391" y="1499" on="1"/>
        <pt x="345" y="1499" on="0"/>
        <pt x="324" y="1520" on="1"/>
        <pt x="275" y="1520" on="0"/>
        <pt x="240" y="1483" on="1"/>
        <pt x="174" y="1415" on="0"/>
        <pt x="174" y="1305" on="1"/>
        <pt x="174" y="1224" on="0"/>
        <pt x="200" y="1117" on="0"/>
        <pt x="214" y="1061" on="0"/>
        <pt x="250" y="975" on="0"/>
        <pt x="267" y="933" on="0"/>
        <pt x="316" y="837" on="0"/>
        <pt x="331" y="809" on="0"/>
        <pt x="390" y="702" on="0"/>
      </contour>
    </TTGlyph>
    <TTGlyph name="Sacute" xMin="80" yMin="-45" xMax="481" yMax="1915">
      <component glyphName="acute" x="84" y="367" flags="0x1004"/>
      <component glyphName="S" x="0" y="0" flags="0x1204"/>
    </TTGlyph>
    <TTGlyph name="Scaron" xMin="66" yMin="-45" xMax="471" yMax="2058">
      <component glyphName="caron" x="-26" y="725" flags="0x1004"/>
      <component glyphName="S" x="0" y="0" flags="0x1204"/>
    </TTGlyph>
    <TTGlyph name="Scedilla" xMin="80" yMin="-500" xMax="471" yMax="1573">
      <component glyphName="cedilla" x="114" y="-21" flags="0x1004"/>
      <component glyphName="S" x="0" y="0" flags="0x1204"/>
    </TTGlyph>
    <TTGlyph name="Scircumflex" xMin="77" yMin="-45" xMax="471" yMax="2058">
      <component glyphName="circumflex" x="-21" y="725" flags="0x1004"/>
      <component glyphName="S" x="0" y="0" flags="0x1204"/>
    </TTGlyph>
    <TTGlyph name="Scommaaccent" xMin="80" yMin="-440" xMax="471" yMax="1573">
      <contour>
        <pt x="395" y="692" on="1"/>
        <pt x="393" y="684" on="1"/>
        <pt x="393" y="683" on="0"/>
        <pt x="440" y="526" on="1"/>
        <pt x="471" y="404" on="0"/>
        <pt x="471" y="272" on="0"/>
        <pt x="440" y="146" on="0"/>
        <pt x="381" y="30" on="0"/>
        <pt x="278" y="-45" on="0"/>
        <pt x="183" y="-45" on="0"/>
        <pt x="163" y="-43" on="1"/>
        <pt x="104" y="-37" on="0"/>
        <pt x="80" y="6" on="1"/>
        <pt x="80" y="31" on="0"/>
        <pt x="123" y="31" on="0"/>
        <pt x="196" y="0" on="0"/>
        <pt x="262" y="0" on="0"/>
        <pt x="337" y="76" on="0"/>
        <pt x="357" y="132" on="1"/>
        <pt x="397" y="246" on="0"/>
        <pt x="397" y="445" on="0"/>
        <pt x="337" y="651" on="0"/>
        <pt x="250" y="821" on="0"/>
        <pt x="207" y="906" on="1"/>
        <pt x="104" y="1108" on="0"/>
        <pt x="104" y="1288" on="1"/>
        <pt x="104" y="1437" on="0"/>
        <pt x="194" y="1526" on="1"/>
        <pt x="243" y="1573" on="0"/>
        <pt x="309" y="1573" on="1"/>
        <pt x="330" y="1573" on="0"/>
        <pt x="396" y="1540" on="0"/>
        <pt x="403" y="1522" on="1"/>
        <pt x="391" y="1499" on="1"/>
        <pt x="345" y="1499" on="0"/>
        <pt x="324" y="1520" on="1"/>
        <pt x="275" y="1520" on="0"/>
        <pt x="240" y="1483" on="1"/>
        <pt x="174" y="1415" on="0"/>
        <pt x="174" y="1305" on="1"/>
        <pt x="174" y="1224" on="0"/>
        <pt x="200" y="1117" on="0"/>
        <pt x="214" y="1061" on="0"/>
        <pt x="250" y="975" on="0"/>
        <pt x="267" y="933" on="0"/>
        <pt x="316" y="837" on="0"/>
        <pt x="331" y="809" on="0"/>
        <pt x="390" y="702" on="0"/>
      </contour>
      <contour>
        <pt x="186" y="-424" on="1"/>
        <pt x="190" y="-406" on="1"/>
        <pt x="297" y="-320" on="0"/>
        <pt x="297" y="-256" on="1"/>
        <pt x="272" y="-242" on="0"/>
        <pt x="238" y="-192" on="0"/>
        <pt x="238" y="-138" on="0"/>
        <pt x="287" y="-102" on="0"/>
        <pt x="315" y="-102" on="1"/>
        <pt x="361" y="-102" on="0"/>
        <pt x="383" y="-162" on="1"/>
        <pt x="379" y="-168" on="1"/>
        <pt x="383" y="-176" on="0"/>
        <pt x="383" y="-227" on="0"/>
        <pt x="333" y="-343" on="0"/>
        <pt x="253" y="-439" on="0"/>
        <pt x="219" y="-440" on="1"/>
      </contour>
    </TTGlyph>
    <TTGlyph name="T" xMin="70" yMin="-12" xMax="465" yMax="1546">
      <contour>
        <pt x="342" y="545" on="1"/>
        <pt x="352" y="68" on="1"/>
        <pt x="352" y="-12" on="0"/>
        <pt x="317" y="-12" on="1"/>
        <pt x="296" y="-12" on="0"/>
        <pt x="274" y="45" on="0"/>
        <pt x="274" y="70" on="1"/>
        <pt x="291" y="406" on="1"/>
        <pt x="291" y="514" on="0"/>
        <pt x="262" y="951" on="0"/>
        <pt x="262" y="1061" on="1"/>
        <pt x="264" y="1253" on="1"/>
        <pt x="264" y="1464" on="0"/>
        <pt x="229" y="1464" on="1"/>
        <pt x="113" y="1452" on="1"/>
        <pt x="98" y="1452" on="0"/>
        <pt x="70" y="1471" on="0"/>
        <pt x="70" y="1487" on="1"/>
        <pt x="70" y="1508" on="0"/>
        <pt x="342" y="1546" on="0"/>
        <pt x="422" y="1546" on="1"/>
        <pt x="437" y="1546" on="0"/>
        <pt x="465" y="1525" on="0"/>
        <pt x="465" y="1511" on="1"/>
        <pt x="465" y="1481" on="0"/>
        <pt x="426" y="1481" on="1"/>
        <pt x="426" y="1481" on="0"/>
        <pt x="350" y="1487" on="1"/>
        <pt x="315" y="1487" on="0"/>
        <pt x="307" y="1466" on="1"/>
        <pt x="322" y="1337" on="0"/>
        <pt x="322" y="1200" on="1"/>
        <pt x="319" y="952" on="1"/>
        <pt x="319" y="710" on="0"/>
        <pt x="348" y="604" on="1"/>
        <pt x="342" y="574" on="0"/>
      </contour>
    </TTGlyph>
    <TTGlyph name="Tbar" xMin="70" yMin="-12" xMax="494" yMax="1546">
      <contour>
        <pt x="342" y="545" on="1"/>
        <pt x="352" y="68" on="1"/>
        <pt x="352" y="-12" on="0"/>
        <pt x="317" y="-12" on="1"/>
        <pt x="296" y="-12" on="0"/>
        <pt x="274" y="45" on="0"/>
        <pt x="274" y="70" on="1"/>
        <pt x="291" y="406" on="1"/>
        <pt x="291" y="501" on="0"/>
        <pt x="279" y="693" on="1"/>
        <pt x="210" y="686" on="0"/>
        <pt x="176" y="686" on="1"/>
        <pt x="113" y="686" on="0"/>
        <pt x="113" y="715" on="1"/>
        <pt x="113" y="733" on="0"/>
        <pt x="275" y="750" on="1"/>
        <pt x="262" y="943" on="0"/>
        <pt x="262" y="1061" on="1"/>
        <pt x="264" y="1253" on="1"/>
        <pt x="264" y="1464" on="0"/>
        <pt x="229" y="1464" on="1"/>
        <pt x="113" y="1452" on="1"/>
        <pt x="98" y="1452" on="0"/>
        <pt x="70" y="1471" on="0"/>
        <pt x="70" y="1487" on="1"/>
        <pt x="70" y="1508" on="0"/>
        <pt x="342" y="1546" on="0"/>
        <pt x="422" y="1546" on="1"/>
        <pt x="437" y="1546" on="0"/>
        <pt x="465" y="1525" on="0"/>
        <pt x="465" y="1511" on="1"/>
        <pt x="465" y="1481" on="0"/>
        <pt x="426" y="1481" on="1"/>
        <pt x="350" y="1487" on="1"/>
        <pt x="315" y="1487" on="0"/>
        <pt x="307" y="1466" on="1"/>
        <pt x="322" y="1337" on="0"/>
        <pt x="322" y="1200" on="1"/>
        <pt x="319" y="952" on="1"/>
        <pt x="319" y="822" on="0"/>
        <pt x="324" y="754" on="1"/>
        <pt x="414" y="762" on="0"/>
        <pt x="444" y="762" on="1"/>
        <pt x="494" y="762" on="0"/>
        <pt x="494" y="718" on="0"/>
        <pt x="330" y="699" on="1"/>
        <pt x="336" y="647" on="0"/>
        <pt x="348" y="604" on="1"/>
        <pt x="342" y="574" on="0"/>
      </contour>
    </TTGlyph>
    <TTGlyph name="Tcaron" xMin="70" yMin="-12" xMax="465" yMax="2056">
      <component glyphName="caron" x="16" y="723" flags="0x1004"/>
      <component glyphName="T" x="0" y="0" flags="0x1204"/>
    </TTGlyph>
    <TTGlyph name="Tcommaaccent" xMin="70" yMin="-467" xMax="511" yMax="1546">
      <component glyphName="cedilla" x="155" y="12" flags="0x1004"/>
      <component glyphName="T" x="0" y="0" flags="0x1204"/>
    </TTGlyph>
    <TTGlyph name="Thorn" xMin="94" yMin="-12" xMax="446" yMax="1546">
      <contour>
        <pt x="190" y="537" on="1"/>
        <pt x="201" y="51" on="1"/>
        <pt x="201" y="21" on="0"/>
        <pt x="184" y="-12" on="0"/>
        <pt x="131" y="-12" on="0"/>
        <pt x="131" y="59" on="1"/>
        <pt x="133" y="317" on="1"/>
        <pt x="129" y="569" on="1"/>
        <pt x="129" y="687" on="0"/>
        <pt x="113" y="1049" on="0"/>
        <pt x="110" y="1123" on="0"/>
        <pt x="96" y="1314" on="0"/>
        <pt x="94" y="1376" on="0"/>
        <pt x="94" y="1395" on="1"/>
        <pt x="96" y="1530" on="1"/>
        <pt x="96" y="1542" on="0"/>
        <pt x="111" y="1546" on="1"/>
        <pt x="145" y="1540" on="1"/>
        <pt x="147" y="1512" on="0"/>
        <pt x="152" y="1406" on="0"/>
        <pt x="154" y="1378" on="1"/>
        <pt x="154" y="1376" on="1"/>
        <pt x="320" y="1373" on="0"/>
        <pt x="400" y="1205" on="1"/>
        <pt x="446" y="1110" on="0"/>
        <pt x="446" y="898" on="0"/>
        <pt x="403" y="774" on="1"/>
        <pt x="350" y="621" on="0"/>
        <pt x="266" y="582" on="1"/>
        <pt x="240" y="571" on="0"/>
        <pt x="229" y="560" on="1"/>
        <pt x="209" y="542" on="0"/>
      </contour>
      <contour>
        <pt x="162" y="1317" on="1"/>
        <pt x="162" y="1264" on="1"/>
        <pt x="163" y="1152" on="0"/>
        <pt x="188" y="716" on="0"/>
        <pt x="190" y="612" on="1"/>
        <pt x="211" y="614" on="0"/>
        <pt x="232" y="633" on="0"/>
        <pt x="252" y="655" on="0"/>
        <pt x="256" y="659" on="1"/>
        <pt x="389" y="792" on="0"/>
        <pt x="389" y="993" on="1"/>
        <pt x="389" y="1156" on="0"/>
        <pt x="320" y="1222" on="1"/>
        <pt x="291" y="1251" on="0"/>
        <pt x="203" y="1314" on="0"/>
        <pt x="199" y="1317" on="1"/>
      </contour>
    </TTGlyph>
    <TTGlyph name="U" xMin="84" yMin="-39" xMax="633" yMax="1540">
      <contour>
        <pt x="627" y="426" on="1"/>
        <pt x="629" y="297" on="1"/>
        <pt x="629" y="124" on="0"/>
        <pt x="584" y="42" on="1"/>
        <pt x="565" y="8" on="0"/>
        <pt x="493" y="-39" on="0"/>
        <pt x="379" y="-39" on="0"/>
        <pt x="283" y="22" on="0"/>
        <pt x="231" y="114" on="0"/>
        <pt x="192" y="236" on="0"/>
        <pt x="184" y="290" on="1"/>
        <pt x="161" y="432" on="0"/>
        <pt x="139" y="473" on="1"/>
        <pt x="139" y="636" on="0"/>
        <pt x="98" y="1285" on="0"/>
        <pt x="98" y="1448" on="1"/>
        <pt x="84" y="1491" on="1"/>
        <pt x="84" y="1505" on="0"/>
        <pt x="105" y="1532" on="0"/>
        <pt x="119" y="1532" on="1"/>
        <pt x="170" y="1532" on="0"/>
        <pt x="170" y="1382" on="1"/>
        <pt x="188" y="690" on="1"/>
        <pt x="196" y="680" on="0"/>
        <pt x="198" y="641" on="1"/>
        <pt x="208" y="499" on="0"/>
        <pt x="217" y="459" on="1"/>
        <pt x="213" y="435" on="0"/>
        <pt x="213" y="379" on="0"/>
        <pt x="252" y="247" on="0"/>
        <pt x="315" y="119" on="0"/>
        <pt x="409" y="27" on="0"/>
        <pt x="483" y="27" on="0"/>
        <pt x="519" y="43" on="0"/>
        <pt x="539" y="62" on="0"/>
        <pt x="552" y="106" on="0"/>
        <pt x="556" y="129" on="0"/>
        <pt x="560" y="188" on="0"/>
        <pt x="559" y="201" on="0"/>
        <pt x="559" y="213" on="1"/>
        <pt x="565" y="281" on="1"/>
        <pt x="565" y="514" on="1"/>
        <pt x="551" y="637" on="1"/>
        <pt x="539" y="1004" on="1"/>
        <pt x="539" y="1030" on="1"/>
        <pt x="530" y="1042" on="1"/>
        <pt x="539" y="1100" on="0"/>
        <pt x="539" y="1159" on="1"/>
        <pt x="520" y="1507" on="1"/>
        <pt x="520" y="1523" on="0"/>
        <pt x="549" y="1540" on="0"/>
        <pt x="565" y="1540" on="1"/>
        <pt x="600" y="1507" on="1"/>
        <pt x="594" y="1491" on="1"/>
        <pt x="600" y="1475" on="1"/>
        <pt x="586" y="1352" on="1"/>
        <pt x="606" y="983" on="1"/>
        <pt x="616" y="627" on="1"/>
        <pt x="623" y="625" on="1"/>
        <pt x="621" y="611" on="0"/>
        <pt x="621" y="582" on="1"/>
        <pt x="627" y="438" on="1"/>
        <pt x="633" y="432" on="1"/>
      </contour>
    </TTGlyph>
    <TTGlyph name="Uacute" xMin="84" yMin="-39" xMax="633" yMax="1913">
      <component glyphName="acute" x="201" y="365" flags="0x1004"/>
      <component glyphName="U" x="0" y="0" flags="0x1204"/>
    </TTGlyph>
    <TTGlyph name="Ubreve" xMin="84" yMin="-39" xMax="633" yMax="1900">
      <component glyphName="breve" x="68" y="782" flags="0x1004"/>
      <component glyphName="U" x="0" y="0" flags="0x1204"/>
    </TTGlyph>
    <TTGlyph name="Ucircumflex" xMin="84" yMin="-39" xMax="633" yMax="2056">
      <component glyphName="circumflex" x="96" y="723" flags="0x1004"/>
      <component glyphName="U" x="0" y="0" flags="0x1204"/>
    </TTGlyph>
    <TTGlyph name="Udieresis" xMin="57" yMin="-39" xMax="633" yMax="1777">
      <component glyphName="dieresis" x="-54" y="702" flags="0x1004"/>
      <component glyphName="U" x="0" y="0" flags="0x1204"/>
    </TTGlyph>
    <TTGlyph name="Ugrave" xMin="26" yMin="-39" xMax="633" yMax="1829">
      <component glyphName="grave" x="-78" y="125" flags="0x1004"/>
      <component glyphName="U" x="0" y="0" flags="0x1204"/>
    </TTGlyph>
    <TTGlyph name="Uhungarumlaut" xMin="84" yMin="-39" xMax="893" yMax="1966">
      <component glyphName="hungarumlaut" x="34" y="1634" flags="0x1004"/>
      <component glyphName="U" x="0" y="0" flags="0x1204"/>
    </TTGlyph>
    <TTGlyph name="Umacron" xMin="84" yMin="-39" xMax="633" yMax="1723">
      <component glyphName="macron" x="25" y="971" flags="0x1004"/>
      <component glyphName="U" x="0" y="0" flags="0x1204"/>
    </TTGlyph>
    <TTGlyph name="Uogonek" xMin="84" yMin="-494" xMax="633" yMax="1540">
      <component glyphName="ogonek" x="133" y="-15" flags="0x1004"/>
      <component glyphName="U" x="0" y="0" flags="0x1204"/>
    </TTGlyph>
    <TTGlyph name="Uring" xMin="84" yMin="-39" xMax="633" yMax="1908">
      <component glyphName="ring" x="136" y="616" flags="0x1004"/>
      <component glyphName="U" x="0" y="0" flags="0x1204"/>
    </TTGlyph>
    <TTGlyph name="Utilde" xMin="84" yMin="-39" xMax="633" yMax="1853">
      <component glyphName="tilde" x="7" y="653" flags="0x1004"/>
      <component glyphName="U" x="0" y="0" flags="0x1204"/>
    </TTGlyph>
    <TTGlyph name="V" xMin="74" yMin="-18" xMax="582" yMax="1554">
      <contour>
        <pt x="375" y="-18" on="1"/>
        <pt x="368" y="-18" on="0"/>
        <pt x="344" y="-10" on="1"/>
        <pt x="307" y="139" on="0"/>
        <pt x="169" y="1053" on="0"/>
        <pt x="98" y="1481" on="0"/>
        <pt x="74" y="1526" on="1"/>
        <pt x="81" y="1548" on="0"/>
        <pt x="115" y="1548" on="1"/>
        <pt x="148" y="1548" on="0"/>
        <pt x="158" y="1474" on="1"/>
        <pt x="160" y="1464" on="0"/>
        <pt x="188" y="1312" on="0"/>
        <pt x="309" y="469" on="0"/>
        <pt x="362" y="242" on="1"/>
        <pt x="373" y="302" on="0"/>
        <pt x="384" y="416" on="0"/>
        <pt x="426" y="777" on="1"/>
        <pt x="502" y="1430" on="0"/>
        <pt x="502" y="1516" on="1"/>
        <pt x="502" y="1524" on="1"/>
        <pt x="532" y="1554" on="0"/>
        <pt x="553" y="1554" on="1"/>
        <pt x="565" y="1546" on="1"/>
        <pt x="561" y="1546" on="1"/>
        <pt x="582" y="1530" on="1"/>
        <pt x="582" y="1487" on="0"/>
        <pt x="553" y="1319" on="0"/>
        <pt x="553" y="1276" on="1"/>
        <pt x="532" y="1238" on="0"/>
        <pt x="416" y="145" on="0"/>
        <pt x="414" y="27" on="1"/>
        <pt x="397" y="-18" on="0"/>
      </contour>
      <contour>
        <pt x="362" y="236" on="1"/>
        <pt x="358" y="231" on="1"/>
        <pt x="365" y="231" on="1"/>
      </contour>
    </TTGlyph>
    <TTGlyph name="W" xMin="74" yMin="-27" xMax="868" yMax="1591">
      <contour>
        <pt x="440" y="1053" on="1"/>
        <pt x="438" y="1049" on="1"/>
        <pt x="431" y="1015" on="0"/>
        <pt x="429" y="878" on="0"/>
        <pt x="395" y="719" on="0"/>
        <pt x="348" y="117" on="0"/>
        <pt x="348" y="6" on="1"/>
        <pt x="348" y="-1" on="0"/>
        <pt x="324" y="-27" on="0"/>
        <pt x="297" y="-27" on="0"/>
        <pt x="275" y="0" on="0"/>
        <pt x="266" y="51" on="0"/>
        <pt x="264" y="70" on="1"/>
        <pt x="262" y="103" on="0"/>
        <pt x="260" y="193" on="0"/>
        <pt x="247" y="287" on="0"/>
        <pt x="225" y="404" on="0"/>
        <pt x="214" y="481" on="0"/>
        <pt x="182" y="754" on="1"/>
        <pt x="97" y="1477" on="0"/>
        <pt x="74" y="1513" on="1"/>
        <pt x="89" y="1540" on="0"/>
        <pt x="138" y="1540" on="0"/>
        <pt x="168" y="1465" on="0"/>
        <pt x="183" y="1343" on="0"/>
        <pt x="191" y="1231" on="0"/>
        <pt x="196" y="1117" on="0"/>
        <pt x="211" y="959" on="0"/>
        <pt x="290" y="417" on="0"/>
        <pt x="303" y="309" on="1"/>
        <pt x="307" y="309" on="1"/>
        <pt x="307" y="406" on="0"/>
        <pt x="338" y="657" on="0"/>
        <pt x="344" y="721" on="0"/>
        <pt x="363" y="814" on="0"/>
        <pt x="367" y="867" on="0"/>
        <pt x="380" y="1117" on="0"/>
        <pt x="388" y="1193" on="0"/>
        <pt x="401" y="1284" on="0"/>
        <pt x="401" y="1309" on="1"/>
        <pt x="399" y="1346" on="1"/>
        <pt x="399" y="1372" on="0"/>
        <pt x="428" y="1386" on="1"/>
        <pt x="489" y="1386" on="0"/>
        <pt x="489" y="1350" on="1"/>
        <pt x="479" y="1323" on="1"/>
        <pt x="479" y="1095" on="0"/>
        <pt x="649" y="463" on="0"/>
        <pt x="649" y="246" on="1"/>
        <pt x="655" y="242" on="1"/>
        <pt x="661" y="266" on="0"/>
        <pt x="672" y="464" on="0"/>
        <pt x="725" y="878" on="0"/>
        <pt x="735" y="1048" on="0"/>
        <pt x="778" y="1406" on="0"/>
        <pt x="778" y="1503" on="1"/>
        <pt x="776" y="1542" on="1"/>
        <pt x="776" y="1591" on="0"/>
        <pt x="829" y="1591" on="1"/>
        <pt x="842" y="1591" on="0"/>
        <pt x="868" y="1572" on="0"/>
        <pt x="868" y="1538" on="0"/>
        <pt x="846" y="1520" on="1"/>
        <pt x="848" y="1516" on="0"/>
        <pt x="848" y="1507" on="1"/>
        <pt x="848" y="1494" on="0"/>
        <pt x="840" y="1462" on="1"/>
        <pt x="826" y="1343" on="0"/>
        <pt x="773" y="678" on="0"/>
        <pt x="692" y="201" on="0"/>
        <pt x="692" y="53" on="1"/>
        <pt x="692" y="23" on="1"/>
        <pt x="692" y="-1" on="0"/>
        <pt x="678" y="-27" on="0"/>
        <pt x="655" y="-27" on="1"/>
        <pt x="607" y="-27" on="0"/>
        <pt x="581" y="288" on="1"/>
        <pt x="573" y="383" on="0"/>
        <pt x="462" y="921" on="0"/>
        <pt x="446" y="1049" on="1"/>
      </contour>
      <contour>
        <pt x="655" y="236" on="1"/>
        <pt x="651" y="236" on="0"/>
        <pt x="651" y="233" on="1"/>
      </contour>
      <contour>
        <pt x="334" y="1161" on="1"/>
        <pt x="334" y="1157" on="1"/>
      </contour>
    </TTGlyph>
    <TTGlyph name="Wcircumflex" xMin="74" yMin="-27" xMax="868" yMax="2076">
      <component glyphName="circumflex" x="225" y="743" flags="0x1004"/>
      <component glyphName="W" x="0" y="0" flags="0x1204"/>
    </TTGlyph>
    <TTGlyph name="X" xMin="82" yMin="-12" xMax="475" yMax="1552">
      <contour>
        <pt x="430" y="27" on="1"/>
        <pt x="393" y="27" on="0"/>
        <pt x="393" y="79" on="0"/>
        <pt x="386" y="143" on="0"/>
        <pt x="378" y="188" on="0"/>
        <pt x="372" y="225" on="1"/>
        <pt x="327" y="481" on="0"/>
        <pt x="289" y="629" on="1"/>
        <pt x="280" y="614" on="0"/>
        <pt x="176" y="131" on="0"/>
        <pt x="163" y="58" on="0"/>
        <pt x="162" y="48" on="1"/>
        <pt x="155" y="1" on="0"/>
        <pt x="140" y="-6" on="1"/>
        <pt x="126" y="-12" on="0"/>
        <pt x="105" y="-12" on="0"/>
        <pt x="82" y="4" on="0"/>
        <pt x="82" y="24" on="0"/>
        <pt x="99" y="84" on="0"/>
        <pt x="112" y="122" on="1"/>
        <pt x="145" y="223" on="0"/>
        <pt x="217" y="577" on="0"/>
        <pt x="232" y="649" on="0"/>
        <pt x="240" y="687" on="0"/>
        <pt x="245" y="717" on="1"/>
        <pt x="254" y="771" on="0"/>
        <pt x="254" y="892" on="0"/>
        <pt x="230" y="1041" on="0"/>
        <pt x="180" y="1250" on="0"/>
        <pt x="168" y="1309" on="0"/>
        <pt x="122" y="1454" on="0"/>
        <pt x="121" y="1495" on="1"/>
        <pt x="137" y="1522" on="0"/>
        <pt x="172" y="1522" on="0"/>
        <pt x="191" y="1502" on="0"/>
        <pt x="194" y="1480" on="0"/>
        <pt x="196" y="1442" on="0"/>
        <pt x="208" y="1370" on="0"/>
        <pt x="277" y="1081" on="0"/>
        <pt x="289" y="1004" on="1"/>
        <pt x="328" y="1107" on="0"/>
        <pt x="343" y="1190" on="1"/>
        <pt x="371" y="1352" on="0"/>
        <pt x="378" y="1385" on="0"/>
        <pt x="384" y="1436" on="0"/>
        <pt x="391" y="1477" on="0"/>
        <pt x="398" y="1501" on="1"/>
        <pt x="411" y="1552" on="0"/>
        <pt x="438" y="1552" on="1"/>
        <pt x="475" y="1552" on="0"/>
        <pt x="475" y="1513" on="0"/>
        <pt x="450" y="1452" on="0"/>
        <pt x="422" y="1354" on="0"/>
        <pt x="363" y="1052" on="0"/>
        <pt x="347" y="970" on="0"/>
        <pt x="340" y="931" on="0"/>
        <pt x="334" y="898" on="1"/>
        <pt x="324" y="835" on="0"/>
        <pt x="324" y="791" on="1"/>
        <pt x="432" y="238" on="1"/>
        <pt x="428" y="227" on="1"/>
        <pt x="428" y="198" on="0"/>
        <pt x="463" y="90" on="0"/>
        <pt x="463" y="49" on="0"/>
        <pt x="442" y="27" on="0"/>
      </contour>
      <contour>
        <pt x="287" y="635" on="1"/>
        <pt x="283" y="635" on="1"/>
        <pt x="283" y="633" on="0"/>
        <pt x="287" y="633" on="1"/>
      </contour>
    </TTGlyph>
    <TTGlyph name="Y" xMin="74" yMin="-25" xMax="420" yMax="1546">
      <contour>
        <pt x="289" y="-25" on="1"/>
        <pt x="260" y="-25" on="0"/>
        <pt x="260" y="25" on="1"/>
        <pt x="270" y="420" on="1"/>
        <pt x="270" y="420" on="0"/>
        <pt x="256" y="586" on="1"/>
        <pt x="256" y="619" on="0"/>
        <pt x="231" y="745" on="0"/>
        <pt x="231" y="793" on="0"/>
        <pt x="220" y="851" on="0"/>
        <pt x="200" y="933" on="0"/>
        <pt x="191" y="978" on="0"/>
        <pt x="172" y="1078" on="1"/>
        <pt x="131" y="1287" on="0"/>
        <pt x="74" y="1478" on="0"/>
        <pt x="74" y="1504" on="1"/>
        <pt x="74" y="1546" on="0"/>
        <pt x="115" y="1546" on="1"/>
        <pt x="139" y="1530" on="1"/>
        <pt x="144" y="1447" on="0"/>
        <pt x="241" y="967" on="0"/>
        <pt x="268" y="930" on="1"/>
        <pt x="300" y="1024" on="0"/>
        <pt x="324" y="1307" on="0"/>
        <pt x="332" y="1380" on="1"/>
        <pt x="350" y="1540" on="0"/>
        <pt x="389" y="1540" on="1"/>
        <pt x="420" y="1540" on="0"/>
        <pt x="420" y="1518" on="1"/>
        <pt x="420" y="1502" on="0"/>
        <pt x="404" y="1445" on="0"/>
        <pt x="397" y="1401" on="0"/>
        <pt x="358" y="1183" on="0"/>
        <pt x="349" y="1128" on="1"/>
        <pt x="322" y="965" on="0"/>
        <pt x="322" y="829" on="1"/>
        <pt x="328" y="762" on="1"/>
        <pt x="315" y="731" on="1"/>
        <pt x="315" y="715" on="1"/>
        <pt x="330" y="469" on="1"/>
        <pt x="330" y="192" on="0"/>
        <pt x="326" y="55" on="1"/>
        <pt x="332" y="49" on="1"/>
        <pt x="334" y="35" on="1"/>
        <pt x="334" y="12" on="0"/>
        <pt x="311" y="-25" on="0"/>
      </contour>
    </TTGlyph>
    <TTGlyph name="Yacute" xMin="74" yMin="-25" xMax="503" yMax="1913">
      <component glyphName="acute" x="106" y="365" flags="0x1004"/>
      <component glyphName="Y" x="0" y="0" flags="0x1204"/>
    </TTGlyph>
    <TTGlyph name="Ycircumflex" xMin="74" yMin="-25" xMax="420" yMax="2056">
      <component glyphName="circumflex" x="2" y="723" flags="0x1004"/>
      <component glyphName="Y" x="0" y="0" flags="0x1204"/>
    </TTGlyph>
    <TTGlyph name="Ydieresis" xMin="-38" yMin="-25" xMax="517" yMax="1777">
      <component glyphName="dieresis" x="-149" y="702" flags="0x1004"/>
      <component glyphName="Y" x="0" y="0" flags="0x1204"/>
    </TTGlyph>
    <TTGlyph name="Z" xMin="78" yMin="-18" xMax="383" yMax="1563">
      <contour>
        <pt x="352" y="-10" on="1"/>
        <pt x="109" y="-18" on="1"/>
        <pt x="88" y="-18" on="0"/>
        <pt x="78" y="8" on="1"/>
        <pt x="122" y="85" on="0"/>
        <pt x="164" y="285" on="0"/>
        <pt x="190" y="529" on="0"/>
        <pt x="203" y="588" on="1"/>
        <pt x="268" y="1078" on="0"/>
        <pt x="292" y="1235" on="1"/>
        <pt x="322" y="1441" on="0"/>
        <pt x="324" y="1499" on="1"/>
        <pt x="324" y="1499" on="0"/>
        <pt x="186" y="1489" on="1"/>
        <pt x="94" y="1489" on="0"/>
        <pt x="94" y="1530" on="1"/>
        <pt x="109" y="1546" on="1"/>
        <pt x="125" y="1542" on="0"/>
        <pt x="158" y="1542" on="1"/>
        <pt x="158" y="1542" on="0"/>
        <pt x="350" y="1563" on="1"/>
        <pt x="383" y="1563" on="0"/>
        <pt x="383" y="1526" on="1"/>
        <pt x="361" y="1477" on="0"/>
        <pt x="346" y="1265" on="0"/>
        <pt x="330" y="1153" on="0"/>
        <pt x="232" y="397" on="0"/>
        <pt x="199" y="195" on="1"/>
        <pt x="196" y="173" on="0"/>
        <pt x="152" y="69" on="0"/>
        <pt x="152" y="39" on="1"/>
        <pt x="285" y="49" on="1"/>
        <pt x="371" y="49" on="0"/>
        <pt x="371" y="8" on="1"/>
      </contour>
    </TTGlyph>
    <TTGlyph name="Zacute" xMin="78" yMin="-18" xMax="459" yMax="1913">
      <component glyphName="acute" x="62" y="365" flags="0x1004"/>
      <component glyphName="Z" x="0" y="0" flags="0x1204"/>
    </TTGlyph>
    <TTGlyph name="Zcaron" xMin="43" yMin="-18" xMax="383" yMax="2056">
      <component glyphName="caron" x="-49" y="723" flags="0x1004"/>
      <component glyphName="Z" x="0" y="0" flags="0x1204"/>
    </TTGlyph>
    <TTGlyph name="Zdotaccent" xMin="78" yMin="-18" xMax="383" yMax="1777">
      <component glyphName="uni0307" x="31" y="520" flags="0x1004"/>
      <component glyphName="Z" x="0" y="0" flags="0x1204"/>
    </TTGlyph>
    <TTGlyph name="a" xMin="82" yMin="-18" xMax="569" yMax="1374">
      <contour>
        <pt x="367" y="305" on="1"/>
        <pt x="313" y="303" on="1"/>
        <pt x="284" y="315" on="0"/>
        <pt x="214" y="315" on="0"/>
        <pt x="208" y="311" on="0"/>
        <pt x="206" y="301" on="0"/>
        <pt x="205" y="299" on="1"/>
        <pt x="201" y="258" on="1"/>
        <pt x="197" y="206" on="0"/>
        <pt x="182" y="133" on="1"/>
        <pt x="154" y="-10" on="0"/>
        <pt x="123" y="-10" on="1"/>
        <pt x="110" y="-10" on="0"/>
        <pt x="82" y="12" on="0"/>
        <pt x="82" y="25" on="1"/>
        <pt x="108" y="102" on="0"/>
        <pt x="164" y="414" on="0"/>
        <pt x="178" y="491" on="0"/>
        <pt x="216" y="725" on="0"/>
        <pt x="228" y="799" on="0"/>
        <pt x="281" y="1045" on="0"/>
        <pt x="292" y="1121" on="0"/>
        <pt x="299" y="1186" on="1"/>
        <pt x="316" y="1346" on="0"/>
        <pt x="326" y="1364" on="1"/>
        <pt x="354" y="1362" on="1"/>
        <pt x="379" y="1362" on="0"/>
        <pt x="391" y="1374" on="1"/>
        <pt x="404" y="1374" on="0"/>
        <pt x="428" y="1357" on="0"/>
        <pt x="428" y="1343" on="1"/>
        <pt x="428" y="1245" on="0"/>
        <pt x="478" y="683" on="0"/>
        <pt x="507" y="518" on="0"/>
        <pt x="545" y="359" on="0"/>
        <pt x="545" y="317" on="1"/>
        <pt x="535" y="289" on="1"/>
        <pt x="535" y="243" on="0"/>
        <pt x="569" y="64" on="0"/>
        <pt x="569" y="-9" on="0"/>
        <pt x="553" y="-18" on="1"/>
        <pt x="511" y="-18" on="0"/>
        <pt x="492" y="6" on="0"/>
        <pt x="492" y="59" on="0"/>
        <pt x="485" y="136" on="0"/>
        <pt x="478" y="182" on="0"/>
        <pt x="461" y="281" on="0"/>
        <pt x="459" y="295" on="1"/>
        <pt x="420" y="305" on="0"/>
      </contour>
      <contour>
        <pt x="223" y="406" on="1"/>
        <pt x="223" y="385" on="0"/>
        <pt x="272" y="371" on="1"/>
        <pt x="347" y="350" on="0"/>
        <pt x="438" y="350" on="1"/>
        <pt x="459" y="350" on="1"/>
        <pt x="446" y="390" on="0"/>
        <pt x="446" y="442" on="1"/>
        <pt x="446" y="489" on="1"/>
        <pt x="446" y="616" on="0"/>
        <pt x="383" y="1102" on="0"/>
        <pt x="381" y="1221" on="1"/>
        <pt x="274" y="692" on="0"/>
        <pt x="223" y="443" on="0"/>
      </contour>
    </TTGlyph>
    <TTGlyph name="aacute" xMin="82" yMin="-18" xMax="569" yMax="1718">
      <component glyphName="acute" x="136" y="170" flags="0x1004"/>
      <component glyphName="a" x="0" y="0" flags="0x1204"/>
    </TTGlyph>
    <TTGlyph name="abreve" xMin="82" yMin="-18" xMax="569" yMax="1706">
      <component glyphName="breve" x="120" y="588" flags="0x1004"/>
      <component glyphName="a" x="0" y="0" flags="0x1204"/>
    </TTGlyph>
    <TTGlyph name="acircumflex" xMin="82" yMin="-18" xMax="569" yMax="1861">
      <component glyphName="circumflex" x="147" y="528" flags="0x1004"/>
      <component glyphName="a" x="0" y="0" flags="0x1204"/>
    </TTGlyph>
    <TTGlyph name="acute" xMin="98" yMin="1309" xMax="397" yMax="1548">
      <contour>
        <pt x="135" y="1309" on="1"/>
        <pt x="98" y="1309" on="0"/>
        <pt x="98" y="1339" on="1"/>
        <pt x="98" y="1351" on="0"/>
        <pt x="341" y="1538" on="0"/>
        <pt x="352" y="1548" on="1"/>
        <pt x="397" y="1548" on="0"/>
        <pt x="397" y="1516" on="1"/>
        <pt x="397" y="1515" on="0"/>
        <pt x="391" y="1485" on="1"/>
        <pt x="288" y="1439" on="0"/>
      </contour>
    </TTGlyph>
    <TTGlyph name="adieresis" xMin="82" yMin="-18" xMax="663" yMax="1583">
      <component glyphName="dieresis" x="-3" y="508" flags="0x1004"/>
      <component glyphName="a" x="0" y="0" flags="0x1204"/>
    </TTGlyph>
    <TTGlyph name="ae" xMin="84" yMin="-14" xMax="844" yMax="1350">
      <contour>
        <pt x="549" y="-12" on="1"/>
        <pt x="518" y="-14" on="1"/>
        <pt x="489" y="14" on="1"/>
        <pt x="506" y="110" on="0"/>
        <pt x="506" y="229" on="1"/>
        <pt x="496" y="600" on="1"/>
        <pt x="485" y="614" on="1"/>
        <pt x="477" y="612" on="0"/>
        <pt x="422" y="608" on="1"/>
        <pt x="279" y="600" on="0"/>
        <pt x="274" y="580" on="1"/>
        <pt x="172" y="209" on="1"/>
        <pt x="172" y="208" on="0"/>
        <pt x="159" y="146" on="1"/>
        <pt x="129" y="2" on="0"/>
        <pt x="100" y="2" on="1"/>
        <pt x="93" y="2" on="0"/>
        <pt x="84" y="20" on="0"/>
        <pt x="84" y="27" on="1"/>
        <pt x="86" y="125" on="0"/>
        <pt x="166" y="432" on="1"/>
        <pt x="276" y="782" on="0"/>
        <pt x="434" y="1196" on="1"/>
        <pt x="438" y="1208" on="1"/>
        <pt x="438" y="1208" on="0"/>
        <pt x="440" y="1217" on="1"/>
        <pt x="477" y="1348" on="0"/>
        <pt x="528" y="1348" on="1"/>
        <pt x="686" y="1350" on="1"/>
        <pt x="750" y="1350" on="0"/>
        <pt x="750" y="1317" on="1"/>
        <pt x="737" y="1292" on="1"/>
        <pt x="635" y="1292" on="1"/>
        <pt x="568" y="1292" on="0"/>
        <pt x="535" y="1288" on="1"/>
        <pt x="541" y="975" on="1"/>
        <pt x="543" y="682" on="1"/>
        <pt x="553" y="670" on="1"/>
        <pt x="608" y="690" on="0"/>
        <pt x="715" y="690" on="1"/>
        <pt x="743" y="655" on="1"/>
        <pt x="743" y="621" on="0"/>
        <pt x="598" y="621" on="1"/>
        <pt x="543" y="621" on="1"/>
        <pt x="551" y="154" on="1"/>
        <pt x="549" y="70" on="1"/>
        <pt x="549" y="35" on="0"/>
        <pt x="567" y="35" on="1"/>
        <pt x="799" y="57" on="1"/>
        <pt x="844" y="57" on="0"/>
        <pt x="844" y="31" on="1"/>
        <pt x="844" y="-4" on="0"/>
        <pt x="650" y="-7" on="1"/>
        <pt x="577" y="-8" on="0"/>
        <pt x="565" y="-14" on="1"/>
        <pt x="559" y="-12" on="0"/>
      </contour>
      <contour>
        <pt x="494" y="948" on="1"/>
        <pt x="496" y="1085" on="1"/>
        <pt x="496" y="1163" on="1"/>
        <pt x="496" y="1212" on="0"/>
        <pt x="494" y="1237" on="1"/>
        <pt x="476" y="1218" on="0"/>
        <pt x="294" y="683" on="0"/>
        <pt x="289" y="643" on="1"/>
        <pt x="379" y="643" on="0"/>
        <pt x="494" y="668" on="1"/>
      </contour>
    </TTGlyph>
    <TTGlyph name="agrave" xMin="78" yMin="-18" xMax="569" yMax="1634">
      <component glyphName="grave" x="-26" y="-70" flags="0x1004"/>
      <component glyphName="a" x="0" y="0" flags="0x1204"/>
    </TTGlyph>
    <TTGlyph name="amacron" xMin="82" yMin="-18" xMax="583" yMax="1528">
      <component glyphName="macron" x="76" y="776" flags="0x1004"/>
      <component glyphName="a" x="0" y="0" flags="0x1204"/>
    </TTGlyph>
    <TTGlyph name="ampersand" xMin="92" yMin="219" xMax="862" yMax="1704">
      <contour>
        <pt x="862" y="254" on="1"/>
        <pt x="862" y="221" on="0"/>
        <pt x="691" y="221" on="0"/>
        <pt x="584" y="303" on="1"/>
        <pt x="517" y="257" on="0"/>
        <pt x="422" y="219" on="0"/>
        <pt x="280" y="219" on="0"/>
        <pt x="157" y="319" on="0"/>
        <pt x="92" y="462" on="0"/>
        <pt x="92" y="575" on="0"/>
        <pt x="95" y="648" on="0"/>
        <pt x="110" y="725" on="0"/>
        <pt x="117" y="772" on="0"/>
        <pt x="146" y="852" on="0"/>
        <pt x="155" y="882" on="0"/>
        <pt x="200" y="973" on="0"/>
        <pt x="210" y="994" on="0"/>
        <pt x="268" y="1106" on="0"/>
        <pt x="274" y="1118" on="1"/>
        <pt x="260" y="1405" on="1"/>
        <pt x="260" y="1575" on="1"/>
        <pt x="260" y="1637" on="0"/>
        <pt x="303" y="1704" on="0"/>
        <pt x="326" y="1704" on="1"/>
        <pt x="373" y="1704" on="0"/>
        <pt x="481" y="1642" on="0"/>
        <pt x="481" y="1599" on="1"/>
        <pt x="475" y="1477" on="1"/>
        <pt x="475" y="1460" on="0"/>
        <pt x="477" y="1452" on="1"/>
        <pt x="462" y="1410" on="0"/>
        <pt x="442" y="1352" on="1"/>
        <pt x="397" y="1219" on="0"/>
        <pt x="368" y="1179" on="1"/>
        <pt x="322" y="1115" on="0"/>
        <pt x="322" y="1085" on="1"/>
        <pt x="322" y="1024" on="0"/>
        <pt x="401" y="703" on="0"/>
        <pt x="522" y="397" on="0"/>
        <pt x="569" y="383" on="1"/>
        <pt x="647" y="540" on="0"/>
        <pt x="647" y="780" on="1"/>
        <pt x="647" y="815" on="0"/>
        <pt x="629" y="812" on="1"/>
        <pt x="609" y="809" on="0"/>
        <pt x="598" y="825" on="1"/>
        <pt x="600" y="829" on="1"/>
        <pt x="596" y="842" on="1"/>
        <pt x="602" y="852" on="1"/>
        <pt x="637" y="852" on="0"/>
        <pt x="802" y="869" on="0"/>
        <pt x="823" y="877" on="1"/>
        <pt x="858" y="872" on="0"/>
        <pt x="858" y="846" on="1"/>
        <pt x="858" y="831" on="0"/>
        <pt x="789" y="813" on="0"/>
        <pt x="756" y="813" on="1"/>
        <pt x="707" y="815" on="1"/>
        <pt x="694" y="815" on="1"/>
        <pt x="694" y="657" on="0"/>
        <pt x="659" y="451" on="0"/>
        <pt x="606" y="348" on="1"/>
        <pt x="677" y="266" on="0"/>
        <pt x="764" y="266" on="1"/>
        <pt x="840" y="272" on="1"/>
      </contour>
      <contour>
        <pt x="211" y="935" on="0"/>
        <pt x="137" y="692" on="0"/>
        <pt x="137" y="512" on="0"/>
        <pt x="163" y="407" on="0"/>
        <pt x="189" y="360" on="1"/>
        <pt x="246" y="258" on="0"/>
        <pt x="367" y="258" on="1"/>
        <pt x="408" y="258" on="0"/>
        <pt x="540" y="307" on="0"/>
        <pt x="543" y="340" on="1"/>
        <pt x="534" y="355" on="0"/>
        <pt x="502" y="387" on="1"/>
        <pt x="437" y="453" on="0"/>
        <pt x="334" y="725" on="0"/>
        <pt x="305" y="871" on="0"/>
        <pt x="291" y="994" on="0"/>
        <pt x="281" y="1026" on="1"/>
      </contour>
      <contour>
        <pt x="764" y="629" on="1"/>
        <pt x="766" y="629" on="0"/>
        <pt x="766" y="627" on="1"/>
      </contour>
      <contour>
        <pt x="313" y="1315" on="1"/>
        <pt x="309" y="1303" on="0"/>
        <pt x="309" y="1264" on="0"/>
        <pt x="315" y="1206" on="0"/>
        <pt x="315" y="1190" on="1"/>
        <pt x="350" y="1222" on="0"/>
        <pt x="436" y="1474" on="0"/>
        <pt x="436" y="1530" on="1"/>
        <pt x="436" y="1653" on="0"/>
        <pt x="360" y="1653" on="1"/>
        <pt x="346" y="1653" on="0"/>
        <pt x="307" y="1594" on="0"/>
        <pt x="307" y="1579" on="1"/>
        <pt x="309" y="1325" on="1"/>
      </contour>
    </TTGlyph>
    <TTGlyph name="aogonek" xMin="82" yMin="-474" xMax="671" yMax="1374">
      <component glyphName="ogonek" x="315" y="5" flags="0x1004"/>
      <component glyphName="a" x="0" y="0" flags="0x1004"/>
    </TTGlyph>
    <TTGlyph name="aring" xMin="82" yMin="-18" xMax="569" yMax="1714">
      <component glyphName="ring" x="187" y="422" flags="0x1004"/>
      <component glyphName="a" x="0" y="0" flags="0x1204"/>
    </TTGlyph>
    <TTGlyph name="asciicircum" xMin="117" yMin="1538" xMax="207" yMax="1632">
      <contour>
        <pt x="117" y="1575" on="1"/>
        <pt x="117" y="1632" on="0"/>
        <pt x="156" y="1632" on="1"/>
        <pt x="178" y="1632" on="0"/>
        <pt x="207" y="1605" on="0"/>
        <pt x="207" y="1583" on="1"/>
        <pt x="207" y="1538" on="0"/>
        <pt x="166" y="1538" on="1"/>
        <pt x="117" y="1538" on="0"/>
      </contour>
    </TTGlyph>
    <TTGlyph name="asciitilde" xMin="111" yMin="1020" xMax="543" yMax="1200">
      <contour>
        <pt x="487" y="1149" on="1"/>
        <pt x="475" y="1188" on="1"/>
        <pt x="481" y="1200" on="0"/>
        <pt x="520" y="1200" on="0"/>
        <pt x="543" y="1156" on="0"/>
        <pt x="543" y="1087" on="0"/>
        <pt x="477" y="1022" on="0"/>
        <pt x="397" y="1022" on="0"/>
        <pt x="323" y="1065" on="0"/>
        <pt x="285" y="1104" on="0"/>
        <pt x="252" y="1143" on="1"/>
        <pt x="238" y="1149" on="1"/>
        <pt x="201" y="1149" on="1"/>
        <pt x="198" y="1137" on="0"/>
        <pt x="162" y="1111" on="0"/>
        <pt x="162" y="1086" on="0"/>
        <pt x="172" y="1051" on="1"/>
        <pt x="150" y="1020" on="1"/>
        <pt x="137" y="1020" on="0"/>
        <pt x="111" y="1042" on="0"/>
        <pt x="111" y="1055" on="1"/>
        <pt x="111" y="1118" on="0"/>
        <pt x="175" y="1200" on="0"/>
        <pt x="236" y="1200" on="1"/>
        <pt x="302" y="1166" on="0"/>
        <pt x="317" y="1155" on="1"/>
        <pt x="332" y="1125" on="0"/>
        <pt x="382" y="1075" on="0"/>
        <pt x="420" y="1075" on="0"/>
        <pt x="426" y="1077" on="1"/>
        <pt x="440" y="1073" on="1"/>
        <pt x="445" y="1087" on="0"/>
        <pt x="460" y="1096" on="1"/>
        <pt x="487" y="1112" on="0"/>
      </contour>
    </TTGlyph>
    <TTGlyph name="asterisk" xMin="84" yMin="715" xMax="817" yMax="1544">
      <contour>
        <pt x="537" y="1120" on="1"/>
        <pt x="482" y="1120" on="0"/>
        <pt x="473" y="1114" on="1"/>
        <pt x="474" y="1088" on="0"/>
        <pt x="631" y="777" on="0"/>
        <pt x="631" y="742" on="0"/>
        <pt x="613" y="725" on="0"/>
        <pt x="581" y="725" on="0"/>
        <pt x="559" y="760" on="0"/>
        <pt x="546" y="827" on="0"/>
        <pt x="545" y="831" on="1"/>
        <pt x="490" y="962" on="0"/>
        <pt x="434" y="1065" on="1"/>
        <pt x="425" y="1053" on="0"/>
        <pt x="410" y="1012" on="1"/>
        <pt x="330" y="823" on="1"/>
        <pt x="326" y="813" on="0"/>
        <pt x="318" y="790" on="1"/>
        <pt x="301" y="743" on="0"/>
        <pt x="287" y="719" on="1"/>
        <pt x="260" y="715" on="1"/>
        <pt x="231" y="745" on="1"/>
        <pt x="231" y="768" on="0"/>
        <pt x="385" y="1071" on="0"/>
        <pt x="393" y="1118" on="1"/>
        <pt x="381" y="1122" on="0"/>
        <pt x="371" y="1122" on="1"/>
        <pt x="139" y="1122" on="1"/>
        <pt x="106" y="1120" on="1"/>
        <pt x="84" y="1120" on="0"/>
        <pt x="84" y="1153" on="1"/>
        <pt x="84" y="1163" on="0"/>
        <pt x="97" y="1178" on="0"/>
        <pt x="106" y="1178" on="1"/>
        <pt x="383" y="1176" on="1"/>
        <pt x="387" y="1180" on="1"/>
        <pt x="365" y="1220" on="0"/>
        <pt x="238" y="1490" on="0"/>
        <pt x="238" y="1503" on="1"/>
        <pt x="238" y="1526" on="0"/>
        <pt x="270" y="1526" on="1"/>
        <pt x="284" y="1526" on="0"/>
        <pt x="343" y="1383" on="0"/>
        <pt x="408" y="1225" on="0"/>
        <pt x="428" y="1212" on="1"/>
        <pt x="437" y="1228" on="0"/>
        <pt x="466" y="1316" on="1"/>
        <pt x="540" y="1544" on="0"/>
        <pt x="575" y="1544" on="1"/>
        <pt x="586" y="1544" on="0"/>
        <pt x="608" y="1523" on="0"/>
        <pt x="608" y="1500" on="0"/>
        <pt x="582" y="1458" on="1"/>
        <pt x="558" y="1410" on="0"/>
        <pt x="495" y="1218" on="0"/>
        <pt x="477" y="1178" on="1"/>
        <pt x="488" y="1167" on="0"/>
        <pt x="602" y="1167" on="1"/>
        <pt x="778" y="1178" on="1"/>
        <pt x="793" y="1178" on="0"/>
        <pt x="817" y="1153" on="0"/>
        <pt x="817" y="1139" on="1"/>
        <pt x="817" y="1110" on="0"/>
        <pt x="770" y="1110" on="1"/>
      </contour>
      <contour>
        <pt x="471" y="1120" on="1"/>
        <pt x="469" y="1120" on="0"/>
        <pt x="469" y="1118" on="1"/>
        <pt x="471" y="1118" on="1"/>
      </contour>
    </TTGlyph>
    <TTGlyph name="at" xMin="92" yMin="39" xMax="944" yMax="1833">
      <contour>
        <pt x="487" y="467" on="1"/>
        <pt x="284" y="467" on="0"/>
        <pt x="284" y="954" on="1"/>
        <pt x="284" y="979" on="1"/>
        <pt x="284" y="1177" on="0"/>
        <pt x="307" y="1286" on="0"/>
        <pt x="337" y="1377" on="0"/>
        <pt x="358" y="1402" on="1"/>
        <pt x="410" y="1464" on="0"/>
        <pt x="491" y="1464" on="1"/>
        <pt x="572" y="1464" on="0"/>
        <pt x="625" y="1405" on="1"/>
        <pt x="657" y="1367" on="0"/>
        <pt x="718" y="793" on="1"/>
        <pt x="728" y="699" on="0"/>
        <pt x="729" y="686" on="1"/>
        <pt x="752" y="676" on="1"/>
        <pt x="778" y="625" on="0"/>
        <pt x="795" y="625" on="1"/>
        <pt x="874" y="625" on="0"/>
        <pt x="874" y="1248" on="0"/>
        <pt x="760" y="1550" on="1"/>
        <pt x="730" y="1630" on="0"/>
        <pt x="694" y="1678" on="1"/>
        <pt x="619" y="1774" on="0"/>
        <pt x="470" y="1774" on="1"/>
        <pt x="323" y="1774" on="0"/>
        <pt x="261" y="1683" on="1"/>
        <pt x="209" y="1606" on="0"/>
        <pt x="196" y="1467" on="1"/>
        <pt x="192" y="1427" on="0"/>
        <pt x="186" y="1322" on="0"/>
        <pt x="184" y="1306" on="0"/>
        <pt x="179" y="1259" on="0"/>
        <pt x="176" y="1247" on="1"/>
        <pt x="167" y="1203" on="0"/>
        <pt x="160" y="1186" on="1"/>
        <pt x="164" y="1132" on="0"/>
        <pt x="164" y="1060" on="0"/>
        <pt x="156" y="1040" on="1"/>
        <pt x="160" y="1032" on="0"/>
        <pt x="160" y="973" on="0"/>
        <pt x="166" y="872" on="0"/>
        <pt x="171" y="819" on="0"/>
        <pt x="186" y="682" on="0"/>
        <pt x="192" y="628" on="0"/>
        <pt x="199" y="525" on="0"/>
        <pt x="203" y="459" on="0"/>
        <pt x="216" y="373" on="0"/>
        <pt x="226" y="339" on="1"/>
        <pt x="252" y="257" on="0"/>
        <pt x="373" y="86" on="0"/>
        <pt x="439" y="86" on="1"/>
        <pt x="551" y="86" on="0"/>
        <pt x="721" y="161" on="0"/>
        <pt x="803" y="248" on="1"/>
        <pt x="814" y="259" on="0"/>
        <pt x="822" y="267" on="1"/>
        <pt x="840" y="285" on="0"/>
        <pt x="848" y="287" on="1"/>
        <pt x="866" y="268" on="1"/>
        <pt x="852" y="217" on="0"/>
        <pt x="750" y="127" on="0"/>
        <pt x="686" y="99" on="1"/>
        <pt x="549" y="39" on="0"/>
        <pt x="446" y="39" on="1"/>
        <pt x="297" y="39" on="0"/>
        <pt x="187" y="279" on="1"/>
        <pt x="185" y="304" on="0"/>
        <pt x="163" y="350" on="0"/>
        <pt x="160" y="360" on="1"/>
        <pt x="138" y="422" on="0"/>
        <pt x="92" y="919" on="0"/>
        <pt x="92" y="1024" on="1"/>
        <pt x="92" y="1435" on="0"/>
        <pt x="174" y="1650" on="1"/>
        <pt x="217" y="1764" on="0"/>
        <pt x="310" y="1804" on="1"/>
        <pt x="377" y="1833" on="0"/>
        <pt x="534" y="1833" on="0"/>
        <pt x="628" y="1806" on="0"/>
        <pt x="699" y="1767" on="0"/>
        <pt x="761" y="1694" on="0"/>
        <pt x="803" y="1632" on="0"/>
        <pt x="842" y="1528" on="0"/>
        <pt x="864" y="1457" on="0"/>
        <pt x="876" y="1396" on="1"/>
        <pt x="908" y="1234" on="0"/>
        <pt x="915" y="1167" on="0"/>
        <pt x="929" y="1078" on="0"/>
        <pt x="933" y="1048" on="0"/>
        <pt x="938" y="1014" on="1"/>
        <pt x="944" y="965" on="0"/>
        <pt x="944" y="903" on="1"/>
        <pt x="944" y="565" on="0"/>
        <pt x="792" y="565" on="1"/>
        <pt x="764" y="565" on="0"/>
        <pt x="704" y="612" on="0"/>
        <pt x="689" y="616" on="1"/>
        <pt x="653" y="528" on="0"/>
        <pt x="570" y="487" on="1"/>
        <pt x="529" y="467" on="0"/>
      </contour>
      <contour>
        <pt x="542" y="1400" on="0"/>
        <pt x="511" y="1409" on="0"/>
        <pt x="467" y="1409" on="0"/>
        <pt x="427" y="1385" on="0"/>
        <pt x="401" y="1349" on="0"/>
        <pt x="383" y="1293" on="0"/>
        <pt x="373" y="1242" on="0"/>
        <pt x="370" y="1208" on="1"/>
        <pt x="366" y="1162" on="0"/>
        <pt x="366" y="1094" on="1"/>
        <pt x="366" y="831" on="1"/>
        <pt x="366" y="691" on="0"/>
        <pt x="395" y="602" on="0"/>
        <pt x="410" y="577" on="1"/>
        <pt x="439" y="526" on="0"/>
        <pt x="502" y="526" on="1"/>
        <pt x="537" y="526" on="0"/>
        <pt x="607" y="607" on="0"/>
        <pt x="648" y="709" on="0"/>
        <pt x="648" y="745" on="1"/>
        <pt x="648" y="899" on="1"/>
        <pt x="648" y="933" on="0"/>
        <pt x="642" y="996" on="0"/>
        <pt x="640" y="1026" on="0"/>
        <pt x="632" y="1074" on="0"/>
        <pt x="629" y="1097" on="0"/>
        <pt x="619" y="1151" on="0"/>
        <pt x="617" y="1159" on="1"/>
        <pt x="608" y="1193" on="0"/>
        <pt x="592" y="1294" on="0"/>
        <pt x="587" y="1319" on="0"/>
        <pt x="577" y="1357" on="0"/>
        <pt x="563" y="1378" on="0"/>
      </contour>
    </TTGlyph>
    <TTGlyph name="atilde" xMin="82" yMin="-18" xMax="601" yMax="1659">
      <component glyphName="tilde" x="58" y="459" flags="0x1004"/>
      <component glyphName="a" x="0" y="0" flags="0x1204"/>
    </TTGlyph>
    <TTGlyph name="b" xMin="102" yMin="-23" xMax="422" yMax="1382">
      <contour>
        <pt x="121" y="1329" on="1"/>
        <pt x="121" y="1382" on="0"/>
        <pt x="164" y="1382" on="1"/>
        <pt x="192" y="1382" on="0"/>
        <pt x="347" y="1334" on="0"/>
        <pt x="348" y="1315" on="1"/>
        <pt x="346" y="1311" on="0"/>
        <pt x="346" y="1309" on="1"/>
        <pt x="384" y="1249" on="0"/>
        <pt x="410" y="1128" on="0"/>
        <pt x="410" y="885" on="0"/>
        <pt x="377" y="795" on="1"/>
        <pt x="379" y="795" on="1"/>
        <pt x="371" y="776" on="0"/>
        <pt x="324" y="707" on="0"/>
        <pt x="319" y="698" on="1"/>
        <pt x="359" y="667" on="0"/>
        <pt x="406" y="552" on="0"/>
        <pt x="417" y="462" on="0"/>
        <pt x="420" y="399" on="1"/>
        <pt x="422" y="346" on="1"/>
        <pt x="422" y="317" on="1"/>
        <pt x="422" y="121" on="0"/>
        <pt x="300" y="27" on="1"/>
        <pt x="235" y="-23" on="0"/>
        <pt x="143" y="-23" on="1"/>
        <pt x="125" y="-23" on="0"/>
        <pt x="104" y="2" on="0"/>
        <pt x="102" y="40" on="0"/>
        <pt x="102" y="84" on="1"/>
        <pt x="123" y="516" on="1"/>
        <pt x="119" y="698" on="1"/>
        <pt x="131" y="1188" on="1"/>
        <pt x="131" y="1266" on="0"/>
        <pt x="129" y="1307" on="1"/>
        <pt x="121" y="1317" on="1"/>
      </contour>
      <contour>
        <pt x="172" y="150" on="1"/>
        <pt x="174" y="57" on="1"/>
        <pt x="250" y="57" on="0"/>
        <pt x="358" y="200" on="0"/>
        <pt x="358" y="279" on="1"/>
        <pt x="358" y="282" on="1"/>
        <pt x="359" y="300" on="0"/>
        <pt x="359" y="334" on="0"/>
        <pt x="356" y="417" on="0"/>
        <pt x="346" y="486" on="0"/>
        <pt x="321" y="570" on="0"/>
        <pt x="304" y="599" on="1"/>
        <pt x="262" y="668" on="0"/>
        <pt x="188" y="668" on="1"/>
        <pt x="178" y="515" on="0"/>
        <pt x="178" y="280" on="0"/>
        <pt x="184" y="248" on="1"/>
        <pt x="172" y="226" on="0"/>
      </contour>
      <contour>
        <pt x="184" y="934" on="1"/>
        <pt x="182" y="791" on="1"/>
        <pt x="182" y="766" on="1"/>
        <pt x="190" y="739" on="1"/>
        <pt x="205" y="739" on="1"/>
        <pt x="340" y="739" on="0"/>
        <pt x="340" y="1012" on="1"/>
        <pt x="340" y="1049" on="0"/>
        <pt x="334" y="1139" on="1"/>
        <pt x="330" y="1143" on="1"/>
        <pt x="317" y="1313" on="0"/>
        <pt x="227" y="1313" on="1"/>
        <pt x="182" y="1313" on="0"/>
        <pt x="182" y="1044" on="1"/>
      </contour>
    </TTGlyph>
    <TTGlyph name="backslash" xMin="82" yMin="-6" xMax="475" yMax="1532">
      <contour>
        <pt x="82" y="1505" on="1"/>
        <pt x="82" y="1532" on="0"/>
        <pt x="113" y="1532" on="1"/>
        <pt x="127" y="1532" on="0"/>
        <pt x="146" y="1450" on="0"/>
        <pt x="267" y="989" on="0"/>
        <pt x="410" y="355" on="0"/>
        <pt x="432" y="272" on="1"/>
        <pt x="475" y="103" on="0"/>
        <pt x="475" y="31" on="1"/>
        <pt x="475" y="7" on="0"/>
        <pt x="455" y="-6" on="1"/>
        <pt x="430" y="-4" on="0"/>
        <pt x="412" y="45" on="0"/>
        <pt x="405" y="71" on="0"/>
        <pt x="397" y="114" on="0"/>
        <pt x="395" y="121" on="1"/>
        <pt x="354" y="299" on="1"/>
        <pt x="335" y="382" on="0"/>
        <pt x="255" y="715" on="0"/>
        <pt x="232" y="815" on="1"/>
        <pt x="167" y="1090" on="0"/>
        <pt x="122" y="1323" on="0"/>
        <pt x="111" y="1368" on="1"/>
        <pt x="82" y="1488" on="0"/>
      </contour>
    </TTGlyph>
    <TTGlyph name="bar" xMin="127" yMin="-88" xMax="238" yMax="1552">
      <contour>
        <pt x="193" y="2" on="1"/>
        <pt x="186" y="-68" on="1"/>
        <pt x="186" y="-88" on="0"/>
        <pt x="134" y="-88" on="0"/>
        <pt x="127" y="-82" on="0"/>
        <pt x="127" y="19" on="0"/>
        <pt x="152" y="380" on="0"/>
        <pt x="152" y="639" on="0"/>
        <pt x="184" y="1314" on="0"/>
        <pt x="184" y="1498" on="0"/>
        <pt x="185" y="1511" on="0"/>
        <pt x="189" y="1532" on="0"/>
        <pt x="193" y="1538" on="1"/>
        <pt x="204" y="1552" on="0"/>
        <pt x="225" y="1552" on="1"/>
        <pt x="238" y="1552" on="0"/>
        <pt x="238" y="1530" on="1"/>
        <pt x="238" y="1340" on="0"/>
        <pt x="199" y="563" on="0"/>
        <pt x="199" y="144" on="0"/>
        <pt x="193" y="51" on="1"/>
      </contour>
    </TTGlyph>
    <TTGlyph name="braceleft" xMin="37" yMin="-51" xMax="299" yMax="1544">
      <contour>
        <pt x="90" y="188" on="1"/>
        <pt x="96" y="403" on="1"/>
        <pt x="104" y="645" on="1"/>
        <pt x="104" y="734" on="0"/>
        <pt x="45" y="739" on="1"/>
        <pt x="37" y="742" on="0"/>
        <pt x="37" y="773" on="0"/>
        <pt x="53" y="776" on="1"/>
        <pt x="104" y="776" on="0"/>
        <pt x="104" y="872" on="1"/>
        <pt x="90" y="1305" on="1"/>
        <pt x="90" y="1420" on="0"/>
        <pt x="162" y="1544" on="0"/>
        <pt x="221" y="1544" on="1"/>
        <pt x="243" y="1544" on="0"/>
        <pt x="299" y="1522" on="0"/>
        <pt x="299" y="1509" on="1"/>
        <pt x="299" y="1487" on="0"/>
        <pt x="266" y="1487" on="1"/>
        <pt x="225" y="1495" on="1"/>
        <pt x="152" y="1495" on="0"/>
        <pt x="152" y="1296" on="1"/>
        <pt x="152" y="1044" on="1"/>
        <pt x="158" y="887" on="1"/>
        <pt x="158" y="838" on="0"/>
        <pt x="137" y="776" on="0"/>
        <pt x="104" y="758" on="1"/>
        <pt x="137" y="741" on="0"/>
        <pt x="158" y="680" on="0"/>
        <pt x="158" y="631" on="1"/>
        <pt x="152" y="420" on="1"/>
        <pt x="152" y="197" on="1"/>
        <pt x="152" y="-2" on="0"/>
        <pt x="225" y="-2" on="1"/>
        <pt x="284" y="-2" on="0"/>
        <pt x="299" y="-19" on="0"/>
        <pt x="299" y="-29" on="1"/>
        <pt x="299" y="-51" on="0"/>
        <pt x="162" y="-51" on="0"/>
        <pt x="90" y="73" on="0"/>
      </contour>
    </TTGlyph>
    <TTGlyph name="braceright" xMin="37" yMin="-51" xMax="299" yMax="1544">
      <contour>
        <pt x="246" y="1305" on="1"/>
        <pt x="240" y="1090" on="1"/>
        <pt x="231" y="848" on="1"/>
        <pt x="231" y="759" on="0"/>
        <pt x="291" y="754" on="1"/>
        <pt x="299" y="751" on="0"/>
        <pt x="299" y="720" on="0"/>
        <pt x="283" y="717" on="1"/>
        <pt x="231" y="717" on="0"/>
        <pt x="231" y="621" on="1"/>
        <pt x="246" y="188" on="1"/>
        <pt x="246" y="73" on="0"/>
        <pt x="174" y="-51" on="0"/>
        <pt x="115" y="-51" on="1"/>
        <pt x="90" y="-51" on="0"/>
        <pt x="37" y="-35" on="0"/>
        <pt x="37" y="-23" on="1"/>
        <pt x="37" y="0" on="0"/>
        <pt x="70" y="0" on="1"/>
        <pt x="111" y="-2" on="1"/>
        <pt x="184" y="-2" on="0"/>
        <pt x="184" y="197" on="1"/>
        <pt x="184" y="449" on="1"/>
        <pt x="178" y="606" on="1"/>
        <pt x="178" y="656" on="0"/>
        <pt x="198" y="717" on="0"/>
        <pt x="231" y="735" on="1"/>
        <pt x="198" y="752" on="0"/>
        <pt x="178" y="812" on="0"/>
        <pt x="178" y="862" on="1"/>
        <pt x="184" y="1073" on="1"/>
        <pt x="184" y="1296" on="1"/>
        <pt x="184" y="1495" on="0"/>
        <pt x="111" y="1495" on="1"/>
        <pt x="80" y="1495" on="1"/>
        <pt x="37" y="1495" on="0"/>
        <pt x="37" y="1516" on="1"/>
        <pt x="37" y="1528" on="0"/>
        <pt x="90" y="1544" on="0"/>
        <pt x="115" y="1544" on="1"/>
        <pt x="174" y="1544" on="0"/>
        <pt x="246" y="1420" on="0"/>
      </contour>
    </TTGlyph>
    <TTGlyph name="bracketleft" xMin="88" yMin="-88" xMax="440" yMax="1552">
      <contour>
        <pt x="408" y="1489" on="1"/>
        <pt x="293" y="1501" on="1"/>
        <pt x="231" y="1501" on="0"/>
        <pt x="231" y="1458" on="1"/>
        <pt x="231" y="1163" on="0"/>
        <pt x="180" y="403" on="0"/>
        <pt x="164" y="89" on="0"/>
        <pt x="152" y="51" on="1"/>
        <pt x="152" y="2" on="1"/>
        <pt x="143" y="-14" on="1"/>
        <pt x="150" y="-15" on="0"/>
        <pt x="210" y="-18" on="1"/>
        <pt x="354" y="-25" on="0"/>
        <pt x="354" y="-68" on="1"/>
        <pt x="354" y="-88" on="0"/>
        <pt x="263" y="-88" on="0"/>
        <pt x="88" y="-61" on="0"/>
        <pt x="88" y="-35" on="1"/>
        <pt x="88" y="50" on="0"/>
        <pt x="131" y="386" on="0"/>
        <pt x="131" y="640" on="0"/>
        <pt x="184" y="1312" on="0"/>
        <pt x="184" y="1481" on="1"/>
        <pt x="184" y="1491" on="0"/>
        <pt x="166" y="1520" on="0"/>
        <pt x="164" y="1528" on="1"/>
        <pt x="205" y="1552" on="1"/>
        <pt x="440" y="1552" on="0"/>
        <pt x="440" y="1511" on="1"/>
        <pt x="440" y="1501" on="0"/>
        <pt x="419" y="1489" on="0"/>
      </contour>
    </TTGlyph>
    <TTGlyph name="bracketright" xMin="78" yMin="-88" xMax="430" yMax="1552">
      <contour>
        <pt x="252" y="1499" on="1"/>
        <pt x="137" y="1491" on="1"/>
        <pt x="78" y="1491" on="0"/>
        <pt x="78" y="1511" on="1"/>
        <pt x="78" y="1537" on="0"/>
        <pt x="185" y="1548" on="0"/>
        <pt x="214" y="1550" on="1"/>
        <pt x="264" y="1552" on="0"/>
        <pt x="313" y="1552" on="1"/>
        <pt x="354" y="1528" on="1"/>
        <pt x="352" y="1520" on="0"/>
        <pt x="334" y="1491" on="0"/>
        <pt x="334" y="1481" on="1"/>
        <pt x="334" y="1319" on="0"/>
        <pt x="389" y="672" on="0"/>
        <pt x="389" y="419" on="0"/>
        <pt x="430" y="56" on="0"/>
        <pt x="430" y="-35" on="1"/>
        <pt x="430" y="-61" on="0"/>
        <pt x="255" y="-88" on="0"/>
        <pt x="164" y="-88" on="0"/>
        <pt x="164" y="-68" on="1"/>
        <pt x="164" y="-25" on="0"/>
        <pt x="308" y="-18" on="1"/>
        <pt x="368" y="-15" on="0"/>
        <pt x="375" y="-14" on="1"/>
        <pt x="367" y="2" on="1"/>
        <pt x="367" y="51" on="1"/>
        <pt x="351" y="86" on="0"/>
        <pt x="305" y="993" on="0"/>
        <pt x="298" y="1240" on="0"/>
        <pt x="287" y="1412" on="0"/>
        <pt x="287" y="1480" on="0"/>
        <pt x="273" y="1499" on="0"/>
      </contour>
    </TTGlyph>
    <TTGlyph name="breve" xMin="109" yMin="891" xMax="412" yMax="1118">
      <contour>
        <pt x="392" y="1110" on="0"/>
        <pt x="412" y="1093" on="0"/>
        <pt x="412" y="1071" on="0"/>
        <pt x="401" y="1049" on="1"/>
        <pt x="406" y="1034" on="1"/>
        <pt x="401" y="1024" on="0"/>
        <pt x="379" y="973" on="0"/>
        <pt x="369" y="953" on="0"/>
        <pt x="345" y="918" on="0"/>
        <pt x="333" y="911" on="1"/>
        <pt x="299" y="891" on="0"/>
        <pt x="217" y="891" on="0"/>
        <pt x="156" y="929" on="0"/>
        <pt x="140" y="961" on="1"/>
        <pt x="109" y="1023" on="0"/>
        <pt x="109" y="1100" on="1"/>
        <pt x="131" y="1118" on="1"/>
        <pt x="145" y="1117" on="0"/>
        <pt x="150" y="1086" on="1"/>
        <pt x="170" y="978" on="0"/>
        <pt x="203" y="954" on="1"/>
        <pt x="225" y="938" on="1"/>
        <pt x="276" y="938" on="1"/>
        <pt x="303" y="938" on="0"/>
        <pt x="346" y="1013" on="0"/>
        <pt x="346" y="1042" on="1"/>
        <pt x="344" y="1071" on="1"/>
        <pt x="344" y="1110" on="0"/>
        <pt x="381" y="1110" on="1"/>
      </contour>
    </TTGlyph>
    <TTGlyph name="brokenbar" xMin="145" yMin="-47" xMax="238" yMax="1552">
      <contour>
        <pt x="238" y="1530" on="1"/>
        <pt x="227" y="1214" on="1"/>
        <pt x="227" y="1057" on="0"/>
        <pt x="221" y="997" on="1"/>
        <pt x="221" y="948" on="1"/>
        <pt x="215" y="879" on="1"/>
        <pt x="215" y="858" on="0"/>
        <pt x="178" y="858" on="0"/>
        <pt x="170" y="864" on="0"/>
        <pt x="170" y="874" on="1"/>
        <pt x="184" y="1487" on="1"/>
        <pt x="184" y="1525" on="0"/>
        <pt x="190" y="1534" on="1"/>
        <pt x="204" y="1552" on="0"/>
        <pt x="225" y="1552" on="1"/>
        <pt x="238" y="1552" on="0"/>
      </contour>
      <contour>
        <pt x="213" y="604" on="1"/>
        <pt x="203" y="268" on="1"/>
        <pt x="203" y="140" on="0"/>
        <pt x="197" y="92" on="1"/>
        <pt x="197" y="43" on="1"/>
        <pt x="190" y="-27" on="1"/>
        <pt x="190" y="-45" on="0"/>
        <pt x="177" y="-47" on="0"/>
        <pt x="152" y="-47" on="0"/>
        <pt x="145" y="-41" on="0"/>
        <pt x="145" y="-31" on="1"/>
        <pt x="156" y="369" on="1"/>
        <pt x="160" y="561" on="1"/>
        <pt x="160" y="610" on="0"/>
        <pt x="187" y="627" on="0"/>
        <pt x="207" y="627" on="0"/>
        <pt x="209" y="626" on="1"/>
        <pt x="213" y="624" on="0"/>
      </contour>
    </TTGlyph>
    <TTGlyph name="bullet" xMin="301" yMin="571" xMax="573" yMax="858">
      <contour>
        <pt x="373" y="571" on="0"/>
        <pt x="301" y="653" on="0"/>
        <pt x="301" y="749" on="0"/>
        <pt x="364" y="858" on="0"/>
        <pt x="490" y="858" on="0"/>
        <pt x="573" y="791" on="0"/>
        <pt x="573" y="715" on="0"/>
        <pt x="561" y="664" on="0"/>
        <pt x="546" y="636" on="1"/>
        <pt x="514" y="571" on="0"/>
        <pt x="426" y="571" on="1"/>
      </contour>
    </TTGlyph>
    <TTGlyph name="c" xMin="96" yMin="-33" xMax="465" yMax="1364">
      <contour>
        <pt x="174" y="827" on="1"/>
        <pt x="166" y="414" on="1"/>
        <pt x="166" y="241" on="0"/>
        <pt x="199" y="166" on="1"/>
        <pt x="237" y="78" on="0"/>
        <pt x="296" y="52" on="1"/>
        <pt x="334" y="35" on="0"/>
        <pt x="413" y="35" on="0"/>
        <pt x="434" y="53" on="1"/>
        <pt x="465" y="53" on="0"/>
        <pt x="465" y="31" on="1"/>
        <pt x="465" y="15" on="0"/>
        <pt x="410" y="-24" on="0"/>
        <pt x="387" y="-33" on="1"/>
        <pt x="319" y="-33" on="1"/>
        <pt x="306" y="-26" on="0"/>
        <pt x="236" y="-4" on="0"/>
        <pt x="177" y="39" on="0"/>
        <pt x="125" y="138" on="0"/>
        <pt x="114" y="204" on="1"/>
        <pt x="96" y="312" on="0"/>
        <pt x="96" y="446" on="1"/>
        <pt x="96" y="680" on="1"/>
        <pt x="96" y="953" on="0"/>
        <pt x="116" y="1054" on="1"/>
        <pt x="156" y="1259" on="0"/>
        <pt x="225" y="1313" on="1"/>
        <pt x="243" y="1327" on="0"/>
        <pt x="318" y="1356" on="0"/>
        <pt x="332" y="1364" on="1"/>
        <pt x="414" y="1364" on="1"/>
        <pt x="416" y="1364" on="0"/>
        <pt x="423" y="1362" on="0"/>
        <pt x="427" y="1361" on="0"/>
        <pt x="434" y="1359" on="0"/>
        <pt x="437" y="1358" on="0"/>
        <pt x="443" y="1355" on="0"/>
        <pt x="444" y="1354" on="1"/>
        <pt x="453" y="1345" on="0"/>
        <pt x="453" y="1333" on="1"/>
        <pt x="426" y="1303" on="1"/>
        <pt x="340" y="1303" on="1"/>
        <pt x="298" y="1303" on="0"/>
        <pt x="236" y="1224" on="0"/>
        <pt x="203" y="1116" on="0"/>
        <pt x="193" y="1045" on="1"/>
        <pt x="178" y="938" on="0"/>
        <pt x="178" y="838" on="1"/>
      </contour>
    </TTGlyph>
    <TTGlyph name="cacute" xMin="96" yMin="-33" xMax="514" yMax="1718">
      <component glyphName="acute" x="117" y="170" flags="0x1004"/>
      <component glyphName="c" x="0" y="0" flags="0x1204"/>
    </TTGlyph>
    <TTGlyph name="caron" xMin="92" yMin="950" xMax="373" yMax="1333">
      <contour>
        <pt x="309" y="1317" on="1"/>
        <pt x="336" y="1333" on="1"/>
        <pt x="373" y="1327" on="0"/>
        <pt x="373" y="1309" on="1"/>
        <pt x="373" y="1302" on="0"/>
        <pt x="365" y="1286" on="1"/>
        <pt x="367" y="1276" on="1"/>
        <pt x="352" y="1245" on="1"/>
        <pt x="354" y="1233" on="1"/>
        <pt x="347" y="1207" on="0"/>
        <pt x="330" y="1158" on="1"/>
        <pt x="293" y="1057" on="0"/>
        <pt x="293" y="950" on="0"/>
        <pt x="233" y="950" on="0"/>
        <pt x="94" y="1251" on="0"/>
        <pt x="92" y="1296" on="1"/>
        <pt x="129" y="1323" on="1"/>
        <pt x="164" y="1276" on="1"/>
        <pt x="167" y="1242" on="0"/>
        <pt x="248" y="1015" on="0"/>
        <pt x="250" y="1010" on="1"/>
        <pt x="299" y="1193" on="0"/>
      </contour>
    </TTGlyph>
    <TTGlyph name="ccaron" xMin="96" yMin="-33" xMax="465" yMax="1861">
      <component glyphName="caron" x="7" y="528" flags="0x1004"/>
      <component glyphName="c" x="0" y="0" flags="0x1204"/>
    </TTGlyph>
    <TTGlyph name="ccedilla" xMin="96" yMin="-488" xMax="496" yMax="1364">
      <component glyphName="cedilla" x="140" y="-9" flags="0x1004"/>
      <component glyphName="c" x="0" y="0" flags="0x1204"/>
    </TTGlyph>
    <TTGlyph name="ccircumflex" xMin="96" yMin="-33" xMax="508" yMax="1861">
      <component glyphName="circumflex" x="129" y="528" flags="0x1004"/>
      <component glyphName="c" x="0" y="0" flags="0x1204"/>
    </TTGlyph>
    <TTGlyph name="cdotaccent" xMin="96" yMin="-33" xMax="465" yMax="1583">
      <component glyphName="uni0307" x="87" y="326" flags="0x1004"/>
      <component glyphName="c" x="0" y="0" flags="0x1204"/>
    </TTGlyph>
    <TTGlyph name="cedilla" xMin="113" yMin="-479" xMax="356" yMax="-8">
      <contour>
        <pt x="250" y="-190" on="1"/>
        <pt x="195" y="-197" on="1"/>
        <pt x="164" y="-197" on="0"/>
        <pt x="139" y="-156" on="1"/>
        <pt x="156" y="-117" on="0"/>
        <pt x="156" y="-39" on="1"/>
        <pt x="156" y="-16" on="1"/>
        <pt x="215" y="-8" on="1"/>
        <pt x="207" y="-55" on="0"/>
        <pt x="207" y="-111" on="1"/>
        <pt x="356" y="-121" on="0"/>
        <pt x="356" y="-317" on="1"/>
        <pt x="356" y="-365" on="0"/>
        <pt x="263" y="-479" on="0"/>
        <pt x="201" y="-479" on="1"/>
        <pt x="172" y="-479" on="0"/>
        <pt x="113" y="-450" on="0"/>
        <pt x="113" y="-403" on="0"/>
        <pt x="135" y="-403" on="1"/>
        <pt x="148" y="-403" on="0"/>
        <pt x="188" y="-424" on="0"/>
        <pt x="226" y="-424" on="0"/>
        <pt x="270" y="-366" on="0"/>
        <pt x="270" y="-340" on="1"/>
        <pt x="264" y="-311" on="1"/>
        <pt x="264" y="-305" on="0"/>
        <pt x="282" y="-294" on="0"/>
        <pt x="283" y="-293" on="1"/>
        <pt x="283" y="-240" on="0"/>
        <pt x="267" y="-203" on="0"/>
      </contour>
    </TTGlyph>
    <TTGlyph name="cent" xMin="94" yMin="12" xMax="573" yMax="1436">
      <contour>
        <pt x="365" y="221" on="1"/>
        <pt x="371" y="27" on="1"/>
        <pt x="371" y="15" on="0"/>
        <pt x="354" y="9" on="0"/>
        <pt x="338" y="19" on="0"/>
        <pt x="338" y="25" on="1"/>
        <pt x="334" y="23" on="1"/>
        <pt x="330" y="137" on="0"/>
        <pt x="330" y="203" on="1"/>
        <pt x="330" y="330" on="1"/>
        <pt x="214" y="377" on="0"/>
        <pt x="186" y="403" on="1"/>
        <pt x="130" y="455" on="0"/>
        <pt x="121" y="512" on="1"/>
        <pt x="94" y="632" on="0"/>
        <pt x="94" y="842" on="1"/>
        <pt x="94" y="1154" on="0"/>
        <pt x="258" y="1243" on="1"/>
        <pt x="248" y="1370" on="1"/>
        <pt x="248" y="1436" on="0"/>
        <pt x="274" y="1436" on="1"/>
        <pt x="287" y="1427" on="1"/>
        <pt x="285" y="1409" on="0"/>
        <pt x="285" y="1314" on="0"/>
        <pt x="295" y="1239" on="1"/>
        <pt x="303" y="1236" on="0"/>
        <pt x="373" y="1214" on="0"/>
        <pt x="429" y="1195" on="0"/>
        <pt x="477" y="1157" on="0"/>
        <pt x="477" y="1142" on="1"/>
        <pt x="477" y="1108" on="0"/>
        <pt x="441" y="1108" on="0"/>
        <pt x="408" y="1157" on="0"/>
        <pt x="397" y="1169" on="0"/>
        <pt x="348" y="1184" on="0"/>
        <pt x="340" y="1194" on="1"/>
        <pt x="303" y="1194" on="1"/>
        <pt x="301" y="1198" on="1"/>
        <pt x="301" y="1067" on="0"/>
        <pt x="362" y="561" on="0"/>
        <pt x="362" y="430" on="1"/>
        <pt x="360" y="401" on="1"/>
        <pt x="360" y="383" on="0"/>
        <pt x="377" y="369" on="1"/>
        <pt x="455" y="369" on="0"/>
        <pt x="504" y="426" on="1"/>
        <pt x="524" y="449" on="0"/>
        <pt x="551" y="489" on="1"/>
        <pt x="573" y="489" on="0"/>
        <pt x="573" y="412" on="0"/>
        <pt x="430" y="326" on="0"/>
        <pt x="385" y="326" on="1"/>
        <pt x="367" y="326" on="1"/>
      </contour>
      <contour>
        <pt x="162" y="977" on="1"/>
        <pt x="145" y="837" on="0"/>
        <pt x="145" y="788" on="1"/>
        <pt x="145" y="397" on="0"/>
        <pt x="307" y="397" on="1"/>
        <pt x="315" y="401" on="1"/>
        <pt x="315" y="550" on="0"/>
        <pt x="283" y="870" on="1"/>
        <pt x="270" y="1085" on="0"/>
        <pt x="250" y="1161" on="1"/>
        <pt x="211" y="1155" on="0"/>
        <pt x="158" y="994" on="0"/>
      </contour>
    </TTGlyph>
    <TTGlyph name="circumflex" xMin="98" yMin="950" xMax="379" yMax="1333">
      <contour>
        <pt x="342" y="950" on="1"/>
        <pt x="315" y="967" on="1"/>
        <pt x="305" y="1091" on="0"/>
        <pt x="256" y="1274" on="1"/>
        <pt x="230" y="1208" on="0"/>
        <pt x="172" y="1028" on="0"/>
        <pt x="170" y="1008" on="1"/>
        <pt x="135" y="961" on="1"/>
        <pt x="98" y="987" on="1"/>
        <pt x="100" y="1032" on="0"/>
        <pt x="239" y="1333" on="0"/>
        <pt x="299" y="1333" on="0"/>
        <pt x="299" y="1250" on="0"/>
        <pt x="318" y="1173" on="0"/>
        <pt x="353" y="1077" on="0"/>
        <pt x="360" y="1051" on="1"/>
        <pt x="358" y="1038" on="1"/>
        <pt x="373" y="1008" on="1"/>
        <pt x="371" y="997" on="1"/>
        <pt x="379" y="981" on="0"/>
        <pt x="379" y="975" on="1"/>
        <pt x="379" y="956" on="0"/>
      </contour>
    </TTGlyph>
    <TTGlyph name="colon" xMin="113" yMin="201" xMax="236" yMax="1079">
      <contour>
        <pt x="140" y="201" on="0"/>
        <pt x="113" y="232" on="0"/>
        <pt x="113" y="270" on="0"/>
        <pt x="146" y="305" on="0"/>
        <pt x="184" y="305" on="0"/>
        <pt x="215" y="270" on="0"/>
        <pt x="215" y="252" on="1"/>
        <pt x="215" y="201" on="0"/>
        <pt x="158" y="201" on="1"/>
      </contour>
      <contour>
        <pt x="160" y="975" on="0"/>
        <pt x="133" y="1006" on="0"/>
        <pt x="133" y="1044" on="0"/>
        <pt x="166" y="1079" on="0"/>
        <pt x="204" y="1079" on="0"/>
        <pt x="236" y="1044" on="0"/>
        <pt x="236" y="1026" on="1"/>
        <pt x="236" y="975" on="0"/>
        <pt x="178" y="975" on="1"/>
      </contour>
    </TTGlyph>
    <TTGlyph name="comma" xMin="100" yMin="-178" xMax="297" yMax="160">
      <contour>
        <pt x="100" y="-162" on="1"/>
        <pt x="104" y="-143" on="1"/>
        <pt x="211" y="-54" on="0"/>
        <pt x="211" y="6" on="1"/>
        <pt x="186" y="20" on="0"/>
        <pt x="152" y="70" on="0"/>
        <pt x="152" y="124" on="0"/>
        <pt x="201" y="160" on="0"/>
        <pt x="229" y="160" on="1"/>
        <pt x="275" y="160" on="0"/>
        <pt x="297" y="100" on="1"/>
        <pt x="293" y="94" on="1"/>
        <pt x="297" y="86" on="0"/>
        <pt x="297" y="36" on="0"/>
        <pt x="247" y="-80" on="0"/>
        <pt x="167" y="-177" on="0"/>
        <pt x="133" y="-178" on="1"/>
      </contour>
    </TTGlyph>
    <TTGlyph name="copyright" xMin="98" yMin="2" xMax="1065" yMax="1788">
      <contour>
        <pt x="120" y="503" on="1"/>
        <pt x="117" y="540" on="0"/>
        <pt x="98" y="870" on="0"/>
        <pt x="98" y="989" on="0"/>
        <pt x="105" y="1123" on="0"/>
        <pt x="128" y="1299" on="0"/>
        <pt x="165" y="1454" on="0"/>
        <pt x="230" y="1608" on="0"/>
        <pt x="272" y="1664" on="1"/>
        <pt x="368" y="1788" on="0"/>
        <pt x="516" y="1788" on="1"/>
        <pt x="677" y="1788" on="0"/>
        <pt x="788" y="1673" on="1"/>
        <pt x="898" y="1559" on="0"/>
        <pt x="956" y="1396" on="1"/>
        <pt x="1018" y="1218" on="0"/>
        <pt x="1036" y="1093" on="1"/>
        <pt x="1065" y="892" on="0"/>
        <pt x="1065" y="756" on="1"/>
        <pt x="1065" y="2" on="0"/>
        <pt x="565" y="2" on="1"/>
        <pt x="300" y="2" on="0"/>
        <pt x="200" y="173" on="1"/>
        <pt x="137" y="279" on="0"/>
      </contour>
      <contour>
        <pt x="975" y="475" on="1"/>
        <pt x="997" y="588" on="1"/>
        <pt x="997" y="893" on="1"/>
        <pt x="997" y="939" on="0"/>
        <pt x="960" y="1114" on="0"/>
        <pt x="958" y="1124" on="1"/>
        <pt x="894" y="1524" on="0"/>
        <pt x="672" y="1677" on="1"/>
        <pt x="662" y="1687" on="0"/>
        <pt x="642" y="1697" on="0"/>
        <pt x="622" y="1711" on="0"/>
        <pt x="613" y="1716" on="0"/>
        <pt x="594" y="1726" on="0"/>
        <pt x="582" y="1730" on="0"/>
        <pt x="574" y="1732" on="1"/>
        <pt x="558" y="1737" on="0"/>
        <pt x="541" y="1737" on="1"/>
        <pt x="301" y="1737" on="0"/>
        <pt x="212" y="1354" on="1"/>
        <pt x="170" y="1169" on="0"/>
        <pt x="170" y="940" on="1"/>
        <pt x="170" y="858" on="0"/>
        <pt x="186" y="632" on="0"/>
        <pt x="192" y="524" on="0"/>
        <pt x="198" y="448" on="0"/>
        <pt x="218" y="317" on="0"/>
        <pt x="245" y="241" on="0"/>
        <pt x="297" y="145" on="0"/>
        <pt x="332" y="120" on="1"/>
        <pt x="418" y="57" on="0"/>
        <pt x="638" y="57" on="0"/>
        <pt x="789" y="114" on="0"/>
        <pt x="840" y="170" on="1"/>
        <pt x="932" y="274" on="0"/>
        <pt x="977" y="465" on="1"/>
        <pt x="975" y="469" on="0"/>
      </contour>
      <contour>
        <pt x="674" y="1457" on="0"/>
        <pt x="788" y="1303" on="0"/>
        <pt x="788" y="1247" on="0"/>
        <pt x="762" y="1247" on="1"/>
        <pt x="726" y="1247" on="0"/>
        <pt x="689" y="1329" on="1"/>
        <pt x="675" y="1360" on="0"/>
        <pt x="618" y="1411" on="0"/>
        <pt x="536" y="1411" on="0"/>
        <pt x="470" y="1353" on="0"/>
        <pt x="434" y="1271" on="0"/>
        <pt x="409" y="1150" on="0"/>
        <pt x="400" y="1055" on="0"/>
        <pt x="392" y="938" on="0"/>
        <pt x="389" y="918" on="1"/>
        <pt x="393" y="909" on="1"/>
        <pt x="385" y="882" on="0"/>
        <pt x="385" y="850" on="1"/>
        <pt x="385" y="806" on="1"/>
        <pt x="385" y="574" on="0"/>
        <pt x="430" y="430" on="0"/>
        <pt x="455" y="397" on="1"/>
        <pt x="455" y="391" on="1"/>
        <pt x="479" y="364" on="0"/>
        <pt x="505" y="339" on="0"/>
        <pt x="564" y="309" on="0"/>
        <pt x="636" y="309" on="0"/>
        <pt x="702" y="343" on="0"/>
        <pt x="719" y="364" on="1"/>
        <pt x="764" y="418" on="0"/>
        <pt x="778" y="418" on="1"/>
        <pt x="809" y="418" on="0"/>
        <pt x="809" y="327" on="0"/>
        <pt x="658" y="250" on="0"/>
        <pt x="580" y="250" on="0"/>
        <pt x="529" y="262" on="0"/>
        <pt x="499" y="275" on="0"/>
        <pt x="442" y="305" on="0"/>
        <pt x="428" y="311" on="1"/>
        <pt x="347" y="413" on="0"/>
        <pt x="326" y="544" on="1"/>
        <pt x="311" y="645" on="0"/>
        <pt x="311" y="742" on="1"/>
        <pt x="311" y="864" on="1"/>
        <pt x="311" y="1003" on="0"/>
        <pt x="342" y="1211" on="0"/>
        <pt x="367" y="1292" on="0"/>
        <pt x="407" y="1384" on="0"/>
        <pt x="432" y="1412" on="1"/>
        <pt x="492" y="1477" on="0"/>
        <pt x="571" y="1477" on="1"/>
        <pt x="615" y="1477" on="0"/>
      </contour>
    </TTGlyph>
    <TTGlyph name="currency" xMin="90" yMin="219" xMax="768" yMax="1329">
      <contour>
        <pt x="383" y="1264" on="1"/>
        <pt x="496" y="1264" on="0"/>
        <pt x="604" y="1190" on="1"/>
        <pt x="617" y="1192" on="0"/>
        <pt x="659" y="1261" on="0"/>
        <pt x="709" y="1329" on="0"/>
        <pt x="733" y="1329" on="1"/>
        <pt x="762" y="1298" on="1"/>
        <pt x="760" y="1282" on="0"/>
        <pt x="668" y="1166" on="0"/>
        <pt x="668" y="1134" on="0"/>
        <pt x="758" y="857" on="0"/>
        <pt x="758" y="772" on="1"/>
        <pt x="758" y="659" on="0"/>
        <pt x="708" y="490" on="1"/>
        <pt x="690" y="428" on="0"/>
        <pt x="690" y="367" on="0"/>
        <pt x="729" y="307" on="0"/>
        <pt x="768" y="261" on="0"/>
        <pt x="768" y="248" on="1"/>
        <pt x="768" y="219" on="0"/>
        <pt x="741" y="219" on="1"/>
        <pt x="686" y="219" on="0"/>
        <pt x="686" y="258" on="1"/>
        <pt x="647" y="328" on="0"/>
        <pt x="643" y="334" on="1"/>
        <pt x="550" y="231" on="0"/>
        <pt x="399" y="231" on="1"/>
        <pt x="351" y="231" on="0"/>
        <pt x="254" y="286" on="0"/>
        <pt x="219" y="326" on="1"/>
        <pt x="207" y="326" on="0"/>
        <pt x="196" y="301" on="1"/>
        <pt x="161" y="227" on="0"/>
        <pt x="131" y="227" on="1"/>
        <pt x="107" y="227" on="0"/>
        <pt x="90" y="253" on="0"/>
        <pt x="90" y="279" on="1"/>
        <pt x="90" y="283" on="0"/>
        <pt x="174" y="375" on="0"/>
        <pt x="180" y="395" on="1"/>
        <pt x="145" y="452" on="0"/>
        <pt x="145" y="659" on="0"/>
        <pt x="155" y="835" on="0"/>
        <pt x="191" y="1045" on="0"/>
        <pt x="219" y="1075" on="1"/>
        <pt x="219" y="1097" on="0"/>
        <pt x="121" y="1200" on="0"/>
        <pt x="121" y="1212" on="1"/>
        <pt x="121" y="1235" on="0"/>
        <pt x="168" y="1235" on="0"/>
        <pt x="205" y="1203" on="0"/>
        <pt x="241" y="1150" on="0"/>
        <pt x="252" y="1141" on="1"/>
        <pt x="260" y="1147" on="0"/>
        <pt x="290" y="1179" on="1"/>
        <pt x="370" y="1264" on="0"/>
      </contour>
      <contour>
        <pt x="313" y="1075" on="1"/>
        <pt x="313" y="1030" on="0"/>
        <pt x="284" y="1032" on="1"/>
        <pt x="271" y="1032" on="0"/>
        <pt x="266" y="1024" on="1"/>
        <pt x="248" y="998" on="0"/>
        <pt x="211" y="747" on="0"/>
        <pt x="211" y="683" on="0"/>
        <pt x="215" y="659" on="1"/>
        <pt x="209" y="634" on="0"/>
        <pt x="209" y="580" on="1"/>
        <pt x="209" y="460" on="0"/>
        <pt x="262" y="412" on="1"/>
        <pt x="262" y="346" on="0"/>
        <pt x="365" y="283" on="0"/>
        <pt x="487" y="283" on="0"/>
        <pt x="569" y="334" on="0"/>
        <pt x="621" y="421" on="0"/>
        <pt x="659" y="524" on="0"/>
        <pt x="668" y="582" on="1"/>
        <pt x="686" y="690" on="0"/>
        <pt x="686" y="846" on="0"/>
        <pt x="644" y="1074" on="0"/>
        <pt x="612" y="1094" on="1"/>
        <pt x="594" y="1094" on="0"/>
        <pt x="573" y="1122" on="0"/>
        <pt x="573" y="1141" on="1"/>
        <pt x="552" y="1170" on="0"/>
        <pt x="468" y="1204" on="0"/>
        <pt x="400" y="1204" on="0"/>
        <pt x="298" y="1121" on="0"/>
        <pt x="295" y="1094" on="1"/>
      </contour>
    </TTGlyph>
    <TTGlyph name="d" xMin="94" yMin="-10" xMax="547" yMax="1356">
      <contour>
        <pt x="537" y="717" on="1"/>
        <pt x="537" y="636" on="0"/>
        <pt x="547" y="618" on="1"/>
        <pt x="534" y="551" on="0"/>
        <pt x="513" y="323" on="0"/>
        <pt x="484" y="203" on="0"/>
        <pt x="462" y="160" on="1"/>
        <pt x="408" y="58" on="0"/>
        <pt x="283" y="-10" on="1"/>
        <pt x="141" y="-10" on="1"/>
        <pt x="123" y="-10" on="0"/>
        <pt x="123" y="45" on="1"/>
        <pt x="115" y="204" on="0"/>
        <pt x="115" y="401" on="1"/>
        <pt x="119" y="885" on="1"/>
        <pt x="119" y="1098" on="0"/>
        <pt x="111" y="1270" on="1"/>
        <pt x="94" y="1284" on="0"/>
        <pt x="94" y="1326" on="0"/>
        <pt x="128" y="1356" on="0"/>
        <pt x="156" y="1356" on="0"/>
        <pt x="191" y="1323" on="0"/>
        <pt x="209" y="1314" on="0"/>
        <pt x="277" y="1303" on="0"/>
        <pt x="322" y="1281" on="0"/>
        <pt x="424" y="1184" on="0"/>
        <pt x="442" y="1171" on="1"/>
        <pt x="440" y="1167" on="1"/>
        <pt x="442" y="1154" on="0"/>
        <pt x="499" y="1075" on="0"/>
        <pt x="506" y="1057" on="1"/>
        <pt x="539" y="968" on="0"/>
        <pt x="539" y="813" on="1"/>
      </contour>
      <contour>
        <pt x="477" y="592" on="1"/>
        <pt x="475" y="666" on="1"/>
        <pt x="465" y="872" on="1"/>
        <pt x="461" y="988" on="0"/>
        <pt x="394" y="1118" on="1"/>
        <pt x="363" y="1180" on="0"/>
        <pt x="260" y="1262" on="0"/>
        <pt x="201" y="1262" on="1"/>
        <pt x="178" y="1262" on="0"/>
        <pt x="178" y="443" on="0"/>
        <pt x="201" y="119" on="1"/>
        <pt x="199" y="80" on="1"/>
        <pt x="207" y="76" on="1"/>
        <pt x="213" y="49" on="1"/>
        <pt x="276" y="49" on="1"/>
        <pt x="288" y="66" on="0"/>
        <pt x="325" y="94" on="0"/>
        <pt x="332" y="100" on="1"/>
        <pt x="477" y="231" on="0"/>
      </contour>
    </TTGlyph>
    <TTGlyph name="dcaron" xMin="94" yMin="-10" xMax="881" yMax="1377">
      <component glyphName="comma" x="584" y="1217" flags="0x1004"/>
      <component glyphName="d" x="0" y="0" flags="0x1004"/>
    </TTGlyph>
    <TTGlyph name="dcroat" xMin="46" yMin="-10" xMax="547" yMax="1356">
      <contour>
        <pt x="306" y="652" on="1"/>
        <pt x="306" y="647" on="0"/>
        <pt x="143" y="638" on="0"/>
        <pt x="108" y="638" on="1"/>
        <pt x="46" y="638" on="0"/>
        <pt x="46" y="672" on="1"/>
        <pt x="46" y="677" on="0"/>
        <pt x="211" y="687" on="0"/>
        <pt x="244" y="687" on="1"/>
        <pt x="306" y="687" on="0"/>
      </contour>
      <contour>
        <pt x="537" y="717" on="1"/>
        <pt x="537" y="636" on="0"/>
        <pt x="547" y="618" on="1"/>
        <pt x="534" y="551" on="0"/>
        <pt x="513" y="323" on="0"/>
        <pt x="484" y="203" on="0"/>
        <pt x="462" y="160" on="1"/>
        <pt x="408" y="58" on="0"/>
        <pt x="283" y="-10" on="1"/>
        <pt x="141" y="-10" on="1"/>
        <pt x="123" y="-10" on="0"/>
        <pt x="123" y="45" on="1"/>
        <pt x="115" y="204" on="0"/>
        <pt x="115" y="401" on="1"/>
        <pt x="119" y="885" on="1"/>
        <pt x="119" y="1098" on="0"/>
        <pt x="111" y="1270" on="1"/>
        <pt x="94" y="1284" on="0"/>
        <pt x="94" y="1326" on="0"/>
        <pt x="128" y="1356" on="0"/>
        <pt x="156" y="1356" on="0"/>
        <pt x="191" y="1323" on="0"/>
        <pt x="209" y="1314" on="0"/>
        <pt x="277" y="1303" on="0"/>
        <pt x="322" y="1281" on="0"/>
        <pt x="424" y="1184" on="0"/>
        <pt x="442" y="1171" on="1"/>
        <pt x="440" y="1167" on="1"/>
        <pt x="442" y="1154" on="0"/>
        <pt x="499" y="1075" on="0"/>
        <pt x="506" y="1057" on="1"/>
        <pt x="539" y="968" on="0"/>
        <pt x="539" y="813" on="1"/>
      </contour>
      <contour>
        <pt x="477" y="592" on="1"/>
        <pt x="475" y="666" on="1"/>
        <pt x="465" y="872" on="1"/>
        <pt x="461" y="988" on="0"/>
        <pt x="394" y="1118" on="1"/>
        <pt x="363" y="1180" on="0"/>
        <pt x="260" y="1262" on="0"/>
        <pt x="201" y="1262" on="1"/>
        <pt x="178" y="1262" on="0"/>
        <pt x="178" y="443" on="0"/>
        <pt x="201" y="119" on="1"/>
        <pt x="199" y="80" on="1"/>
        <pt x="207" y="76" on="1"/>
        <pt x="213" y="49" on="1"/>
        <pt x="276" y="49" on="1"/>
        <pt x="288" y="66" on="0"/>
        <pt x="325" y="94" on="0"/>
        <pt x="332" y="100" on="1"/>
        <pt x="477" y="231" on="0"/>
      </contour>
    </TTGlyph>
    <TTGlyph name="degree" xMin="256" yMin="965" xMax="612" yMax="1378">
      <contour>
        <pt x="326" y="1260" on="0"/>
        <pt x="301" y="1167" on="0"/>
        <pt x="301" y="1085" on="0"/>
        <pt x="373" y="1004" on="0"/>
        <pt x="470" y="1004" on="0"/>
        <pt x="532" y="1040" on="0"/>
        <pt x="546" y="1068" on="1"/>
        <pt x="573" y="1121" on="0"/>
        <pt x="573" y="1240" on="0"/>
        <pt x="490" y="1331" on="0"/>
        <pt x="418" y="1331" on="1"/>
        <pt x="381" y="1331" on="0"/>
      </contour>
      <contour>
        <pt x="355" y="965" on="0"/>
        <pt x="256" y="1083" on="0"/>
        <pt x="256" y="1185" on="0"/>
        <pt x="286" y="1292" on="0"/>
        <pt x="360" y="1378" on="0"/>
        <pt x="496" y="1378" on="0"/>
        <pt x="612" y="1268" on="0"/>
        <pt x="612" y="1190" on="1"/>
        <pt x="612" y="965" on="0"/>
        <pt x="422" y="965" on="1"/>
      </contour>
    </TTGlyph>
    <TTGlyph name="dieresis" xMin="111" yMin="971" xMax="666" yMax="1075">
      <contour>
        <pt x="596" y="979" on="0"/>
        <pt x="571" y="1008" on="0"/>
        <pt x="571" y="1043" on="0"/>
        <pt x="602" y="1075" on="0"/>
        <pt x="638" y="1075" on="0"/>
        <pt x="666" y="1042" on="0"/>
        <pt x="666" y="1026" on="1"/>
        <pt x="666" y="979" on="0"/>
        <pt x="612" y="979" on="1"/>
      </contour>
      <contour>
        <pt x="201" y="1006" on="1"/>
        <pt x="201" y="1073" on="0"/>
        <pt x="160" y="1073" on="1"/>
        <pt x="142" y="1073" on="0"/>
        <pt x="111" y="1040" on="0"/>
        <pt x="111" y="1005" on="0"/>
        <pt x="133" y="971" on="0"/>
        <pt x="168" y="971" on="0"/>
        <pt x="201" y="989" on="0"/>
      </contour>
    </TTGlyph>
    <TTGlyph name="divide" xMin="92" yMin="467" xMax="506" yMax="1022">
      <contour>
        <pt x="506" y="741" on="1"/>
        <pt x="506" y="725" on="0"/>
        <pt x="393" y="721" on="0"/>
        <pt x="354" y="721" on="1"/>
        <pt x="135" y="721" on="1"/>
        <pt x="118" y="721" on="0"/>
        <pt x="92" y="740" on="0"/>
        <pt x="92" y="756" on="1"/>
        <pt x="92" y="762" on="0"/>
        <pt x="293" y="762" on="1"/>
        <pt x="483" y="762" on="1"/>
        <pt x="491" y="762" on="0"/>
        <pt x="506" y="748" on="0"/>
      </contour>
      <contour>
        <pt x="381" y="953" on="0"/>
        <pt x="352" y="928" on="0"/>
        <pt x="317" y="928" on="0"/>
        <pt x="285" y="958" on="0"/>
        <pt x="285" y="994" on="0"/>
        <pt x="318" y="1022" on="0"/>
        <pt x="334" y="1022" on="1"/>
        <pt x="381" y="1022" on="0"/>
        <pt x="381" y="969" on="1"/>
      </contour>
      <contour>
        <pt x="354" y="557" on="1"/>
        <pt x="287" y="557" on="0"/>
        <pt x="287" y="516" on="1"/>
        <pt x="287" y="498" on="0"/>
        <pt x="320" y="467" on="0"/>
        <pt x="355" y="467" on="0"/>
        <pt x="389" y="489" on="0"/>
        <pt x="389" y="524" on="0"/>
        <pt x="371" y="557" on="0"/>
      </contour>
    </TTGlyph>
    <TTGlyph name="dollar" xMin="88" yMin="-18" xMax="459" yMax="1663">
      <contour>
        <pt x="319" y="184" on="1"/>
        <pt x="328" y="68" on="1"/>
        <pt x="328" y="-18" on="0"/>
        <pt x="293" y="-18" on="1"/>
        <pt x="284" y="-18" on="0"/>
        <pt x="274" y="12" on="0"/>
        <pt x="274" y="23" on="1"/>
        <pt x="283" y="29" on="1"/>
        <pt x="283" y="164" on="1"/>
        <pt x="276" y="170" on="1"/>
        <pt x="207" y="170" on="0"/>
        <pt x="174" y="166" on="1"/>
        <pt x="102" y="216" on="0"/>
        <pt x="102" y="268" on="1"/>
        <pt x="102" y="289" on="0"/>
        <pt x="121" y="289" on="1"/>
        <pt x="125" y="289" on="1"/>
        <pt x="145" y="277" on="0"/>
        <pt x="158" y="232" on="0"/>
        <pt x="182" y="205" on="0"/>
        <pt x="255" y="205" on="0"/>
        <pt x="279" y="213" on="1"/>
        <pt x="279" y="378" on="0"/>
        <pt x="225" y="881" on="1"/>
        <pt x="224" y="891" on="0"/>
        <pt x="180" y="986" on="0"/>
        <pt x="155" y="1040" on="1"/>
        <pt x="88" y="1187" on="0"/>
        <pt x="88" y="1300" on="1"/>
        <pt x="88" y="1355" on="0"/>
        <pt x="103" y="1412" on="1"/>
        <pt x="132" y="1522" on="0"/>
        <pt x="186" y="1522" on="1"/>
        <pt x="178" y="1610" on="1"/>
        <pt x="178" y="1663" on="0"/>
        <pt x="207" y="1663" on="1"/>
        <pt x="223" y="1645" on="1"/>
        <pt x="221" y="1631" on="0"/>
        <pt x="221" y="1599" on="1"/>
        <pt x="221" y="1524" on="0"/>
        <pt x="254" y="1524" on="1"/>
        <pt x="293" y="1524" on="0"/>
        <pt x="332" y="1479" on="1"/>
        <pt x="383" y="1428" on="0"/>
        <pt x="383" y="1405" on="0"/>
        <pt x="366" y="1383" on="0"/>
        <pt x="346" y="1403" on="0"/>
        <pt x="312" y="1457" on="0"/>
        <pt x="274" y="1483" on="0"/>
        <pt x="238" y="1487" on="1"/>
        <pt x="231" y="1470" on="1"/>
        <pt x="238" y="1309" on="1"/>
        <pt x="238" y="1248" on="0"/>
        <pt x="271" y="902" on="0"/>
        <pt x="294" y="845" on="0"/>
        <pt x="340" y="753" on="1"/>
        <pt x="449" y="532" on="0"/>
        <pt x="459" y="403" on="1"/>
        <pt x="459" y="318" on="0"/>
        <pt x="400" y="245" on="0"/>
        <pt x="360" y="213" on="0"/>
      </contour>
      <contour>
        <pt x="315" y="240" on="1"/>
        <pt x="317" y="236" on="1"/>
        <pt x="357" y="255" on="0"/>
        <pt x="414" y="343" on="0"/>
        <pt x="414" y="441" on="0"/>
        <pt x="320" y="720" on="0"/>
        <pt x="281" y="776" on="1"/>
        <pt x="281" y="686" on="0"/>
        <pt x="315" y="330" on="0"/>
      </contour>
      <contour>
        <pt x="135" y="1288" on="1"/>
        <pt x="135" y="1160" on="0"/>
        <pt x="213" y="989" on="1"/>
        <pt x="213" y="984" on="0"/>
        <pt x="219" y="981" on="1"/>
        <pt x="217" y="1070" on="0"/>
        <pt x="185" y="1402" on="0"/>
        <pt x="182" y="1473" on="1"/>
        <pt x="162" y="1469" on="0"/>
        <pt x="135" y="1326" on="0"/>
      </contour>
    </TTGlyph>
    <TTGlyph name="dotaccent" xMin="113" yMin="1153" xMax="215" yMax="1257">
      <contour>
        <pt x="140" y="1153" on="0"/>
        <pt x="113" y="1184" on="0"/>
        <pt x="113" y="1222" on="0"/>
        <pt x="146" y="1257" on="0"/>
        <pt x="184" y="1257" on="0"/>
        <pt x="215" y="1222" on="0"/>
        <pt x="215" y="1204" on="1"/>
        <pt x="215" y="1153" on="0"/>
        <pt x="158" y="1153" on="1"/>
      </contour>
    </TTGlyph>
    <TTGlyph name="dotlessi" xMin="74" yMin="0" xMax="469" yMax="1350">
      <contour>
        <pt x="424" y="16" on="1"/>
        <pt x="356" y="23" on="1"/>
        <pt x="340" y="23" on="0"/>
        <pt x="296" y="0" on="0"/>
        <pt x="235" y="0" on="0"/>
        <pt x="227" y="20" on="1"/>
        <pt x="193" y="18" on="1"/>
        <pt x="149" y="18" on="0"/>
        <pt x="137" y="39" on="1"/>
        <pt x="137" y="52" on="0"/>
        <pt x="160" y="69" on="0"/>
        <pt x="164" y="74" on="1"/>
        <pt x="223" y="74" on="1"/>
        <pt x="231" y="82" on="1"/>
        <pt x="238" y="125" on="1"/>
        <pt x="238" y="125" on="0"/>
        <pt x="223" y="573" on="1"/>
        <pt x="233" y="1051" on="1"/>
        <pt x="233" y="1190" on="0"/>
        <pt x="223" y="1288" on="1"/>
        <pt x="203" y="1294" on="0"/>
        <pt x="162" y="1294" on="1"/>
        <pt x="113" y="1290" on="1"/>
        <pt x="74" y="1290" on="0"/>
        <pt x="74" y="1325" on="1"/>
        <pt x="74" y="1334" on="0"/>
        <pt x="111" y="1350" on="0"/>
        <pt x="123" y="1350" on="1"/>
        <pt x="408" y="1350" on="0"/>
        <pt x="408" y="1288" on="1"/>
        <pt x="408" y="1282" on="0"/>
        <pt x="403" y="1272" on="1"/>
        <pt x="356" y="1268" on="1"/>
        <pt x="340" y="1280" on="0"/>
        <pt x="297" y="1280" on="1"/>
        <pt x="287" y="1274" on="1"/>
        <pt x="293" y="1256" on="0"/>
        <pt x="293" y="1165" on="1"/>
        <pt x="287" y="678" on="1"/>
        <pt x="301" y="229" on="1"/>
        <pt x="299" y="166" on="1"/>
        <pt x="299" y="118" on="0"/>
        <pt x="305" y="109" on="1"/>
        <pt x="303" y="104" on="1"/>
        <pt x="303" y="84" on="0"/>
        <pt x="348" y="84" on="1"/>
        <pt x="408" y="86" on="1"/>
        <pt x="469" y="86" on="0"/>
        <pt x="469" y="57" on="1"/>
        <pt x="469" y="39" on="0"/>
        <pt x="443" y="16" on="0"/>
      </contour>
    </TTGlyph>
    <TTGlyph name="e" xMin="104" yMin="-27" xMax="408" yMax="1350">
      <contour>
        <pt x="109" y="16" on="1"/>
        <pt x="111" y="68" on="1"/>
        <pt x="104" y="76" on="1"/>
        <pt x="119" y="117" on="0"/>
        <pt x="119" y="160" on="1"/>
        <pt x="109" y="430" on="1"/>
        <pt x="123" y="1047" on="1"/>
        <pt x="115" y="1292" on="1"/>
        <pt x="115" y="1350" on="0"/>
        <pt x="174" y="1350" on="1"/>
        <pt x="197" y="1350" on="0"/>
        <pt x="207" y="1337" on="1"/>
        <pt x="214" y="1335" on="0"/>
        <pt x="266" y="1329" on="1"/>
        <pt x="392" y="1315" on="0"/>
        <pt x="395" y="1278" on="1"/>
        <pt x="395" y="1262" on="0"/>
        <pt x="356" y="1239" on="1"/>
        <pt x="243" y="1276" on="0"/>
        <pt x="190" y="1278" on="1"/>
        <pt x="180" y="1266" on="1"/>
        <pt x="182" y="1237" on="0"/>
        <pt x="182" y="1178" on="1"/>
        <pt x="174" y="860" on="1"/>
        <pt x="174" y="803" on="0"/>
        <pt x="203" y="803" on="1"/>
        <pt x="272" y="807" on="1"/>
        <pt x="350" y="807" on="0"/>
        <pt x="352" y="770" on="1"/>
        <pt x="352" y="749" on="0"/>
        <pt x="331" y="717" on="0"/>
        <pt x="277" y="717" on="0"/>
        <pt x="264" y="733" on="1"/>
        <pt x="197" y="743" on="1"/>
        <pt x="188" y="743" on="1"/>
        <pt x="178" y="733" on="1"/>
        <pt x="178" y="727" on="1"/>
        <pt x="182" y="674" on="0"/>
        <pt x="182" y="565" on="1"/>
        <pt x="178" y="274" on="1"/>
        <pt x="178" y="70" on="0"/>
        <pt x="206" y="48" on="1"/>
        <pt x="224" y="33" on="0"/>
        <pt x="272" y="33" on="1"/>
        <pt x="348" y="37" on="1"/>
        <pt x="408" y="37" on="0"/>
        <pt x="408" y="10" on="1"/>
        <pt x="408" y="-27" on="0"/>
        <pt x="319" y="-27" on="1"/>
        <pt x="150" y="-27" on="1"/>
        <pt x="112" y="-27" on="0"/>
      </contour>
    </TTGlyph>
    <TTGlyph name="e_e.liga" xMin="109" yMin="-33" xMax="817" yMax="1350">
      <contour>
        <pt x="115" y="10" on="1"/>
        <pt x="113" y="430" on="1"/>
        <pt x="109" y="430" on="1"/>
        <pt x="117" y="1047" on="1"/>
        <pt x="109" y="1292" on="1"/>
        <pt x="109" y="1321" on="0"/>
        <pt x="146" y="1340" on="0"/>
        <pt x="208" y="1337" on="0"/>
        <pt x="256" y="1334" on="1"/>
        <pt x="373" y="1328" on="0"/>
        <pt x="383" y="1325" on="1"/>
        <pt x="391" y="1321" on="0"/>
        <pt x="395" y="1298" on="0"/>
        <pt x="375" y="1278" on="0"/>
        <pt x="354" y="1278" on="1"/>
        <pt x="188" y="1278" on="1"/>
        <pt x="178" y="1266" on="1"/>
        <pt x="180" y="1237" on="0"/>
        <pt x="180" y="1178" on="1"/>
        <pt x="172" y="860" on="1"/>
        <pt x="172" y="803" on="0"/>
        <pt x="180" y="803" on="1"/>
        <pt x="311" y="803" on="1"/>
        <pt x="348" y="803" on="0"/>
        <pt x="348" y="770" on="1"/>
        <pt x="348" y="745" on="0"/>
        <pt x="268" y="745" on="0"/>
        <pt x="260" y="743" on="1"/>
        <pt x="182" y="743" on="1"/>
        <pt x="174" y="743" on="0"/>
        <pt x="178" y="674" on="0"/>
        <pt x="178" y="565" on="1"/>
        <pt x="174" y="274" on="1"/>
        <pt x="174" y="194" on="0"/>
        <pt x="180" y="111" on="1"/>
        <pt x="180" y="33" on="0"/>
        <pt x="188" y="33" on="1"/>
        <pt x="346" y="37" on="1"/>
        <pt x="406" y="37" on="0"/>
        <pt x="406" y="10" on="1"/>
        <pt x="406" y="-27" on="0"/>
        <pt x="317" y="-27" on="1"/>
        <pt x="156" y="-33" on="1"/>
        <pt x="118" y="-33" on="0"/>
      </contour>
      <contour>
        <pt x="682" y="35" on="1"/>
        <pt x="758" y="39" on="1"/>
        <pt x="817" y="39" on="0"/>
        <pt x="817" y="12" on="1"/>
        <pt x="817" y="-25" on="0"/>
        <pt x="729" y="-25" on="1"/>
        <pt x="559" y="-25" on="1"/>
        <pt x="527" y="-25" on="0"/>
        <pt x="520" y="79" on="0"/>
        <pt x="520" y="383" on="0"/>
        <pt x="518" y="430" on="1"/>
        <pt x="532" y="1047" on="1"/>
        <pt x="524" y="1292" on="1"/>
        <pt x="524" y="1350" on="0"/>
        <pt x="584" y="1350" on="1"/>
        <pt x="606" y="1350" on="0"/>
        <pt x="616" y="1337" on="1"/>
        <pt x="623" y="1335" on="0"/>
        <pt x="676" y="1329" on="1"/>
        <pt x="802" y="1315" on="0"/>
        <pt x="805" y="1278" on="1"/>
        <pt x="805" y="1262" on="0"/>
        <pt x="766" y="1239" on="1"/>
        <pt x="653" y="1276" on="0"/>
        <pt x="600" y="1278" on="1"/>
        <pt x="590" y="1266" on="1"/>
        <pt x="592" y="1237" on="0"/>
        <pt x="592" y="1178" on="1"/>
        <pt x="584" y="758" on="1"/>
        <pt x="584" y="700" on="0"/>
        <pt x="612" y="700" on="1"/>
        <pt x="682" y="705" on="1"/>
        <pt x="760" y="705" on="0"/>
        <pt x="762" y="668" on="1"/>
        <pt x="762" y="654" on="0"/>
        <pt x="741" y="633" on="0"/>
        <pt x="682" y="633" on="0"/>
        <pt x="674" y="631" on="1"/>
        <pt x="606" y="641" on="1"/>
        <pt x="598" y="641" on="1"/>
        <pt x="588" y="631" on="1"/>
        <pt x="588" y="625" on="1"/>
        <pt x="592" y="592" on="0"/>
        <pt x="592" y="524" on="1"/>
        <pt x="588" y="276" on="1"/>
        <pt x="588" y="72" on="0"/>
        <pt x="616" y="50" on="1"/>
        <pt x="634" y="35" on="0"/>
      </contour>
    </TTGlyph>
    <TTGlyph name="eacute" xMin="104" yMin="-27" xMax="482" yMax="1718">
      <component glyphName="acute" x="85" y="170" flags="0x1004"/>
      <component glyphName="e" x="0" y="0" flags="0x1204"/>
    </TTGlyph>
    <TTGlyph name="ebreve" xMin="62" yMin="-27" xMax="408" yMax="1706">
      <component glyphName="breve" x="-47" y="588" flags="0x1004"/>
      <component glyphName="e" x="0" y="0" flags="0x1204"/>
    </TTGlyph>
    <TTGlyph name="ecaron" xMin="67" yMin="-27" xMax="408" yMax="1861">
      <component glyphName="caron" x="-25" y="528" flags="0x1004"/>
      <component glyphName="e" x="0" y="0" flags="0x1204"/>
    </TTGlyph>
    <TTGlyph name="ecircumflex" xMin="79" yMin="-27" xMax="408" yMax="1861">
      <component glyphName="circumflex" x="-19" y="528" flags="0x1004"/>
      <component glyphName="e" x="0" y="0" flags="0x1204"/>
    </TTGlyph>
    <TTGlyph name="edieresis" xMin="-59" yMin="-27" xMax="496" yMax="1583">
      <component glyphName="dieresis" x="-170" y="508" flags="0x1004"/>
      <component glyphName="e" x="0" y="0" flags="0x1204"/>
    </TTGlyph>
    <TTGlyph name="edotaccent" xMin="104" yMin="-27" xMax="408" yMax="1583">
      <component glyphName="uni0307" x="55" y="326" flags="0x1004"/>
      <component glyphName="e" x="0" y="0" flags="0x1204"/>
    </TTGlyph>
    <TTGlyph name="egrave" xMin="-89" yMin="-27" xMax="408" yMax="1634">
      <component glyphName="grave" x="-193" y="-70" flags="0x1004"/>
      <component glyphName="e" x="0" y="0" flags="0x1204"/>
    </TTGlyph>
    <TTGlyph name="eight" xMin="88" yMin="-78" xMax="444" yMax="1610">
      <contour>
        <pt x="444" y="104" on="1"/>
        <pt x="438" y="55" on="1"/>
        <pt x="438" y="49" on="0"/>
        <pt x="440" y="45" on="1"/>
        <pt x="407" y="-19" on="0"/>
        <pt x="336" y="-78" on="0"/>
        <pt x="234" y="-78" on="0"/>
        <pt x="176" y="-20" on="0"/>
        <pt x="162" y="24" on="1"/>
        <pt x="133" y="110" on="0"/>
        <pt x="133" y="186" on="1"/>
        <pt x="133" y="498" on="0"/>
        <pt x="199" y="756" on="1"/>
        <pt x="202" y="768" on="0"/>
        <pt x="210" y="790" on="1"/>
        <pt x="229" y="839" on="0"/>
        <pt x="229" y="878" on="0"/>
        <pt x="210" y="944" on="0"/>
        <pt x="196" y="984" on="1"/>
        <pt x="88" y="1310" on="0"/>
        <pt x="88" y="1442" on="1"/>
        <pt x="88" y="1556" on="0"/>
        <pt x="150" y="1595" on="1"/>
        <pt x="174" y="1610" on="0"/>
        <pt x="207" y="1610" on="1"/>
        <pt x="244" y="1610" on="1"/>
        <pt x="250" y="1607" on="0"/>
        <pt x="278" y="1595" on="0"/>
        <pt x="285" y="1591" on="1"/>
        <pt x="306" y="1579" on="0"/>
        <pt x="315" y="1559" on="1"/>
        <pt x="354" y="1471" on="0"/>
        <pt x="354" y="1225" on="0"/>
        <pt x="313" y="1008" on="1"/>
        <pt x="283" y="873" on="0"/>
        <pt x="283" y="861" on="0"/>
        <pt x="293" y="833" on="0"/>
        <pt x="307" y="801" on="0"/>
        <pt x="309" y="795" on="1"/>
        <pt x="444" y="388" on="0"/>
      </contour>
      <contour>
        <pt x="205" y="53" on="1"/>
        <pt x="207" y="21" on="0"/>
        <pt x="243" y="-39" on="0"/>
        <pt x="272" y="-39" on="1"/>
        <pt x="337" y="-39" on="0"/>
        <pt x="395" y="51" on="0"/>
        <pt x="395" y="119" on="1"/>
        <pt x="395" y="313" on="0"/>
        <pt x="317" y="598" on="1"/>
        <pt x="311" y="619" on="0"/>
        <pt x="302" y="662" on="1"/>
        <pt x="280" y="756" on="0"/>
        <pt x="262" y="788" on="1"/>
        <pt x="221" y="731" on="0"/>
        <pt x="180" y="314" on="0"/>
        <pt x="180" y="168" on="1"/>
        <pt x="180" y="126" on="0"/>
        <pt x="207" y="59" on="1"/>
      </contour>
      <contour>
        <pt x="233" y="1565" on="1"/>
        <pt x="211" y="1563" on="1"/>
        <pt x="195" y="1563" on="0"/>
        <pt x="186" y="1569" on="1"/>
        <pt x="139" y="1531" on="0"/>
        <pt x="139" y="1374" on="0"/>
        <pt x="217" y="987" on="0"/>
        <pt x="246" y="969" on="1"/>
        <pt x="307" y="1165" on="0"/>
        <pt x="307" y="1335" on="1"/>
        <pt x="307" y="1439" on="0"/>
        <pt x="263" y="1565" on="0"/>
      </contour>
    </TTGlyph>
    <TTGlyph name="ellipsis" xMin="113" yMin="-8" xMax="870" yMax="96">
      <contour>
        <pt x="140" y="-8" on="0"/>
        <pt x="113" y="23" on="0"/>
        <pt x="113" y="61" on="0"/>
        <pt x="146" y="96" on="0"/>
        <pt x="184" y="96" on="0"/>
        <pt x="215" y="61" on="0"/>
        <pt x="215" y="43" on="1"/>
        <pt x="215" y="-8" on="0"/>
        <pt x="158" y="-8" on="1"/>
      </contour>
      <contour>
        <pt x="467" y="-8" on="0"/>
        <pt x="440" y="23" on="0"/>
        <pt x="440" y="61" on="0"/>
        <pt x="474" y="96" on="0"/>
        <pt x="512" y="96" on="0"/>
        <pt x="543" y="61" on="0"/>
        <pt x="543" y="43" on="1"/>
        <pt x="543" y="-8" on="0"/>
        <pt x="485" y="-8" on="1"/>
      </contour>
      <contour>
        <pt x="795" y="-8" on="0"/>
        <pt x="768" y="23" on="0"/>
        <pt x="768" y="61" on="0"/>
        <pt x="801" y="96" on="0"/>
        <pt x="839" y="96" on="0"/>
        <pt x="870" y="61" on="0"/>
        <pt x="870" y="43" on="1"/>
        <pt x="870" y="-8" on="0"/>
        <pt x="813" y="-8" on="1"/>
      </contour>
    </TTGlyph>
    <TTGlyph name="emacron" xMin="22" yMin="-27" xMax="416" yMax="1528">
      <component glyphName="macron" x="-91" y="776" flags="0x1004"/>
      <component glyphName="e" x="0" y="0" flags="0x1204"/>
    </TTGlyph>
    <TTGlyph name="emdash" xMin="10" yMin="721" xMax="918" yMax="762">
      <contour>
        <pt x="918" y="727" on="1"/>
        <pt x="856" y="727" on="1"/>
        <pt x="856" y="721" on="0"/>
        <pt x="641" y="721" on="1"/>
        <pt x="53" y="721" on="1"/>
        <pt x="36" y="721" on="0"/>
        <pt x="10" y="740" on="0"/>
        <pt x="10" y="756" on="1"/>
        <pt x="10" y="762" on="0"/>
        <pt x="580" y="762" on="1"/>
        <pt x="872" y="762" on="1"/>
        <pt x="887" y="762" on="0"/>
        <pt x="918" y="741" on="0"/>
      </contour>
    </TTGlyph>
    <TTGlyph name="endash" xMin="10" yMin="721" xMax="631" yMax="762">
      <contour>
        <pt x="631" y="727" on="1"/>
        <pt x="569" y="727" on="1"/>
        <pt x="569" y="721" on="0"/>
        <pt x="354" y="721" on="1"/>
        <pt x="53" y="721" on="1"/>
        <pt x="36" y="721" on="0"/>
        <pt x="10" y="740" on="0"/>
        <pt x="10" y="756" on="1"/>
        <pt x="10" y="762" on="0"/>
        <pt x="293" y="762" on="1"/>
        <pt x="586" y="762" on="1"/>
        <pt x="601" y="762" on="0"/>
        <pt x="631" y="741" on="0"/>
      </contour>
    </TTGlyph>
    <TTGlyph name="eng" xMin="104" yMin="-444" xMax="752" yMax="1350">
      <contour>
        <pt x="393" y="-410" on="1"/>
        <pt x="391" y="-401" on="1"/>
        <pt x="391" y="-395" on="0"/>
        <pt x="410" y="-390" on="1"/>
        <pt x="485" y="-371" on="0"/>
        <pt x="526" y="-336" on="1"/>
        <pt x="600" y="-273" on="0"/>
        <pt x="610" y="-66" on="1"/>
        <pt x="575" y="76" on="1"/>
        <pt x="551" y="170" on="0"/>
        <pt x="481" y="380" on="0"/>
        <pt x="469" y="418" on="1"/>
        <pt x="460" y="427" on="0"/>
        <pt x="414" y="570" on="0"/>
        <pt x="414" y="571" on="1"/>
        <pt x="230" y="1142" on="0"/>
        <pt x="182" y="1188" on="1"/>
        <pt x="166" y="1125" on="0"/>
        <pt x="166" y="1044" on="1"/>
        <pt x="170" y="883" on="1"/>
        <pt x="166" y="784" on="1"/>
        <pt x="170" y="676" on="1"/>
        <pt x="168" y="641" on="1"/>
        <pt x="168" y="300" on="0"/>
        <pt x="182" y="264" on="1"/>
        <pt x="182" y="80" on="1"/>
        <pt x="190" y="66" on="0"/>
        <pt x="190" y="44" on="1"/>
        <pt x="190" y="-4" on="0"/>
        <pt x="152" y="-4" on="1"/>
        <pt x="109" y="-4" on="0"/>
        <pt x="109" y="106" on="1"/>
        <pt x="117" y="240" on="1"/>
        <pt x="104" y="829" on="1"/>
        <pt x="117" y="1192" on="1"/>
        <pt x="117" y="1204" on="1"/>
        <pt x="117" y="1317" on="0"/>
        <pt x="154" y="1350" on="1"/>
        <pt x="160" y="1343" on="1"/>
        <pt x="180" y="1348" on="1"/>
        <pt x="203" y="1340" on="0"/>
        <pt x="208" y="1316" on="1"/>
        <pt x="208" y="1314" on="0"/>
        <pt x="213" y="1295" on="0"/>
        <pt x="213" y="1294" on="1"/>
        <pt x="248" y="1148" on="0"/>
        <pt x="472" y="626" on="0"/>
        <pt x="520" y="477" on="0"/>
        <pt x="539" y="394" on="1"/>
        <pt x="581" y="210" on="0"/>
        <pt x="631" y="125" on="1"/>
        <pt x="635" y="131" on="1"/>
        <pt x="682" y="578" on="0"/>
        <pt x="682" y="1247" on="1"/>
        <pt x="678" y="1298" on="1"/>
        <pt x="678" y="1341" on="0"/>
        <pt x="707" y="1341" on="1"/>
        <pt x="727" y="1341" on="0"/>
        <pt x="752" y="1303" on="0"/>
        <pt x="752" y="1282" on="1"/>
        <pt x="752" y="1145" on="1"/>
        <pt x="741" y="1128" on="1"/>
        <pt x="741" y="1023" on="0"/>
        <pt x="677" y="34" on="0"/>
        <pt x="676" y="12" on="1"/>
        <pt x="676" y="-53" on="1"/>
        <pt x="676" y="-221" on="0"/>
        <pt x="602" y="-342" on="1"/>
        <pt x="576" y="-385" on="0"/>
        <pt x="485" y="-444" on="0"/>
        <pt x="428" y="-444" on="1"/>
      </contour>
    </TTGlyph>
    <TTGlyph name="eogonek" xMin="80" yMin="-482" xMax="408" yMax="1350">
      <component glyphName="ogonek" x="-33" y="-3" flags="0x1004"/>
      <component glyphName="e" x="0" y="0" flags="0x1204"/>
    </TTGlyph>
    <TTGlyph name="equal" xMin="113" yMin="604" xMax="569" yMax="762">
      <contour>
        <pt x="569" y="727" on="1"/>
        <pt x="569" y="721" on="0"/>
        <pt x="354" y="721" on="1"/>
        <pt x="156" y="721" on="1"/>
        <pt x="139" y="721" on="0"/>
        <pt x="113" y="740" on="0"/>
        <pt x="113" y="756" on="1"/>
        <pt x="113" y="762" on="0"/>
        <pt x="293" y="762" on="1"/>
        <pt x="524" y="762" on="1"/>
        <pt x="539" y="762" on="0"/>
        <pt x="569" y="741" on="0"/>
      </contour>
      <contour>
        <pt x="141" y="647" on="1"/>
        <pt x="545" y="645" on="1"/>
        <pt x="552" y="645" on="0"/>
        <pt x="565" y="625" on="0"/>
        <pt x="565" y="604" on="0"/>
        <pt x="553" y="604" on="1"/>
        <pt x="553" y="608" on="0"/>
        <pt x="158" y="608" on="1"/>
        <pt x="149" y="608" on="0"/>
        <pt x="133" y="630" on="0"/>
        <pt x="133" y="647" on="0"/>
      </contour>
    </TTGlyph>
    <TTGlyph name="eth" xMin="119" yMin="-29" xMax="485" yMax="1569">
      <contour>
        <pt x="483" y="1313" on="1"/>
        <pt x="483" y="1307" on="0"/>
        <pt x="395" y="1296" on="1"/>
        <pt x="430" y="1105" on="0"/>
        <pt x="430" y="815" on="1"/>
        <pt x="430" y="807" on="1"/>
        <pt x="430" y="611" on="0"/>
        <pt x="420" y="369" on="1"/>
        <pt x="417" y="347" on="0"/>
        <pt x="406" y="176" on="0"/>
        <pt x="387" y="82" on="0"/>
        <pt x="372" y="49" on="1"/>
        <pt x="338" y="-29" on="0"/>
        <pt x="260" y="-29" on="1"/>
        <pt x="135" y="-29" on="0"/>
        <pt x="122" y="110" on="1"/>
        <pt x="119" y="136" on="0"/>
        <pt x="119" y="215" on="0"/>
        <pt x="120" y="285" on="0"/>
        <pt x="125" y="424" on="0"/>
        <pt x="137" y="533" on="0"/>
        <pt x="156" y="671" on="0"/>
        <pt x="188" y="773" on="0"/>
        <pt x="210" y="819" on="1"/>
        <pt x="253" y="913" on="0"/>
        <pt x="332" y="913" on="1"/>
        <pt x="353" y="913" on="0"/>
        <pt x="377" y="897" on="1"/>
        <pt x="370" y="1123" on="0"/>
        <pt x="344" y="1288" on="1"/>
        <pt x="230" y="1276" on="0"/>
        <pt x="186" y="1276" on="0"/>
        <pt x="186" y="1284" on="1"/>
        <pt x="186" y="1313" on="0"/>
        <pt x="209" y="1313" on="1"/>
        <pt x="268" y="1313" on="0"/>
        <pt x="340" y="1323" on="1"/>
        <pt x="316" y="1465" on="0"/>
        <pt x="279" y="1497" on="1"/>
        <pt x="273" y="1502" on="0"/>
        <pt x="254" y="1510" on="1"/>
        <pt x="209" y="1529" on="0"/>
        <pt x="209" y="1550" on="1"/>
        <pt x="209" y="1557" on="0"/>
        <pt x="226" y="1569" on="0"/>
        <pt x="233" y="1569" on="1"/>
        <pt x="339" y="1569" on="0"/>
        <pt x="391" y="1329" on="1"/>
        <pt x="445" y="1333" on="0"/>
        <pt x="485" y="1333" on="0"/>
        <pt x="485" y="1323" on="1"/>
      </contour>
      <contour>
        <pt x="377" y="727" on="1"/>
        <pt x="377" y="844" on="1"/>
        <pt x="356" y="860" on="0"/>
        <pt x="315" y="868" on="1"/>
        <pt x="248" y="868" on="0"/>
        <pt x="215" y="712" on="1"/>
        <pt x="182" y="555" on="0"/>
        <pt x="176" y="437" on="1"/>
        <pt x="168" y="253" on="0"/>
        <pt x="168" y="174" on="1"/>
        <pt x="168" y="12" on="0"/>
        <pt x="244" y="12" on="1"/>
        <pt x="286" y="12" on="0"/>
        <pt x="315" y="42" on="0"/>
        <pt x="328" y="60" on="0"/>
        <pt x="336" y="97" on="0"/>
        <pt x="339" y="115" on="0"/>
        <pt x="343" y="160" on="0"/>
        <pt x="344" y="166" on="1"/>
        <pt x="377" y="433" on="0"/>
      </contour>
    </TTGlyph>
    <TTGlyph name="exclam" xMin="88" yMin="-27" xMax="225" yMax="1548">
      <contour>
        <pt x="88" y="39" on="1"/>
        <pt x="88" y="59" on="0"/>
        <pt x="130" y="102" on="0"/>
        <pt x="180" y="102" on="0"/>
        <pt x="211" y="59" on="0"/>
        <pt x="211" y="27" on="1"/>
        <pt x="211" y="-24" on="0"/>
        <pt x="160" y="-27" on="1"/>
        <pt x="157" y="-18" on="0"/>
        <pt x="147" y="-16" on="1"/>
        <pt x="113" y="-11" on="0"/>
      </contour>
      <contour>
        <pt x="147" y="322" on="1"/>
        <pt x="145" y="330" on="1"/>
        <pt x="145" y="821" on="1"/>
        <pt x="145" y="821" on="0"/>
        <pt x="150" y="1171" on="1"/>
        <pt x="135" y="1493" on="1"/>
        <pt x="135" y="1514" on="0"/>
        <pt x="178" y="1548" on="0"/>
        <pt x="225" y="1548" on="0"/>
        <pt x="225" y="1522" on="1"/>
        <pt x="225" y="1358" on="0"/>
        <pt x="182" y="707" on="0"/>
        <pt x="182" y="543" on="1"/>
        <pt x="184" y="453" on="1"/>
        <pt x="184" y="371" on="0"/>
        <pt x="168" y="332" on="1"/>
        <pt x="174" y="322" on="1"/>
      </contour>
    </TTGlyph>
    <TTGlyph name="exclamdown" xMin="88" yMin="-27" xMax="225" yMax="1548">
      <contour>
        <pt x="88" y="1483" on="1"/>
        <pt x="114" y="1535" on="0"/>
        <pt x="147" y="1538" on="1"/>
        <pt x="157" y="1539" on="0"/>
        <pt x="160" y="1548" on="1"/>
        <pt x="211" y="1545" on="0"/>
        <pt x="211" y="1495" on="1"/>
        <pt x="211" y="1463" on="0"/>
        <pt x="180" y="1419" on="0"/>
        <pt x="130" y="1419" on="0"/>
        <pt x="88" y="1463" on="0"/>
      </contour>
      <contour>
        <pt x="150" y="350" on="1"/>
        <pt x="145" y="700" on="1"/>
        <pt x="145" y="1192" on="1"/>
        <pt x="145" y="1192" on="0"/>
        <pt x="147" y="1200" on="1"/>
        <pt x="174" y="1200" on="1"/>
        <pt x="168" y="1190" on="1"/>
        <pt x="184" y="1151" on="0"/>
        <pt x="184" y="1069" on="1"/>
        <pt x="182" y="979" on="1"/>
        <pt x="182" y="815" on="0"/>
        <pt x="225" y="164" on="0"/>
        <pt x="225" y="0" on="1"/>
        <pt x="225" y="-27" on="0"/>
        <pt x="178" y="-27" on="0"/>
        <pt x="135" y="8" on="0"/>
        <pt x="135" y="29" on="1"/>
      </contour>
    </TTGlyph>
    <TTGlyph name="f" xMin="98" yMin="-29" xMax="446" yMax="1364">
      <contour>
        <pt x="176" y="346" on="1"/>
        <pt x="188" y="53" on="1"/>
        <pt x="188" y="-29" on="0"/>
        <pt x="139" y="-29" on="1"/>
        <pt x="98" y="2" on="1"/>
        <pt x="117" y="199" on="0"/>
        <pt x="117" y="637" on="0"/>
        <pt x="145" y="1188" on="0"/>
        <pt x="145" y="1325" on="1"/>
        <pt x="145" y="1344" on="0"/>
        <pt x="181" y="1364" on="0"/>
        <pt x="259" y="1364" on="0"/>
        <pt x="446" y="1334" on="0"/>
        <pt x="446" y="1305" on="1"/>
        <pt x="446" y="1270" on="0"/>
        <pt x="373" y="1270" on="1"/>
        <pt x="336" y="1290" on="0"/>
        <pt x="242" y="1290" on="0"/>
        <pt x="228" y="1286" on="0"/>
        <pt x="224" y="1280" on="0"/>
        <pt x="218" y="1257" on="0"/>
        <pt x="213" y="1247" on="1"/>
        <pt x="193" y="815" on="1"/>
        <pt x="193" y="743" on="1"/>
        <pt x="193" y="736" on="0"/>
        <pt x="228" y="736" on="1"/>
        <pt x="330" y="738" on="0"/>
        <pt x="330" y="705" on="1"/>
        <pt x="330" y="688" on="0"/>
        <pt x="298" y="666" on="0"/>
        <pt x="281" y="666" on="1"/>
        <pt x="213" y="678" on="1"/>
        <pt x="176" y="678" on="0"/>
        <pt x="176" y="578" on="1"/>
      </contour>
      <contour>
        <pt x="111" y="1014" on="1"/>
        <pt x="111" y="1012" on="1"/>
        <pt x="111" y="1010" on="0"/>
        <pt x="106" y="1010" on="0"/>
        <pt x="106" y="1014" on="0"/>
        <pt x="109" y="1014" on="1"/>
      </contour>
    </TTGlyph>
    <TTGlyph name="five" xMin="88" yMin="-20" xMax="485" yMax="1587">
      <contour>
        <pt x="152" y="1544" on="1"/>
        <pt x="152" y="1487" on="0"/>
        <pt x="193" y="1006" on="1"/>
        <pt x="190" y="1004" on="1"/>
        <pt x="190" y="1003" on="0"/>
        <pt x="226" y="999" on="1"/>
        <pt x="341" y="986" on="0"/>
        <pt x="407" y="937" on="0"/>
        <pt x="436" y="824" on="1"/>
        <pt x="485" y="634" on="0"/>
        <pt x="485" y="438" on="1"/>
        <pt x="485" y="289" on="0"/>
        <pt x="467" y="188" on="0"/>
        <pt x="444" y="107" on="0"/>
        <pt x="428" y="79" on="1"/>
        <pt x="389" y="12" on="0"/>
        <pt x="330" y="-20" on="1"/>
        <pt x="319" y="-20" on="1"/>
        <pt x="213" y="-20" on="0"/>
        <pt x="213" y="12" on="1"/>
        <pt x="213" y="35" on="0"/>
        <pt x="252" y="35" on="1"/>
        <pt x="305" y="18" on="1"/>
        <pt x="336" y="18" on="0"/>
        <pt x="389" y="94" on="0"/>
        <pt x="404" y="148" on="1"/>
        <pt x="434" y="262" on="0"/>
        <pt x="434" y="391" on="0"/>
        <pt x="425" y="555" on="0"/>
        <pt x="398" y="794" on="0"/>
        <pt x="333" y="952" on="0"/>
        <pt x="285" y="952" on="1"/>
        <pt x="238" y="952" on="1"/>
        <pt x="229" y="946" on="1"/>
        <pt x="223" y="948" on="1"/>
        <pt x="178" y="930" on="1"/>
        <pt x="140" y="930" on="0"/>
        <pt x="132" y="962" on="1"/>
        <pt x="130" y="973" on="0"/>
        <pt x="128" y="1018" on="0"/>
        <pt x="127" y="1026" on="1"/>
        <pt x="137" y="1084" on="0"/>
        <pt x="137" y="1206" on="0"/>
        <pt x="90" y="1496" on="0"/>
        <pt x="88" y="1565" on="1"/>
        <pt x="109" y="1585" on="1"/>
        <pt x="266" y="1587" on="1"/>
        <pt x="328" y="1587" on="0"/>
        <pt x="328" y="1559" on="1"/>
        <pt x="305" y="1540" on="1"/>
        <pt x="262" y="1540" on="1"/>
        <pt x="256" y="1536" on="1"/>
        <pt x="174" y="1546" on="1"/>
        <pt x="160" y="1542" on="1"/>
      </contour>
      <contour>
        <pt x="152" y="1337" on="1"/>
        <pt x="150" y="1337" on="0"/>
        <pt x="150" y="1335" on="1"/>
      </contour>
    </TTGlyph>
    <TTGlyph name="four" xMin="92" yMin="-25" xMax="455" yMax="1559">
      <contour>
        <pt x="455" y="567" on="1"/>
        <pt x="455" y="537" on="0"/>
        <pt x="398" y="542" on="1"/>
        <pt x="376" y="544" on="0"/>
        <pt x="340" y="524" on="0"/>
        <pt x="340" y="442" on="0"/>
        <pt x="351" y="168" on="0"/>
        <pt x="358" y="152" on="1"/>
        <pt x="356" y="144" on="0"/>
        <pt x="356" y="83" on="0"/>
        <pt x="365" y="68" on="1"/>
        <pt x="358" y="43" on="1"/>
        <pt x="365" y="29" on="1"/>
        <pt x="365" y="0" on="1"/>
        <pt x="332" y="-25" on="1"/>
        <pt x="301" y="-12" on="1"/>
        <pt x="301" y="61" on="1"/>
        <pt x="299" y="66" on="1"/>
        <pt x="307" y="99" on="0"/>
        <pt x="307" y="139" on="1"/>
        <pt x="293" y="348" on="1"/>
        <pt x="297" y="440" on="1"/>
        <pt x="297" y="520" on="0"/>
        <pt x="276" y="530" on="1"/>
        <pt x="156" y="518" on="1"/>
        <pt x="129" y="518" on="0"/>
        <pt x="105" y="537" on="0"/>
        <pt x="100" y="541" on="1"/>
        <pt x="100" y="547" on="1"/>
        <pt x="100" y="557" on="0"/>
        <pt x="111" y="612" on="1"/>
        <pt x="92" y="653" on="1"/>
        <pt x="111" y="754" on="1"/>
        <pt x="131" y="1155" on="1"/>
        <pt x="131" y="1481" on="1"/>
        <pt x="123" y="1532" on="1"/>
        <pt x="123" y="1559" on="0"/>
        <pt x="184" y="1559" on="0"/>
        <pt x="184" y="1530" on="1"/>
        <pt x="176" y="1366" on="1"/>
        <pt x="176" y="1330" on="0"/>
        <pt x="182" y="1296" on="1"/>
        <pt x="178" y="1290" on="1"/>
        <pt x="182" y="1254" on="0"/>
        <pt x="182" y="1233" on="1"/>
        <pt x="158" y="717" on="1"/>
        <pt x="172" y="657" on="1"/>
        <pt x="158" y="602" on="1"/>
        <pt x="158" y="563" on="0"/>
        <pt x="197" y="563" on="0"/>
        <pt x="268" y="575" on="0"/>
        <pt x="281" y="582" on="1"/>
        <pt x="281" y="656" on="0"/>
        <pt x="265" y="1049" on="0"/>
        <pt x="250" y="1159" on="0"/>
        <pt x="250" y="1180" on="1"/>
        <pt x="250" y="1212" on="0"/>
        <pt x="289" y="1212" on="1"/>
        <pt x="307" y="1190" on="1"/>
        <pt x="319" y="901" on="1"/>
        <pt x="319" y="841" on="0"/>
        <pt x="331" y="591" on="0"/>
        <pt x="340" y="582" on="1"/>
        <pt x="416" y="590" on="1"/>
        <pt x="455" y="590" on="0"/>
      </contour>
    </TTGlyph>
    <TTGlyph name="fraction" xMin="86" yMin="-6" xMax="479" yMax="1532">
      <contour>
        <pt x="479" y="1505" on="1"/>
        <pt x="479" y="1488" on="0"/>
        <pt x="439" y="1323" on="0"/>
        <pt x="413" y="1204" on="0"/>
        <pt x="207" y="299" on="1"/>
        <pt x="166" y="121" on="1"/>
        <pt x="164" y="114" on="0"/>
        <pt x="156" y="71" on="0"/>
        <pt x="149" y="45" on="0"/>
        <pt x="143" y="28" on="1"/>
        <pt x="131" y="-4" on="0"/>
        <pt x="106" y="-6" on="1"/>
        <pt x="86" y="7" on="0"/>
        <pt x="86" y="75" on="0"/>
        <pt x="107" y="187" on="0"/>
        <pt x="152" y="359" on="0"/>
        <pt x="294" y="989" on="0"/>
        <pt x="415" y="1450" on="0"/>
        <pt x="420" y="1472" on="0"/>
        <pt x="427" y="1494" on="0"/>
        <pt x="431" y="1506" on="1"/>
        <pt x="440" y="1532" on="0"/>
        <pt x="449" y="1532" on="1"/>
        <pt x="479" y="1532" on="0"/>
      </contour>
    </TTGlyph>
    <TTGlyph name="g" xMin="92" yMin="-14" xMax="586" yMax="1356">
      <contour>
        <pt x="563" y="406" on="1"/>
        <pt x="571" y="92" on="1"/>
        <pt x="465" y="-14" on="0"/>
        <pt x="362" y="-14" on="1"/>
        <pt x="226" y="-14" on="0"/>
        <pt x="141" y="98" on="0"/>
        <pt x="92" y="506" on="0"/>
        <pt x="92" y="679" on="0"/>
        <pt x="112" y="887" on="0"/>
        <pt x="124" y="1076" on="0"/>
        <pt x="139" y="1140" on="1"/>
        <pt x="188" y="1356" on="0"/>
        <pt x="371" y="1356" on="1"/>
        <pt x="434" y="1356" on="0"/>
        <pt x="434" y="1327" on="1"/>
        <pt x="434" y="1313" on="0"/>
        <pt x="407" y="1296" on="0"/>
        <pt x="393" y="1296" on="1"/>
        <pt x="354" y="1300" on="1"/>
        <pt x="285" y="1300" on="0"/>
        <pt x="246" y="1212" on="1"/>
        <pt x="204" y="1114" on="0"/>
        <pt x="183" y="948" on="0"/>
        <pt x="173" y="850" on="0"/>
        <pt x="171" y="787" on="1"/>
        <pt x="168" y="692" on="0"/>
        <pt x="168" y="528" on="0"/>
        <pt x="174" y="479" on="1"/>
        <pt x="190" y="454" on="0"/>
        <pt x="200" y="341" on="0"/>
        <pt x="207" y="227" on="0"/>
        <pt x="232" y="115" on="0"/>
        <pt x="314" y="45" on="0"/>
        <pt x="385" y="45" on="1"/>
        <pt x="508" y="45" on="0"/>
        <pt x="508" y="372" on="1"/>
        <pt x="508" y="522" on="1"/>
        <pt x="487" y="543" on="0"/>
        <pt x="436" y="543" on="1"/>
        <pt x="397" y="541" on="1"/>
        <pt x="348" y="541" on="0"/>
        <pt x="348" y="565" on="1"/>
        <pt x="348" y="600" on="0"/>
        <pt x="397" y="600" on="1"/>
        <pt x="586" y="600" on="0"/>
        <pt x="586" y="559" on="1"/>
      </contour>
    </TTGlyph>
    <TTGlyph name="gbreve" xMin="92" yMin="-14" xMax="586" yMax="1706">
      <component glyphName="breve" x="39" y="588" flags="0x1004"/>
      <component glyphName="g" x="0" y="0" flags="0x1204"/>
    </TTGlyph>
    <TTGlyph name="gcircumflex" xMin="92" yMin="-14" xMax="586" yMax="1861">
      <component glyphName="circumflex" x="66" y="528" flags="0x1004"/>
      <component glyphName="g" x="0" y="0" flags="0x1204"/>
    </TTGlyph>
</ttFont>
